SplineFontDB: 3.0
FontName: Merriweather-Bold
FullName: Merriweather Bold
FamilyName: Merriweather
Weight: Bold
Copyright: Copyright (c) 2010 by Eben Sorkin (eben@eyebytes.com),with Reserved Font Name Merriweather.This Font Software is licensed under the SIL Open Font License, Version 1.1.This license is copied below, and is also available with a FAQ at:http://scripts.sil.org/OFL
Version: 1.287
ItalicAngle: 0
UnderlinePosition: -72
UnderlineWidth: 120
Ascent: 1638
Descent: 410
LayerCount: 2
Layer: 0 1 "Back"  1
Layer: 1 1 "Fore"  0
XUID: [1021 631 1661839179 11410053]
FSType: 0
OS2Version: 3
OS2_WeightWidthSlopeOnly: 0
OS2_UseTypoMetrics: 1
CreationTime: 1304095020
ModificationTime: 1304082968
PfmFamily: 17
TTFWeight: 700
TTFWidth: 5
LineGap: 0
VLineGap: 0
Panose: 2 6 5 3 5 4 6 3 7 4
OS2TypoAscent: 282
OS2TypoAOffset: 1
OS2TypoDescent: -230
OS2TypoDOffset: 1
OS2TypoLinegap: 0
OS2WinAscent: -55
OS2WinAOffset: 1
OS2WinDescent: 91
OS2WinDOffset: 1
HheadAscent: -55
HheadAOffset: 1
HheadDescent: -91
HheadDOffset: 1
OS2SubXSize: 1434
OS2SubYSize: 1331
OS2SubXOff: 0
OS2SubYOff: 287
OS2SupXSize: 1434
OS2SupYSize: 1331
OS2SupXOff: 0
OS2SupYOff: 977
OS2StrikeYSize: 85
OS2StrikeYPos: 520
OS2FamilyClass: 768
OS2Vendor: 'eye '
OS2CodePages: 20000113.40000000
OS2UnicodeRanges: 800000a7.50000002.00000000.00000000
Lookup: 4 0 0 "'dlig' Discretionary Ligatures in Latin lookup 0"  {"'dlig' Discretionary Ligatures in Latin lookup 0 subtable"  } ['dlig' ('latn' <'dflt' > ) ]
Lookup: 258 0 0 "'kern' Horizontal Kerning in Latin lookup 0"  {"'kern' Horizontal Kerning in Latin lookup 0 subtable"  } ['kern' ('latn' <'dflt' > ) ]
DEI: 91125
TtTable: prep
PUSHW_1
 511
SCANCTRL
PUSHB_1
 4
SCANTYPE
EndTTInstrs
ShortTable: maxp 16
  1
  0
  273
  133
  5
  0
  0
  1
  0
  0
  0
  0
  0
  0
  0
  0
EndShort

StartChar: .notdef
Encoding: 65536 -1 0
Width: 1259
Flags: W
LayerCount: 2
Fore
SplineSet
54 1330 m 1,0,-1
 1207 1330 l 1,1,-1
 1207 210 l 1,2,-1
 54 210 l 1,3,-1
 54 1330 l 1,0,-1
632 670 m 1,4,-1
 936 367 l 1,5,-1
 1052 480 l 1,6,-1
 737 773 l 1,7,-1
 1052 1057 l 1,8,-1
 930 1173 l 1,9,-1
 635 872 l 1,10,-1
 336 1174 l 1,11,-1
 218 1058 l 1,12,-1
 529 770 l 1,13,-1
 219 502 l 1,14,-1
 342 367 l 1,15,-1
 632 670 l 1,4,-1
EndSplineSet
EndChar

StartChar: quotesingle
Encoding: 39 39 4
Width: 820
Flags: W
LayerCount: 2
Fore
SplineSet
251 1782 m 1,0,-1
 566 1782 l 1,1,-1
 489 1036 l 1,2,-1
 328 1036 l 1,3,-1
 251 1782 l 1,0,-1
EndSplineSet
EndChar

StartChar: quotedbl
Encoding: 34 34 5
Width: 1175
Flags: W
LayerCount: 2
Fore
SplineSet
694 1782 m 1,0,-1
 1009 1782 l 1,1,-1
 932 1036 l 1,2,-1
 771 1036 l 1,3,-1
 694 1782 l 1,0,-1
192 1782 m 1,4,-1
 507 1782 l 1,5,-1
 430 1036 l 1,6,-1
 269 1036 l 1,7,-1
 192 1782 l 1,4,-1
EndSplineSet
EndChar

StartChar: quotesinglbase
Encoding: 8218 8218 6
Width: 826
Flags: W
LayerCount: 2
Fore
SplineSet
208 138 m 1,0,-1
 393 370 l 1,1,2
 462 348 462 348 509.5 302.5 c 128,-1,3
 557 257 557 257 586 202 c 128,-1,4
 615 147 615 147 627.5 89 c 128,-1,5
 640 31 640 31 639 -15 c 0,6,7
 638 -83 638 -83 621 -143.5 c 128,-1,8
 604 -204 604 -204 575 -256 c 128,-1,9
 546 -308 546 -308 508.5 -351.5 c 128,-1,10
 471 -395 471 -395 428.5 -429.5 c 128,-1,11
 386 -464 386 -464 342 -490 c 128,-1,12
 298 -516 298 -516 256 -532 c 1,13,-1
 173 -457 l 1,14,-1
 173 -417 l 1,15,16
 204 -405 204 -405 237.5 -375.5 c 128,-1,17
 271 -346 271 -346 299.5 -306 c 128,-1,18
 328 -266 328 -266 346.5 -218.5 c 128,-1,19
 365 -171 365 -171 365 -123 c 0,20,21
 365 -87 365 -87 351.5 -53 c 128,-1,22
 338 -19 338 -19 316.5 8.5 c 128,-1,23
 295 36 295 36 266.5 54 c 128,-1,24
 238 72 238 72 208 75 c 1,25,-1
 208 138 l 1,0,-1
EndSplineSet
EndChar

StartChar: quoteleft
Encoding: 8216 8216 7
Width: 827
Flags: W
LayerCount: 2
Fore
SplineSet
432 837 m 1,0,1
 363 858 363 858 315.5 903.5 c 128,-1,2
 268 949 268 949 239.5 1004.5 c 128,-1,3
 211 1060 211 1060 198.5 1118 c 128,-1,4
 186 1176 186 1176 187 1222 c 0,5,6
 188 1290 188 1290 205 1352 c 128,-1,7
 222 1414 222 1414 250.5 1468 c 128,-1,8
 279 1522 279 1522 317 1567.5 c 128,-1,9
 355 1613 355 1613 397 1649.5 c 128,-1,10
 439 1686 439 1686 483.5 1713 c 128,-1,11
 528 1740 528 1740 570 1757 c 1,12,-1
 653 1681 l 1,13,-1
 653 1641 l 1,14,15
 623 1629 623 1629 589 1597 c 128,-1,16
 555 1565 555 1565 526.5 1521.5 c 128,-1,17
 498 1478 498 1478 479.5 1428 c 128,-1,18
 461 1378 461 1378 461 1330 c 0,19,20
 461 1294 461 1294 474 1260 c 128,-1,21
 487 1226 487 1226 509 1198.5 c 128,-1,22
 531 1171 531 1171 559 1153 c 128,-1,23
 587 1135 587 1135 617 1132 c 1,24,-1
 617 1068 l 1,25,-1
 432 837 l 1,26,-1
 432 837 l 1,0,1
EndSplineSet
EndChar

StartChar: quoteright
Encoding: 8217 8217 8
Width: 827
Flags: W
LayerCount: 2
Fore
SplineSet
174 909 m 1,0,-1
 174 949 l 1,1,2
 205 961 205 961 239 992.5 c 128,-1,3
 273 1024 273 1024 301.5 1067.5 c 128,-1,4
 330 1111 330 1111 348.5 1161 c 128,-1,5
 367 1211 367 1211 367 1259 c 0,6,7
 367 1295 367 1295 353.5 1329.5 c 128,-1,8
 340 1364 340 1364 318.5 1391.5 c 128,-1,9
 297 1419 297 1419 268.5 1437 c 128,-1,10
 240 1455 240 1455 210 1458 c 1,11,-1
 210 1521 l 1,12,-1
 395 1753 l 1,13,14
 464 1731 464 1731 511.5 1685.5 c 128,-1,15
 559 1640 559 1640 588 1585 c 128,-1,16
 617 1530 617 1530 629 1472 c 128,-1,17
 641 1414 641 1414 641 1368 c 0,18,19
 639 1265 639 1265 602.5 1178 c 128,-1,20
 566 1091 566 1091 510.5 1022.5 c 128,-1,21
 455 954 455 954 388 906 c 128,-1,22
 321 858 321 858 258 834 c 1,23,-1
 174 909 l 1,0,-1
EndSplineSet
EndChar

StartChar: quotedblleft
Encoding: 8220 8220 9
Width: 1378
Flags: W
LayerCount: 2
Fore
SplineSet
982 780 m 1,0,1
 913 802 913 802 865.5 848 c 128,-1,2
 818 894 818 894 789 949 c 128,-1,3
 760 1004 760 1004 747.5 1061.5 c 128,-1,4
 735 1119 735 1119 737 1165 c 1,5,6
 738 1268 738 1268 775 1355.5 c 128,-1,7
 812 1443 812 1443 867.5 1511 c 128,-1,8
 923 1579 923 1579 990 1627 c 128,-1,9
 1057 1675 1057 1675 1119 1700 c 1,10,-1
 1204 1624 l 1,11,-1
 1204 1585 l 1,12,13
 1173 1573 1173 1573 1138.5 1541 c 128,-1,14
 1104 1509 1104 1509 1075.5 1465.5 c 128,-1,15
 1047 1422 1047 1422 1028.5 1372 c 128,-1,16
 1010 1322 1010 1322 1010 1274 c 0,17,18
 1010 1238 1010 1238 1023.5 1203.5 c 128,-1,19
 1037 1169 1037 1169 1059 1142 c 128,-1,20
 1081 1115 1081 1115 1109 1097 c 128,-1,21
 1137 1079 1137 1079 1167 1076 c 1,22,-1
 1167 1012 l 1,23,-1
 982 780 l 1,0,1
432 780 m 1,24,25
 362 802 362 802 314.5 848 c 128,-1,26
 267 894 267 894 238.5 949 c 128,-1,27
 210 1004 210 1004 198 1061.5 c 128,-1,28
 186 1119 186 1119 187 1165 c 0,29,30
 188 1268 188 1268 224.5 1355.5 c 128,-1,31
 261 1443 261 1443 317 1511 c 128,-1,32
 373 1579 373 1579 440 1627 c 128,-1,33
 507 1675 507 1675 570 1700 c 1,34,-1
 654 1624 l 1,35,-1
 654 1585 l 1,36,37
 623 1573 623 1573 589 1541 c 128,-1,38
 555 1509 555 1509 526.5 1465.5 c 128,-1,39
 498 1422 498 1422 479.5 1372 c 128,-1,40
 461 1322 461 1322 461 1274 c 0,41,42
 461 1238 461 1238 474 1203.5 c 128,-1,43
 487 1169 487 1169 509 1142 c 128,-1,44
 531 1115 531 1115 559 1097 c 128,-1,45
 587 1079 587 1079 617 1076 c 1,46,-1
 617 1012 l 1,47,-1
 432 780 l 1,24,25
EndSplineSet
EndChar

StartChar: quotedblright
Encoding: 8221 8221 10
Width: 1378
Flags: W
LayerCount: 2
Fore
SplineSet
724 946 m 1,0,1
 755 958 755 958 789 990 c 128,-1,2
 823 1022 823 1022 851.5 1065.5 c 128,-1,3
 880 1109 880 1109 898.5 1159 c 128,-1,4
 917 1209 917 1209 917 1257 c 0,5,6
 917 1293 917 1293 904 1327 c 128,-1,7
 891 1361 891 1361 869 1388.5 c 128,-1,8
 847 1416 847 1416 819 1434 c 128,-1,9
 791 1452 791 1452 761 1455 c 1,10,-1
 761 1519 l 1,11,-1
 946 1751 l 1,12,13
 1016 1729 1016 1729 1063.5 1683 c 128,-1,14
 1111 1637 1111 1637 1139.5 1582 c 128,-1,15
 1168 1527 1168 1527 1180.5 1469.5 c 128,-1,16
 1193 1412 1193 1412 1192 1366 c 0,17,18
 1190 1263 1190 1263 1153.5 1175.5 c 128,-1,19
 1117 1088 1117 1088 1061 1020 c 128,-1,20
 1005 952 1005 952 938 904 c 128,-1,21
 871 856 871 856 809 831 c 1,22,-1
 724 906 l 1,23,-1
 724 946 l 1,0,1
174 906 m 1,24,-1
 174 946 l 1,25,26
 205 958 205 958 239 990 c 128,-1,27
 273 1022 273 1022 301.5 1065.5 c 128,-1,28
 330 1109 330 1109 348.5 1159 c 128,-1,29
 367 1209 367 1209 367 1257 c 0,30,31
 367 1293 367 1293 353.5 1327 c 128,-1,32
 340 1361 340 1361 318.5 1388.5 c 128,-1,33
 297 1416 297 1416 268.5 1434 c 128,-1,34
 240 1452 240 1452 210 1455 c 1,35,-1
 210 1519 l 1,36,-1
 396 1751 l 1,37,38
 465 1729 465 1729 512.5 1683 c 128,-1,39
 560 1637 560 1637 589 1582 c 128,-1,40
 618 1527 618 1527 630 1469.5 c 128,-1,41
 642 1412 642 1412 641 1366 c 0,42,43
 640 1297 640 1297 623 1235.5 c 128,-1,44
 606 1174 606 1174 577 1120 c 128,-1,45
 548 1066 548 1066 510.5 1020 c 128,-1,46
 473 974 473 974 431 937.5 c 128,-1,47
 389 901 389 901 344.5 874 c 128,-1,48
 300 847 300 847 259 831 c 1,49,-1
 174 906 l 1,24,-1
EndSplineSet
EndChar

StartChar: quotedblbase
Encoding: 8222 8222 11
Width: 1378
Flags: W
LayerCount: 2
Fore
SplineSet
762 140 m 1,0,-1
 947 372 l 1,1,2
 1016 350 1016 350 1063.5 304.5 c 128,-1,3
 1111 259 1111 259 1140 203.5 c 128,-1,4
 1169 148 1169 148 1181 90.5 c 128,-1,5
 1193 33 1193 33 1192 -13 c 0,6,7
 1190 -116 1190 -116 1153.5 -203 c 128,-1,8
 1117 -290 1117 -290 1061 -358.5 c 128,-1,9
 1005 -427 1005 -427 938 -475 c 128,-1,10
 871 -523 871 -523 809 -548 c 1,11,-1
 724 -472 l 1,12,-1
 724 -432 l 1,13,14
 755 -420 755 -420 789.5 -388.5 c 128,-1,15
 824 -357 824 -357 852 -313.5 c 128,-1,16
 880 -270 880 -270 898.5 -220 c 128,-1,17
 917 -170 917 -170 917 -122 c 0,18,19
 917 -86 917 -86 904 -51.5 c 128,-1,20
 891 -17 891 -17 869 10.5 c 128,-1,21
 847 38 847 38 819.5 56 c 128,-1,22
 792 74 792 74 762 77 c 1,23,-1
 762 140 l 1,0,-1
211 140 m 1,24,-1
 397 372 l 1,25,26
 466 350 466 350 513.5 304.5 c 128,-1,27
 561 259 561 259 590 203.5 c 128,-1,28
 619 148 619 148 631 90.5 c 128,-1,29
 643 33 643 33 642 -13 c 0,30,31
 640 -116 640 -116 603.5 -203 c 128,-1,32
 567 -290 567 -290 511.5 -358.5 c 128,-1,33
 456 -427 456 -427 389 -475 c 128,-1,34
 322 -523 322 -523 260 -548 c 1,35,-1
 174 -472 l 1,36,-1
 174 -432 l 1,37,38
 205 -420 205 -420 239 -388.5 c 128,-1,39
 273 -357 273 -357 301.5 -313.5 c 128,-1,40
 330 -270 330 -270 348.5 -220 c 128,-1,41
 367 -170 367 -170 367 -122 c 0,42,43
 367 -86 367 -86 354 -51.5 c 128,-1,44
 341 -17 341 -17 319 10.5 c 128,-1,45
 297 38 297 38 269 56 c 128,-1,46
 241 74 241 74 211 77 c 1,47,-1
 211 140 l 1,24,-1
EndSplineSet
EndChar

StartChar: guilsinglright
Encoding: 8250 8250 12
Width: 1240
Flags: W
LayerCount: 2
Fore
SplineSet
234 241 m 1,0,-1
 778 619 l 1,1,-1
 242 988 l 1,2,-1
 313 1111 l 1,3,-1
 1005 803 l 1,4,-1
 1005 455 l 1,5,-1
 306 127 l 1,6,-1
 234 241 l 1,0,-1
EndSplineSet
EndChar

StartChar: guilsinglleft
Encoding: 8249 8249 13
Width: 1240
Flags: W
LayerCount: 2
Fore
SplineSet
234 783 m 1,0,-1
 934 1111 l 1,1,-1
 1005 997 l 1,2,-1
 461 618 l 1,3,-1
 999 250 l 1,4,-1
 927 127 l 1,5,-1
 234 435 l 1,6,-1
 234 783 l 1,0,-1
EndSplineSet
EndChar

StartChar: guillemotright
Encoding: 187 187 14
Width: 2042
Flags: W
LayerCount: 2
Fore
SplineSet
1581 619 m 1,0,-1
 1044 988 l 1,1,-1
 1115 1111 l 1,2,-1
 1808 803 l 1,3,-1
 1808 455 l 1,4,-1
 1108 127 l 1,5,-1
 1036 241 l 1,6,-1
 1581 619 l 1,0,-1
234 241 m 1,7,-1
 778 619 l 1,8,-1
 242 988 l 1,9,-1
 313 1111 l 1,10,-1
 1005 803 l 1,11,-1
 1005 455 l 1,12,-1
 306 127 l 1,13,-1
 234 241 l 1,7,-1
EndSplineSet
EndChar

StartChar: guillemotleft
Encoding: 171 171 15
Width: 2042
Flags: W
LayerCount: 2
Fore
SplineSet
1036 783 m 1,0,-1
 1736 1111 l 1,1,-1
 1808 997 l 1,2,-1
 1263 618 l 1,3,-1
 1800 250 l 1,4,-1
 1729 127 l 1,5,-1
 1036 435 l 1,6,-1
 1036 783 l 1,0,-1
234 783 m 1,7,-1
 934 1111 l 1,8,-1
 1005 997 l 1,9,-1
 461 618 l 1,10,-1
 998 250 l 1,11,-1
 927 127 l 1,12,-1
 234 435 l 1,13,-1
 234 783 l 1,7,-1
EndSplineSet
EndChar

StartChar: dagger
Encoding: 8224 8224 16
Width: 923
Flags: W
LayerCount: 2
Fore
SplineSet
326 968 m 1,0,-1
 360 1118 l 1,1,-1
 68 1099 l 1,2,3
 68 1151 68 1151 68.5 1202.5 c 128,-1,4
 69 1254 69 1254 69 1306 c 1,5,-1
 369 1281 l 1,6,-1
 325 1521 l 1,7,-1
 322 1648 l 1,8,-1
 607 1648 l 1,9,-1
 605 1521 l 1,10,-1
 596 1482 l 1,11,-1
 559 1281 l 1,12,-1
 842 1306 l 1,13,14
 842 1254 842 1254 842.5 1202.5 c 128,-1,15
 843 1151 843 1151 843 1099 c 1,16,-1
 567 1118 l 1,17,-1
 601 968 l 1,18,-1
 536 283 l 1,19,-1
 395 283 l 1,20,-1
 326 968 l 1,0,-1
EndSplineSet
EndChar

StartChar: parenleft
Encoding: 40 40 17
Width: 923
Flags: W
LayerCount: 2
Fore
SplineSet
649 -317 m 1,0,1
 625 -303 625 -303 578 -267.5 c 128,-1,2
 531 -232 531 -232 474.5 -173 c 128,-1,3
 418 -114 418 -114 359 -30 c 128,-1,4
 300 54 300 54 251.5 164 c 128,-1,5
 203 274 203 274 172 411.5 c 128,-1,6
 141 549 141 549 141 715 c 0,7,8
 141 860 141 860 171.5 987.5 c 128,-1,9
 202 1115 202 1115 249.5 1223 c 128,-1,10
 297 1331 297 1331 355.5 1417.5 c 128,-1,11
 414 1504 414 1504 469.5 1567.5 c 128,-1,12
 525 1631 525 1631 571.5 1670 c 128,-1,13
 618 1709 618 1709 642 1722 c 1,14,-1
 762 1636 l 1,15,16
 741 1622 741 1622 708 1589.5 c 128,-1,17
 675 1557 675 1557 637.5 1505 c 128,-1,18
 600 1453 600 1453 561.5 1381 c 128,-1,19
 523 1309 523 1309 491 1217 c 128,-1,20
 459 1125 459 1125 437 1011.5 c 128,-1,21
 415 898 415 898 411 764 c 0,22,23
 406 628 406 628 424.5 506.5 c 128,-1,24
 443 385 443 385 475.5 281 c 128,-1,25
 508 177 508 177 550 92 c 128,-1,26
 592 7 592 7 634 -57 c 128,-1,27
 676 -121 676 -121 714.5 -163.5 c 128,-1,28
 753 -206 753 -206 778 -224 c 1,29,-1
 649 -317 l 1,30,-1
 649 -317 l 1,0,1
EndSplineSet
EndChar

StartChar: parenright
Encoding: 41 41 18
Width: 923
Flags: W
LayerCount: 2
Fore
SplineSet
166 -240 m 1,0,1
 183 -226 183 -226 214.5 -193 c 128,-1,2
 246 -160 246 -160 283.5 -108 c 128,-1,3
 321 -56 321 -56 360 16 c 128,-1,4
 399 88 399 88 432 180.5 c 128,-1,5
 465 273 465 273 487 386 c 128,-1,6
 509 499 509 499 513 634 c 0,7,8
 517 781 517 781 497 907 c 128,-1,9
 477 1033 477 1033 443 1136.5 c 128,-1,10
 409 1240 409 1240 365.5 1322 c 128,-1,11
 322 1404 322 1404 280 1465 c 128,-1,12
 238 1526 238 1526 201.5 1565 c 128,-1,13
 165 1604 165 1604 145 1622 c 1,14,-1
 281 1722 l 1,15,16
 305 1708 305 1708 351.5 1672 c 128,-1,17
 398 1636 398 1636 454 1576 c 128,-1,18
 510 1516 510 1516 568.5 1431.5 c 128,-1,19
 627 1347 627 1347 674.5 1236 c 128,-1,20
 722 1125 722 1125 752.5 987 c 128,-1,21
 783 849 783 849 783 683 c 0,22,23
 783 538 783 538 753 411 c 128,-1,24
 723 284 723 284 675.5 177 c 128,-1,25
 628 70 628 70 570.5 -15.5 c 128,-1,26
 513 -101 513 -101 457.5 -164 c 128,-1,27
 402 -227 402 -227 356 -265.5 c 128,-1,28
 310 -304 310 -304 286 -317 c 1,29,-1
 166 -240 l 1,30,-1
 166 -240 l 1,0,1
EndSplineSet
EndChar

StartChar: braceleft
Encoding: 123 123 19
Width: 1101
Flags: W
LayerCount: 2
Fore
SplineSet
301 568 m 2,0,1
 301 590 301 590 283 610 c 128,-1,2
 265 630 265 630 235.5 645.5 c 128,-1,3
 206 661 206 661 168.5 672.5 c 128,-1,4
 131 684 131 684 93 690 c 1,5,-1
 93 871 l 1,6,7
 132 878 132 878 169.5 887 c 128,-1,8
 207 896 207 896 236.5 909.5 c 128,-1,9
 266 923 266 923 283.5 941.5 c 128,-1,10
 301 960 301 960 301 985 c 2,11,-1
 301 1527 l 2,12,13
 301 1601 301 1601 316.5 1649 c 128,-1,14
 332 1697 332 1697 362.5 1725.5 c 128,-1,15
 393 1754 393 1754 437.5 1765.5 c 128,-1,16
 482 1777 482 1777 540 1777 c 0,17,18
 581 1777 581 1777 622.5 1770.5 c 128,-1,19
 664 1764 664 1764 704.5 1755 c 128,-1,20
 745 1746 745 1746 782.5 1735.5 c 128,-1,21
 820 1725 820 1725 852 1716 c 1,22,23
 852 1688 852 1688 851.5 1661 c 128,-1,24
 851 1634 851 1634 851 1607 c 1,25,-1
 550 1607 l 1,26,-1
 550 971 l 2,27,28
 550 929 550 929 532.5 900.5 c 128,-1,29
 515 872 515 872 485.5 851 c 128,-1,30
 456 830 456 830 416.5 812.5 c 128,-1,31
 377 795 377 795 334 776 c 1,32,33
 377 758 377 758 416.5 739.5 c 128,-1,34
 456 721 456 721 485.5 698 c 128,-1,35
 515 675 515 675 532.5 645 c 128,-1,36
 550 615 550 615 550 575 c 2,37,-1
 550 -59 l 1,38,-1
 851 -59 l 1,39,40
 851 -87 851 -87 851.5 -114.5 c 128,-1,41
 852 -142 852 -142 852 -170 c 1,42,43
 820 -179 820 -179 784 -189.5 c 128,-1,44
 748 -200 748 -200 710 -209 c 128,-1,45
 672 -218 672 -218 632 -224 c 128,-1,46
 592 -230 592 -230 551 -230 c 0,47,48
 493 -230 493 -230 447 -219.5 c 128,-1,49
 401 -209 401 -209 368.5 -180 c 128,-1,50
 336 -151 336 -151 318.5 -100 c 128,-1,51
 301 -49 301 -49 301 31 c 2,52,-1
 301 568 l 2,0,1
EndSplineSet
EndChar

StartChar: braceright
Encoding: 125 125 20
Width: 1101
Flags: W
LayerCount: 2
Fore
SplineSet
550 -59 m 1,0,-1
 550 576 l 2,1,2
 550 618 550 618 567.5 647 c 128,-1,3
 585 676 585 676 614.5 697.5 c 128,-1,4
 644 719 644 719 683.5 737 c 128,-1,5
 723 755 723 755 767 774 c 1,6,7
 723 793 723 793 683.5 810.5 c 128,-1,8
 644 828 644 828 614.5 850 c 128,-1,9
 585 872 585 872 567.5 901 c 128,-1,10
 550 930 550 930 550 972 c 2,11,-1
 550 1607 l 1,12,-1
 250 1607 l 1,13,14
 250 1634 250 1634 249.5 1661.5 c 128,-1,15
 249 1689 249 1689 249 1717 c 1,16,17
 281 1726 281 1726 318.5 1736.5 c 128,-1,18
 356 1747 356 1747 396.5 1756.5 c 128,-1,19
 437 1766 437 1766 478.5 1772 c 128,-1,20
 520 1778 520 1778 561 1778 c 0,21,22
 627 1778 627 1778 673 1765 c 128,-1,23
 719 1752 719 1752 747 1718.5 c 128,-1,24
 775 1685 775 1685 787.5 1627.5 c 128,-1,25
 800 1570 800 1570 800 1482 c 2,26,-1
 800 986 l 2,27,28
 800 961 800 961 817.5 942.5 c 128,-1,29
 835 924 835 924 864 909.5 c 128,-1,30
 893 895 893 895 930.5 885 c 128,-1,31
 968 875 968 875 1008 868 c 1,32,-1
 1008 688 l 1,33,34
 970 682 970 682 933 671 c 128,-1,35
 896 660 896 660 866.5 645 c 128,-1,36
 837 630 837 630 818.5 610.5 c 128,-1,37
 800 591 800 591 800 568 c 2,38,-1
 800 32 l 2,39,40
 800 -48 800 -48 782.5 -99 c 128,-1,41
 765 -150 765 -150 732.5 -179 c 128,-1,42
 700 -208 700 -208 654 -218.5 c 128,-1,43
 608 -229 608 -229 550 -229 c 0,44,45
 509 -229 509 -229 469 -223 c 128,-1,46
 429 -217 429 -217 391 -208 c 128,-1,47
 353 -199 353 -199 317 -188.5 c 128,-1,48
 281 -178 281 -178 249 -169 c 1,49,50
 249 -141 249 -141 249.5 -114 c 128,-1,51
 250 -87 250 -87 250 -59 c 1,52,-1
 550 -59 l 1,0,-1
EndSplineSet
EndChar

StartChar: bracketleft
Encoding: 91 91 21
Width: 923
Flags: W
LayerCount: 2
Fore
SplineSet
114 1501 m 2,0,1
 114 1583 114 1583 129 1636.5 c 128,-1,2
 144 1690 144 1690 176 1720.5 c 128,-1,3
 208 1751 208 1751 257.5 1763 c 128,-1,4
 307 1775 307 1775 375 1775 c 0,5,6
 450 1775 450 1775 523 1755 c 128,-1,7
 596 1735 596 1735 665 1713 c 1,8,9
 665 1686 665 1686 664.5 1659 c 128,-1,10
 664 1632 664 1632 664 1605 c 1,11,-1
 364 1605 l 1,12,-1
 364 -42 l 1,13,-1
 664 -45 l 1,14,15
 665 -72 665 -72 666 -99 c 128,-1,16
 667 -126 667 -126 667 -153 c 1,17,18
 639 -165 639 -165 604 -176 c 128,-1,19
 569 -187 569 -187 530.5 -195 c 128,-1,20
 492 -203 492 -203 452 -208 c 128,-1,21
 412 -213 412 -213 375 -213 c 0,22,23
 306 -213 306 -213 257 -201.5 c 128,-1,24
 208 -190 208 -190 176 -157.5 c 128,-1,25
 144 -125 144 -125 129 -66 c 128,-1,26
 114 -7 114 -7 114 89 c 2,27,-1
 114 1501 l 2,0,1
EndSplineSet
EndChar

StartChar: bracketright
Encoding: 93 93 22
Width: 923
Flags: W
LayerCount: 2
Fore
SplineSet
569 -42 m 1,0,-1
 569 1605 l 1,1,-1
 259 1605 l 1,2,3
 259 1632 259 1632 258.5 1659 c 128,-1,4
 258 1686 258 1686 258 1713 c 1,5,6
 292 1725 292 1725 329.5 1736 c 128,-1,7
 367 1747 367 1747 405.5 1756 c 128,-1,8
 444 1765 444 1765 482.5 1770.5 c 128,-1,9
 521 1776 521 1776 559 1776 c 0,10,11
 627 1776 627 1776 676.5 1764 c 128,-1,12
 726 1752 726 1752 757.5 1721.5 c 128,-1,13
 789 1691 789 1691 804 1637.5 c 128,-1,14
 819 1584 819 1584 819 1502 c 2,15,-1
 819 90 l 2,16,17
 819 -6 819 -6 804 -65 c 128,-1,18
 789 -124 789 -124 757 -157 c 128,-1,19
 725 -190 725 -190 676 -201.5 c 128,-1,20
 627 -213 627 -213 558 -213 c 0,21,22
 521 -213 521 -213 479.5 -208 c 128,-1,23
 438 -203 438 -203 398 -194.5 c 128,-1,24
 358 -186 358 -186 321 -175 c 128,-1,25
 284 -164 284 -164 256 -152 c 1,26,-1
 259 -44 l 1,27,-1
 569 -42 l 1,0,-1
EndSplineSet
EndChar

StartChar: zero
Encoding: 48 48 23
Width: 1402
Flags: W
LayerCount: 2
Fore
SplineSet
130 632 m 0,0,1
 132 777 132 777 182.5 892 c 128,-1,2
 233 1007 233 1007 315 1086.5 c 128,-1,3
 397 1166 397 1166 502 1208.5 c 128,-1,4
 607 1251 607 1251 719 1252 c 0,5,6
 870 1253 870 1253 975.5 1204.5 c 128,-1,7
 1081 1156 1081 1156 1147 1071 c 128,-1,8
 1213 986 1213 986 1242.5 870.5 c 128,-1,9
 1272 755 1272 755 1271 623 c 0,10,11
 1269 479 1269 479 1222.5 359 c 128,-1,12
 1176 239 1176 239 1097 153.5 c 128,-1,13
 1018 68 1018 68 913.5 20 c 128,-1,14
 809 -28 809 -28 693 -28 c 0,15,16
 594 -28 594 -28 513.5 -3 c 128,-1,17
 433 22 433 22 370.5 66.5 c 128,-1,18
 308 111 308 111 262 173 c 128,-1,19
 216 235 216 235 186.5 308.5 c 128,-1,20
 157 382 157 382 143 464 c 128,-1,21
 129 546 129 546 130 632 c 0,0,1
709 106 m 0,22,23
 781 104 781 104 829 136 c 128,-1,24
 877 168 877 168 906 232 c 128,-1,25
 935 296 935 296 947.5 391.5 c 128,-1,26
 960 487 960 487 960 612 c 0,27,28
 960 723 960 723 943 815.5 c 128,-1,29
 926 908 926 908 892.5 975.5 c 128,-1,30
 859 1043 859 1043 809 1080.5 c 128,-1,31
 759 1118 759 1118 692 1120 c 1,32,33
 620 1121 620 1121 572 1089.5 c 128,-1,34
 524 1058 524 1058 494.5 996.5 c 128,-1,35
 465 935 465 935 452.5 846.5 c 128,-1,36
 440 758 440 758 440 647 c 0,37,38
 440 583 440 583 447.5 518 c 128,-1,39
 455 453 455 453 470 393.5 c 128,-1,40
 485 334 485 334 507.5 282 c 128,-1,41
 530 230 530 230 560 191.5 c 128,-1,42
 590 153 590 153 627 130 c 128,-1,43
 664 107 664 107 709 106 c 0,22,23
EndSplineSet
EndChar

StartChar: one
Encoding: 49 49 24
Width: 943
Flags: W
LayerCount: 2
Fore
SplineSet
61 120 m 1,0,-1
 345 156 l 1,1,-1
 345 953 l 1,2,3
 318 951 318 951 285 947.5 c 128,-1,4
 252 944 252 944 216 939.5 c 128,-1,5
 180 935 180 935 143.5 930 c 128,-1,6
 107 925 107 925 73 920 c 1,7,-1
 44 1057 l 1,8,9
 75 1066 75 1066 122 1082 c 128,-1,10
 169 1098 169 1098 221.5 1118 c 128,-1,11
 274 1138 274 1138 327.5 1160 c 128,-1,12
 381 1182 381 1182 427 1202.5 c 128,-1,13
 473 1223 473 1223 507 1239.5 c 128,-1,14
 541 1256 541 1256 553 1266 c 1,15,-1
 635 1249 l 1,16,-1
 631 155 l 1,17,-1
 897 120 l 1,18,-1
 897 0 l 1,19,-1
 61 0 l 1,20,-1
 61 120 l 1,0,-1
EndSplineSet
EndChar

StartChar: two
Encoding: 50 50 25
Width: 1265
Flags: W
LayerCount: 2
Fore
SplineSet
97 108 m 1,0,1
 222 187 222 187 333.5 277 c 128,-1,2
 445 367 445 367 528.5 459.5 c 128,-1,3
 612 552 612 552 661 643 c 128,-1,4
 710 734 710 734 710 817 c 0,5,6
 710 857 710 857 701 903 c 128,-1,7
 692 949 692 949 667.5 988 c 128,-1,8
 643 1027 643 1027 598.5 1052.5 c 128,-1,9
 554 1078 554 1078 483 1078 c 0,10,11
 428 1078 428 1078 378 1064 c 128,-1,12
 328 1050 328 1050 286.5 1031 c 128,-1,13
 245 1012 245 1012 214 992 c 128,-1,14
 183 972 183 972 167 959 c 1,15,-1
 100 1061 l 1,16,17
 120 1087 120 1087 166 1122 c 128,-1,18
 212 1157 212 1157 276.5 1188.5 c 128,-1,19
 341 1220 341 1220 419.5 1241.5 c 128,-1,20
 498 1263 498 1263 584 1263 c 0,21,22
 691 1263 691 1263 771.5 1235 c 128,-1,23
 852 1207 852 1207 905.5 1159.5 c 128,-1,24
 959 1112 959 1112 986 1049.5 c 128,-1,25
 1013 987 1013 987 1013 918 c 0,26,27
 1013 814 1013 814 971 712.5 c 128,-1,28
 929 611 929 611 852 513.5 c 128,-1,29
 775 416 775 416 666 323.5 c 128,-1,30
 557 231 557 231 423 145 c 1,31,-1
 945 208 l 1,32,-1
 1034 325 l 1,33,-1
 1160 281 l 1,34,-1
 1093 0 l 1,35,-1
 138 0 l 1,36,-1
 97 108 l 1,0,1
EndSplineSet
EndChar

StartChar: three
Encoding: 51 51 26
Width: 1119
Flags: W
LayerCount: 2
Fore
SplineSet
139 -162 m 1,0,1
 210 -181 210 -181 281 -180.5 c 128,-1,2
 352 -180 352 -180 417 -163.5 c 128,-1,3
 482 -147 482 -147 537.5 -115 c 128,-1,4
 593 -83 593 -83 634 -39 c 128,-1,5
 675 5 675 5 698.5 60.5 c 128,-1,6
 722 116 722 116 722 179 c 0,7,8
 722 225 722 225 713 274 c 128,-1,9
 704 323 704 323 674.5 364 c 128,-1,10
 645 405 645 405 590.5 434 c 128,-1,11
 536 463 536 463 446 469 c 1,12,-1
 273 428 l 1,13,-1
 273 601 l 1,14,15
 301 607 301 607 339 618.5 c 128,-1,16
 377 630 377 630 417 647.5 c 128,-1,17
 457 665 457 665 496.5 689 c 128,-1,18
 536 713 536 713 566.5 744 c 128,-1,19
 597 775 597 775 616.5 814 c 128,-1,20
 636 853 636 853 636 901 c 0,21,22
 636 953 636 953 620 990 c 128,-1,23
 604 1027 604 1027 577.5 1051 c 128,-1,24
 551 1075 551 1075 517 1086 c 128,-1,25
 483 1097 483 1097 448 1097 c 0,26,27
 391 1097 391 1097 346 1087 c 128,-1,28
 301 1077 301 1077 265 1061.5 c 128,-1,29
 229 1046 229 1046 200.5 1026 c 128,-1,30
 172 1006 172 1006 147 986 c 1,31,-1
 75 1102 l 1,32,33
 93 1121 93 1121 132.5 1149.5 c 128,-1,34
 172 1178 172 1178 230.5 1204.5 c 128,-1,35
 289 1231 289 1231 365.5 1250 c 128,-1,36
 442 1269 442 1269 535 1269 c 0,37,38
 606 1269 606 1269 673.5 1251 c 128,-1,39
 741 1233 741 1233 793.5 1193 c 128,-1,40
 846 1153 846 1153 878 1090 c 128,-1,41
 910 1027 910 1027 910 936 c 0,42,43
 910 879 910 879 884.5 819.5 c 128,-1,44
 859 760 859 760 817 707 c 128,-1,45
 775 654 775 654 720 613 c 128,-1,46
 665 572 665 572 607 553 c 1,47,48
 700 553 700 553 773.5 528 c 128,-1,49
 847 503 847 503 898 457.5 c 128,-1,50
 949 412 949 412 976 348 c 128,-1,51
 1003 284 1003 284 1003 206 c 256,52,53
 1003 128 1003 128 974.5 50.5 c 128,-1,54
 946 -27 946 -27 892 -95 c 128,-1,55
 838 -163 838 -163 761.5 -217 c 128,-1,56
 685 -271 685 -271 589 -303 c 128,-1,57
 493 -335 493 -335 380 -340.5 c 128,-1,58
 267 -346 267 -346 140 -316 c 1,59,60
 140 -278 140 -278 139.5 -239 c 128,-1,61
 139 -200 139 -200 139 -162 c 1,0,1
EndSplineSet
EndChar

StartChar: four
Encoding: 52 52 27
Width: 1290
Flags: W
LayerCount: 2
Fore
SplineSet
66 105 m 1,0,1
 213 365 213 365 366 655.5 c 128,-1,2
 519 946 519 946 673 1273 c 1,3,-1
 740 1273 l 1,4,-1
 924 1145 l 1,5,-1
 358 228 l 1,6,-1
 292 145 l 1,7,-1
 746 189 l 1,8,-1
 762 608 l 1,9,-1
 985 648 l 1,10,-1
 985 212 l 1,11,-1
 1242 237 l 1,12,-1
 1242 0 l 1,13,-1
 985 0 l 1,14,-1
 985 -376 l 1,15,-1
 724 -376 l 1,16,-1
 738 0 l 1,17,-1
 110 0 l 1,18,-1
 66 105 l 1,0,1
EndSplineSet
EndChar

StartChar: five
Encoding: 53 53 28
Width: 1126
Flags: W
LayerCount: 2
Fore
SplineSet
153 -195 m 1,0,1
 223 -202 223 -202 291.5 -193.5 c 128,-1,2
 360 -185 360 -185 422 -161.5 c 128,-1,3
 484 -138 484 -138 537 -101.5 c 128,-1,4
 590 -65 590 -65 628.5 -15.5 c 128,-1,5
 667 34 667 34 689 94.5 c 128,-1,6
 711 155 711 155 711 226 c 0,7,8
 711 336 711 336 673 408.5 c 128,-1,9
 635 481 635 481 565.5 517 c 128,-1,10
 496 553 496 553 398 554 c 128,-1,11
 300 555 300 555 180 522 c 1,12,-1
 144 552 l 1,13,-1
 226 1237 l 1,14,-1
 846 1237 l 1,15,-1
 962 1249 l 1,16,-1
 891 1015 l 1,17,-1
 414 1015 l 1,18,-1
 333 670 l 1,19,20
 486 715 486 715 610 705 c 128,-1,21
 734 695 734 695 822 642 c 128,-1,22
 910 589 910 589 958 498 c 128,-1,23
 1006 407 1006 407 1006 292 c 0,24,25
 1006 200 1006 200 977.5 116.5 c 128,-1,26
 949 33 949 33 897.5 -38.5 c 128,-1,27
 846 -110 846 -110 776 -168 c 128,-1,28
 706 -226 706 -226 623 -266.5 c 128,-1,29
 540 -307 540 -307 447.5 -329 c 128,-1,30
 355 -351 355 -351 259 -351 c 0,31,32
 233 -351 233 -351 206 -348 c 128,-1,33
 179 -345 179 -345 152 -337 c 1,34,35
 152 -302 152 -302 152.5 -266 c 128,-1,36
 153 -230 153 -230 153 -195 c 1,0,1
EndSplineSet
EndChar

StartChar: six
Encoding: 54 54 29
Width: 1306
Flags: W
LayerCount: 2
Fore
SplineSet
113 545 m 0,0,1
 113 678 113 678 150 797.5 c 128,-1,2
 187 917 187 917 251.5 1020.5 c 128,-1,3
 316 1124 316 1124 403 1210.5 c 128,-1,4
 490 1297 490 1297 589.5 1362.5 c 128,-1,5
 689 1428 689 1428 796 1472 c 128,-1,6
 903 1516 903 1516 1008 1535 c 1,7,-1
 1059 1426 l 1,8,9
 921 1377 921 1377 800.5 1297.5 c 128,-1,10
 680 1218 680 1218 590.5 1116 c 128,-1,11
 501 1014 501 1014 449 893.5 c 128,-1,12
 397 773 397 773 395 641 c 0,13,14
 394 578 394 578 396.5 514.5 c 128,-1,15
 399 451 399 451 409 393 c 128,-1,16
 419 335 419 335 438 285 c 128,-1,17
 457 235 457 235 488.5 198 c 128,-1,18
 520 161 520 161 565 140 c 128,-1,19
 610 119 610 119 672 119 c 0,20,21
 724 119 724 119 769 142 c 128,-1,22
 814 165 814 165 847.5 209 c 128,-1,23
 881 253 881 253 900 317 c 128,-1,24
 919 381 919 381 919 463 c 0,25,26
 919 530 919 530 902 589.5 c 128,-1,27
 885 649 885 649 854.5 693 c 128,-1,28
 824 737 824 737 781.5 762.5 c 128,-1,29
 739 788 739 788 687 788 c 0,30,31
 655 788 655 788 611.5 780 c 128,-1,32
 568 772 568 772 529 749 c 1,33,-1
 483 837 l 1,34,35
 495 854 495 854 524 876.5 c 128,-1,36
 553 899 553 899 593.5 919.5 c 128,-1,37
 634 940 634 940 683 954 c 128,-1,38
 732 968 732 968 786 968 c 0,39,40
 885 968 885 968 959.5 933 c 128,-1,41
 1034 898 1034 898 1084.5 838.5 c 128,-1,42
 1135 779 1135 779 1160 699.5 c 128,-1,43
 1185 620 1185 620 1185 531 c 0,44,45
 1185 422 1185 422 1147 321.5 c 128,-1,46
 1109 221 1109 221 1037.5 144 c 128,-1,47
 966 67 966 67 864.5 21 c 128,-1,48
 763 -25 763 -25 637 -25 c 0,49,50
 517 -25 517 -25 420 20.5 c 128,-1,51
 323 66 323 66 255 143.5 c 128,-1,52
 187 221 187 221 150 324.5 c 128,-1,53
 113 428 113 428 113 545 c 0,0,1
EndSplineSet
EndChar

StartChar: seven
Encoding: 55 55 30
Width: 1290
Flags: W
LayerCount: 2
Fore
SplineSet
958 1094 m 1,0,-1
 401 1059 l 1,1,-1
 311 889 l 1,2,-1
 161 896 l 1,3,-1
 219 1253 l 1,4,-1
 1131 1253 l 1,5,-1
 1173 1206 l 1,6,-1
 570 -327 l 1,7,-1
 288 -226 l 1,8,-1
 958 1094 l 1,0,-1
EndSplineSet
EndChar

StartChar: eight
Encoding: 56 56 31
Width: 1290
Flags: W
LayerCount: 2
Fore
SplineSet
114 373 m 0,0,1
 114 424 114 424 132 479 c 128,-1,2
 150 534 150 534 187.5 588 c 128,-1,3
 225 642 225 642 284 691.5 c 128,-1,4
 343 741 343 741 426 782 c 1,5,6
 378 817 378 817 336.5 856.5 c 128,-1,7
 295 896 295 896 264.5 941.5 c 128,-1,8
 234 987 234 987 216 1040 c 128,-1,9
 198 1093 198 1093 198 1155 c 0,10,11
 198 1257 198 1257 239 1331 c 128,-1,12
 280 1405 280 1405 346.5 1454 c 128,-1,13
 413 1503 413 1503 497.5 1526.5 c 128,-1,14
 582 1550 582 1550 669 1550 c 0,15,16
 759 1550 759 1550 839 1526.5 c 128,-1,17
 919 1503 919 1503 979 1457.5 c 128,-1,18
 1039 1412 1039 1412 1073.5 1346 c 128,-1,19
 1108 1280 1108 1280 1108 1195 c 0,20,21
 1108 1137 1108 1137 1085 1078 c 128,-1,22
 1062 1019 1062 1019 1025 967 c 128,-1,23
 988 915 988 915 941.5 873 c 128,-1,24
 895 831 895 831 848 807 c 1,25,26
 910 765 910 765 968 721 c 128,-1,27
 1026 677 1026 677 1070 628 c 128,-1,28
 1114 579 1114 579 1141 523.5 c 128,-1,29
 1168 468 1168 468 1169 405 c 1,30,31
 1169 289 1169 289 1123 207 c 128,-1,32
 1077 125 1077 125 1002.5 73 c 128,-1,33
 928 21 928 21 834.5 -3.5 c 128,-1,34
 741 -28 741 -28 646 -28 c 0,35,36
 585 -28 585 -28 522 -18 c 128,-1,37
 459 -8 459 -8 400 12.5 c 128,-1,38
 341 33 341 33 288.5 65 c 128,-1,39
 236 97 236 97 197.5 141.5 c 128,-1,40
 159 186 159 186 136.5 243.5 c 128,-1,41
 114 301 114 301 114 373 c 0,0,1
729 884 m 1,42,43
 759 902 759 902 785 928 c 128,-1,44
 811 954 811 954 830.5 983.5 c 128,-1,45
 850 1013 850 1013 862 1043 c 128,-1,46
 874 1073 874 1073 877 1100 c 1,47,48
 890 1176 890 1176 875.5 1237 c 128,-1,49
 861 1298 861 1298 828 1340.5 c 128,-1,50
 795 1383 795 1383 749 1405.5 c 128,-1,51
 703 1428 703 1428 652 1428 c 0,52,53
 614 1428 614 1428 574.5 1415 c 128,-1,54
 535 1402 535 1402 503 1375.5 c 128,-1,55
 471 1349 471 1349 451 1310.5 c 128,-1,56
 431 1272 431 1272 431 1221 c 0,57,58
 431 1171 431 1171 455.5 1127 c 128,-1,59
 480 1083 480 1083 521 1042 c 128,-1,60
 562 1001 562 1001 616 962 c 128,-1,61
 670 923 670 923 729 884 c 1,42,43
365 441 m 0,62,63
 365 368 365 368 386 307 c 128,-1,64
 407 246 407 246 447.5 201.5 c 128,-1,65
 488 157 488 157 546 132.5 c 128,-1,66
 604 108 604 108 678 108 c 0,67,68
 721 108 721 108 763 121 c 128,-1,69
 805 134 805 134 838 161.5 c 128,-1,70
 871 189 871 189 891.5 232 c 128,-1,71
 912 275 912 275 912 336 c 0,72,73
 912 395 912 395 880 443.5 c 128,-1,74
 848 492 848 492 795.5 535.5 c 128,-1,75
 743 579 743 579 676.5 620 c 128,-1,76
 610 661 610 661 541 705 c 1,77,78
 506 684 506 684 474.5 657 c 128,-1,79
 443 630 443 630 418.5 597 c 128,-1,80
 394 564 394 564 379.5 525 c 128,-1,81
 365 486 365 486 365 441 c 0,62,63
EndSplineSet
EndChar

StartChar: nine
Encoding: 57 57 32
Width: 1290
Flags: W
LayerCount: 2
Fore
SplineSet
237 -290 m 1,0,1
 336 -255 336 -255 420.5 -201.5 c 128,-1,2
 505 -148 505 -148 574.5 -82 c 128,-1,3
 644 -16 644 -16 698.5 59.5 c 128,-1,4
 753 135 753 135 792 214.5 c 128,-1,5
 831 294 831 294 854.5 374 c 128,-1,6
 878 454 878 454 885 530 c 0,7,8
 891 596 891 596 892.5 665 c 128,-1,9
 894 734 894 734 887.5 798.5 c 128,-1,10
 881 863 881 863 863.5 919.5 c 128,-1,11
 846 976 846 976 814.5 1018.5 c 128,-1,12
 783 1061 783 1061 735 1085.5 c 128,-1,13
 687 1110 687 1110 619 1110 c 0,14,15
 557 1110 557 1110 511 1082.5 c 128,-1,16
 465 1055 465 1055 434 1009.5 c 128,-1,17
 403 964 403 964 388 905 c 128,-1,18
 373 846 373 846 373 783 c 0,19,20
 373 690 373 690 394 622.5 c 128,-1,21
 415 555 415 555 448.5 511.5 c 128,-1,22
 482 468 482 468 524 447.5 c 128,-1,23
 566 427 566 427 608 427 c 0,24,25
 623 427 623 427 643 429 c 128,-1,26
 663 431 663 431 683.5 436 c 128,-1,27
 704 441 704 441 723 448 c 128,-1,28
 742 455 742 455 756 466 c 1,29,-1
 801 378 l 1,30,31
 783 352 783 352 754 328 c 128,-1,32
 725 304 725 304 687 286 c 128,-1,33
 649 268 649 268 604 257.5 c 128,-1,34
 559 247 559 247 510 247 c 0,35,36
 407 247 407 247 331 288.5 c 128,-1,37
 255 330 255 330 205.5 396 c 128,-1,38
 156 462 156 462 131.5 543 c 128,-1,39
 107 624 107 624 107 703 c 0,40,41
 107 818 107 818 146 918.5 c 128,-1,42
 185 1019 185 1019 257.5 1093.5 c 128,-1,43
 330 1168 330 1168 432 1211 c 128,-1,44
 534 1254 534 1254 660 1254 c 0,45,46
 775 1254 775 1254 869.5 1209.5 c 128,-1,47
 964 1165 964 1165 1031.5 1088 c 128,-1,48
 1099 1011 1099 1011 1136 908 c 128,-1,49
 1173 805 1173 805 1173 688 c 0,50,51
 1173 540 1173 540 1136.5 406.5 c 128,-1,52
 1100 273 1100 273 1036.5 157.5 c 128,-1,53
 973 42 973 42 887 -53.5 c 128,-1,54
 801 -149 801 -149 702.5 -221.5 c 128,-1,55
 604 -294 604 -294 498 -341.5 c 128,-1,56
 392 -389 392 -389 287 -408 c 1,57,-1
 285 -408 l 1,58,-1
 237 -290 l 1,59,-1
 237 -290 l 1,0,1
EndSplineSet
EndChar

StartChar: percent
Encoding: 37 37 33
Width: 2145
Flags: W
LayerCount: 2
Fore
SplineSet
1231 1601 m 1,0,-1
 1474 1601 l 1,1,-1
 901 0 l 1,2,-1
 662 0 l 1,3,-1
 1231 1601 l 1,0,-1
507 692 m 0,4,5
 429 690 429 690 366 719 c 128,-1,6
 303 748 303 748 259.5 797.5 c 128,-1,7
 216 847 216 847 192.5 913.5 c 128,-1,8
 169 980 169 980 169 1053 c 0,9,10
 169 1143 169 1143 199.5 1211.5 c 128,-1,11
 230 1280 230 1280 281 1327.5 c 128,-1,12
 332 1375 332 1375 399 1400 c 128,-1,13
 466 1425 466 1425 539 1427 c 0,14,15
 627 1430 627 1430 691 1401.5 c 128,-1,16
 755 1373 755 1373 796 1323 c 128,-1,17
 837 1273 837 1273 856.5 1205.5 c 128,-1,18
 876 1138 876 1138 876 1062 c 0,19,20
 876 973 876 973 845.5 904.5 c 128,-1,21
 815 836 815 836 764 789.5 c 128,-1,22
 713 743 713 743 646.5 718.5 c 128,-1,23
 580 694 580 694 507 692 c 0,4,5
532 818 m 0,24,25
 596 818 596 818 631.5 881.5 c 128,-1,26
 667 945 667 945 667 1055 c 0,27,28
 667 1110 667 1110 656 1155.5 c 128,-1,29
 645 1201 645 1201 626.5 1233.5 c 128,-1,30
 608 1266 608 1266 582.5 1283.5 c 128,-1,31
 557 1301 557 1301 528 1301 c 0,32,33
 462 1301 462 1301 423.5 1237 c 128,-1,34
 385 1173 385 1173 385 1061 c 0,35,36
 385 1010 385 1010 397 966 c 128,-1,37
 409 922 409 922 429 889 c 128,-1,38
 449 856 449 856 476 837 c 128,-1,39
 503 818 503 818 532 818 c 0,24,25
1257 525 m 0,40,41
 1257 615 1257 615 1287.5 683.5 c 128,-1,42
 1318 752 1318 752 1369 799.5 c 128,-1,43
 1420 847 1420 847 1486.5 872 c 128,-1,44
 1553 897 1553 897 1626 899 c 0,45,46
 1714 902 1714 902 1778 873.5 c 128,-1,47
 1842 845 1842 845 1883.5 795 c 128,-1,48
 1925 745 1925 745 1944.5 677.5 c 128,-1,49
 1964 610 1964 610 1964 534 c 0,50,51
 1964 445 1964 445 1933.5 376.5 c 128,-1,52
 1903 308 1903 308 1852 261.5 c 128,-1,53
 1801 215 1801 215 1734 190.5 c 128,-1,54
 1667 166 1667 166 1595 164 c 0,55,56
 1517 162 1517 162 1454 191 c 128,-1,57
 1391 220 1391 220 1347.5 269.5 c 128,-1,58
 1304 319 1304 319 1280.5 385.5 c 128,-1,59
 1257 452 1257 452 1257 525 c 0,40,41
1473 533 m 0,60,61
 1473 482 1473 482 1485 438 c 128,-1,62
 1497 394 1497 394 1517 361 c 128,-1,63
 1537 328 1537 328 1563.5 309 c 128,-1,64
 1590 290 1590 290 1619 290 c 0,65,66
 1684 290 1684 290 1719 353.5 c 128,-1,67
 1754 417 1754 417 1754 527 c 0,68,69
 1754 582 1754 582 1743 627.5 c 128,-1,70
 1732 673 1732 673 1713.5 705.5 c 128,-1,71
 1695 738 1695 738 1669.5 755.5 c 128,-1,72
 1644 773 1644 773 1615 773 c 0,73,74
 1583 773 1583 773 1556.5 756.5 c 128,-1,75
 1530 740 1530 740 1511.5 708.5 c 128,-1,76
 1493 677 1493 677 1483 632.5 c 128,-1,77
 1473 588 1473 588 1473 533 c 0,60,61
EndSplineSet
EndChar

StartChar: plus
Encoding: 43 43 34
Width: 1329
Flags: W
LayerCount: 2
Fore
SplineSet
542 583 m 1,0,-1
 546 724 l 1,1,-1
 411 717 l 1,2,-1
 166 717 l 1,3,-1
 166 962 l 1,4,-1
 411 962 l 1,5,-1
 545 953 l 1,6,-1
 542 1091 l 1,7,-1
 542 1326 l 1,8,-1
 785 1326 l 1,9,-1
 785 1099 l 1,10,-1
 781 953 l 1,11,-1
 910 962 l 1,12,-1
 1163 962 l 1,13,-1
 1163 717 l 1,14,-1
 910 717 l 1,15,-1
 781 722 l 1,16,-1
 785 583 l 1,17,-1
 785 341 l 1,18,-1
 542 341 l 1,19,-1
 542 583 l 1,0,-1
EndSplineSet
EndChar

StartChar: equal
Encoding: 61 61 35
Width: 1226
Flags: W
LayerCount: 2
Fore
SplineSet
166 1154 m 1,0,-1
 1060 1154 l 1,1,-1
 1060 934 l 1,2,-1
 166 934 l 1,3,-1
 166 1154 l 1,0,-1
166 672 m 1,4,-1
 1060 672 l 1,5,-1
 1060 452 l 1,6,-1
 166 452 l 1,7,-1
 166 672 l 1,4,-1
EndSplineSet
EndChar

StartChar: less
Encoding: 60 60 36
Width: 1502
Flags: W
LayerCount: 2
Fore
SplineSet
206 829 m 1,0,-1
 1175 1328 l 1,1,-1
 1175 1082 l 1,2,-1
 492 761 l 1,3,-1
 1175 458 l 1,4,-1
 1175 205 l 1,5,-1
 206 695 l 1,6,-1
 206 829 l 1,0,-1
EndSplineSet
EndChar

StartChar: greater
Encoding: 62 62 37
Width: 1502
Flags: W
LayerCount: 2
Fore
SplineSet
327 442 m 1,0,-1
 1009 764 l 1,1,-1
 327 1066 l 1,2,-1
 327 1319 l 1,3,-1
 1296 829 l 1,4,-1
 1296 695 l 1,5,-1
 327 196 l 1,6,-1
 327 442 l 1,0,-1
EndSplineSet
EndChar

StartChar: numbersign
Encoding: 35 35 38
Width: 1461
Flags: W
LayerCount: 2
Fore
SplineSet
349 354 m 1,0,-1
 131 354 l 1,1,-1
 131 534 l 1,2,-1
 362 534 l 1,3,-1
 390 858 l 1,4,-1
 153 858 l 1,5,-1
 153 1036 l 1,6,-1
 401 1036 l 1,7,-1
 435 1355 l 1,8,-1
 646 1355 l 1,9,-1
 620 1036 l 1,10,-1
 893 1036 l 1,11,-1
 920 1355 l 1,12,-1
 1141 1355 l 1,13,-1
 1115 1036 l 1,14,-1
 1337 1036 l 1,15,-1
 1337 858 l 1,16,-1
 1098 858 l 1,17,-1
 1071 534 l 1,18,-1
 1301 534 l 1,19,20
 1301 489 1301 489 1301.5 444 c 128,-1,21
 1302 399 1302 399 1302 354 c 1,22,-1
 1057 354 l 1,23,-1
 1027 0 l 1,24,-1
 812 0 l 1,25,-1
 838 354 l 1,26,-1
 569 354 l 1,27,-1
 536 0 l 1,28,-1
 320 0 l 1,29,-1
 349 354 l 1,0,-1
851 534 m 1,30,-1
 877 858 l 1,31,-1
 610 858 l 1,32,-1
 582 534 l 1,33,-1
 851 534 l 1,30,-1
EndSplineSet
EndChar

StartChar: ampersand
Encoding: 38 38 39
Width: 1636
Flags: W
LayerCount: 2
Fore
SplineSet
126 361 m 0,0,1
 126 429 126 429 150.5 488 c 128,-1,2
 175 547 175 547 218.5 596.5 c 128,-1,3
 262 646 262 646 321.5 687.5 c 128,-1,4
 381 729 381 729 450 763 c 1,5,6
 418 806 418 806 387 851.5 c 128,-1,7
 356 897 356 897 331.5 945.5 c 128,-1,8
 307 994 307 994 292.5 1046 c 128,-1,9
 278 1098 278 1098 279 1156 c 0,10,11
 280 1253 280 1253 318 1327 c 128,-1,12
 356 1401 356 1401 417 1451 c 128,-1,13
 478 1501 478 1501 556 1526.5 c 128,-1,14
 634 1552 634 1552 715 1552 c 0,15,16
 816 1552 816 1552 893.5 1528.5 c 128,-1,17
 971 1505 971 1505 1024 1462 c 128,-1,18
 1077 1419 1077 1419 1104.5 1357 c 128,-1,19
 1132 1295 1132 1295 1132 1219 c 0,20,21
 1132 1142 1132 1142 1102.5 1075 c 128,-1,22
 1073 1008 1073 1008 1024 950.5 c 128,-1,23
 975 893 975 893 910 846 c 128,-1,24
 845 799 845 799 775 762 c 1,25,26
 814 714 814 714 863.5 656.5 c 128,-1,27
 913 599 913 599 964.5 541.5 c 128,-1,28
 1016 484 1016 484 1064 432.5 c 128,-1,29
 1112 381 1112 381 1147 346 c 1,30,31
 1155 386 1155 386 1156.5 427 c 128,-1,32
 1158 468 1158 468 1158 504 c 0,33,34
 1158 554 1158 554 1150 594 c 128,-1,35
 1142 634 1142 634 1131.5 663.5 c 128,-1,36
 1121 693 1121 693 1110 712 c 128,-1,37
 1099 731 1099 731 1093 738 c 1,38,-1
 1366 738 l 1,39,40
 1371 726 1371 726 1379 709 c 128,-1,41
 1387 692 1387 692 1394.5 668.5 c 128,-1,42
 1402 645 1402 645 1407 614.5 c 128,-1,43
 1412 584 1412 584 1411 546 c 0,44,45
 1409 490 1409 490 1400.5 444 c 128,-1,46
 1392 398 1392 398 1377 359.5 c 128,-1,47
 1362 321 1362 321 1339.5 287.5 c 128,-1,48
 1317 254 1317 254 1289 223 c 1,49,50
 1360 172 1360 172 1418.5 151 c 128,-1,51
 1477 130 1477 130 1528 130 c 1,52,-1
 1528 13 l 1,53,54
 1510 2 1510 2 1484.5 -4 c 128,-1,55
 1459 -10 1459 -10 1429.5 -12.5 c 128,-1,56
 1400 -15 1400 -15 1368 -14 c 128,-1,57
 1336 -13 1336 -13 1305 -9 c 0,58,59
 1254 -2 1254 -2 1206.5 14 c 128,-1,60
 1159 30 1159 30 1100 65 c 1,61,62
 1029 21 1029 21 938 -4.5 c 128,-1,63
 847 -30 847 -30 741 -30 c 0,64,65
 617 -30 617 -30 505.5 -8.5 c 128,-1,66
 394 13 394 13 309.5 60 c 128,-1,67
 225 107 225 107 175.5 181 c 128,-1,68
 126 255 126 255 126 361 c 0,0,1
692 869 m 1,69,70
 741 896 741 896 777.5 928.5 c 128,-1,71
 814 961 814 961 837.5 1003 c 128,-1,72
 861 1045 861 1045 872.5 1097.5 c 128,-1,73
 884 1150 884 1150 884 1216 c 0,74,75
 884 1251 884 1251 874 1289 c 128,-1,76
 864 1327 864 1327 842.5 1358.5 c 128,-1,77
 821 1390 821 1390 786 1410.5 c 128,-1,78
 751 1431 751 1431 702 1431 c 0,79,80
 676 1431 676 1431 648 1422.5 c 128,-1,81
 620 1414 620 1414 596 1393.5 c 128,-1,82
 572 1373 572 1373 555 1338 c 128,-1,83
 538 1303 538 1303 535 1251 c 1,84,85
 529 1183 529 1183 544.5 1125 c 128,-1,86
 560 1067 560 1067 585 1019.5 c 128,-1,87
 610 972 610 972 639.5 934.5 c 128,-1,88
 669 897 669 897 692 869 c 1,69,70
402 404 m 0,89,90
 402 325 402 325 435.5 270 c 128,-1,91
 469 215 469 215 521.5 180.5 c 128,-1,92
 574 146 574 146 638 130.5 c 128,-1,93
 702 115 702 115 763 115 c 0,94,95
 829 115 829 115 883.5 123 c 128,-1,96
 938 131 938 131 981 149 c 1,97,98
 933 190 933 190 875.5 249 c 128,-1,99
 818 308 818 308 759 375 c 128,-1,100
 700 442 700 442 643.5 510.5 c 128,-1,101
 587 579 587 579 541 639 c 1,102,103
 511 617 511 617 485.5 592 c 128,-1,104
 460 567 460 567 441.5 538 c 128,-1,105
 423 509 423 509 412.5 476 c 128,-1,106
 402 443 402 443 402 404 c 0,89,90
EndSplineSet
EndChar

StartChar: asterisk
Encoding: 42 42 40
Width: 1290
Flags: W
LayerCount: 2
Fore
SplineSet
542 1114 m 1,0,-1
 583 1220 l 1,1,-1
 512 1134 l 1,2,-1
 237 902 l 1,3,-1
 107 1079 l 1,4,-1
 450 1259 l 1,5,-1
 551 1281 l 1,6,-1
 452 1301 l 1,7,-1
 105 1456 l 1,8,-1
 233 1647 l 1,9,-1
 510 1426 l 1,10,-1
 583 1346 l 1,11,-1
 542 1459 l 1,12,-1
 506 1795 l 1,13,14
 566 1795 566 1795 625 1794.5 c 128,-1,15
 684 1794 684 1794 744 1794 c 1,16,-1
 712 1459 l 1,17,-1
 664 1346 l 1,18,-1
 746 1437 l 1,19,-1
 1013 1645 l 1,20,-1
 1161 1455 l 1,21,-1
 799 1305 l 1,22,-1
 695 1281 l 1,23,-1
 800 1256 l 1,24,-1
 1157 1077 l 1,25,-1
 1009 905 l 1,26,-1
 740 1135 l 1,27,-1
 665 1220 l 1,28,-1
 707 1114 l 1,29,-1
 744 762 l 1,30,-1
 506 762 l 1,31,-1
 542 1114 l 1,0,-1
EndSplineSet
EndChar

StartChar: at
Encoding: 64 64 41
Width: 2168
Flags: W
LayerCount: 2
Fore
SplineSet
168 396 m 0,0,1
 168 557 168 557 207.5 697.5 c 128,-1,2
 247 838 247 838 318 954 c 128,-1,3
 389 1070 389 1070 487 1160.5 c 128,-1,4
 585 1251 585 1251 702 1313 c 128,-1,5
 819 1375 819 1375 950.5 1407.5 c 128,-1,6
 1082 1440 1082 1440 1220 1440 c 0,7,8
 1380 1440 1380 1440 1518.5 1393 c 128,-1,9
 1657 1346 1657 1346 1759.5 1261.5 c 128,-1,10
 1862 1177 1862 1177 1921 1059.5 c 128,-1,11
 1980 942 1980 942 1980 802 c 0,12,13
 1980 679 1980 679 1954.5 575 c 128,-1,14
 1929 471 1929 471 1885 386 c 128,-1,15
 1841 301 1841 301 1783 236 c 128,-1,16
 1725 171 1725 171 1659 127 c 128,-1,17
 1593 83 1593 83 1524 60.5 c 128,-1,18
 1455 38 1455 38 1389 38 c 0,19,20
 1350 38 1350 38 1321.5 46.5 c 128,-1,21
 1293 55 1293 55 1274.5 75 c 128,-1,22
 1256 95 1256 95 1246.5 129 c 128,-1,23
 1237 163 1237 163 1237 214 c 1,24,25
 1235 245 1235 245 1235 290 c 128,-1,26
 1235 335 1235 335 1242 396 c 1,27,28
 1226 357 1226 357 1205.5 314 c 128,-1,29
 1185 271 1185 271 1160 230 c 128,-1,30
 1135 189 1135 189 1104 151 c 128,-1,31
 1073 113 1073 113 1037 85 c 128,-1,32
 1001 57 1001 57 959 40 c 128,-1,33
 917 23 917 23 869 23 c 0,34,35
 820 23 820 23 770.5 49.5 c 128,-1,36
 721 76 721 76 682 127.5 c 128,-1,37
 643 179 643 179 619 255 c 128,-1,38
 595 331 595 331 597 430 c 0,39,40
 598 504 598 504 613.5 579.5 c 128,-1,41
 629 655 629 655 657.5 724.5 c 128,-1,42
 686 794 686 794 727.5 855 c 128,-1,43
 769 916 769 916 822 960.5 c 128,-1,44
 875 1005 875 1005 939 1031 c 128,-1,45
 1003 1057 1003 1057 1077 1057 c 0,46,47
 1104 1057 1104 1057 1135 1055.5 c 128,-1,48
 1166 1054 1166 1054 1198 1049 c 128,-1,49
 1230 1044 1230 1044 1261.5 1035.5 c 128,-1,50
 1293 1027 1293 1027 1321 1013 c 1,51,52
 1326 1026 1326 1026 1333 1037 c 128,-1,53
 1340 1048 1340 1048 1352 1050 c 1,54,55
 1371 1051 1371 1051 1397 1045 c 2,56,-1
 1535 1009 l 1,57,58
 1521 954 1521 954 1509 886.5 c 128,-1,59
 1497 819 1497 819 1487 746 c 128,-1,60
 1477 673 1477 673 1468 598 c 128,-1,61
 1459 523 1459 523 1452 452 c 0,62,63
 1446 399 1446 399 1446.5 354 c 128,-1,64
 1447 309 1447 309 1452.5 276.5 c 128,-1,65
 1458 244 1458 244 1467 225.5 c 128,-1,66
 1476 207 1476 207 1488 207 c 0,67,68
 1510 207 1510 207 1539.5 224.5 c 128,-1,69
 1569 242 1569 242 1599 274.5 c 128,-1,70
 1629 307 1629 307 1658.5 352 c 128,-1,71
 1688 397 1688 397 1711 451.5 c 128,-1,72
 1734 506 1734 506 1748 569.5 c 128,-1,73
 1762 633 1762 633 1762 701 c 0,74,75
 1762 822 1762 822 1736 912 c 128,-1,76
 1710 1002 1710 1002 1665.5 1066 c 128,-1,77
 1621 1130 1621 1130 1560.5 1171 c 128,-1,78
 1500 1212 1500 1212 1430.5 1236 c 128,-1,79
 1361 1260 1361 1260 1286 1269 c 128,-1,80
 1211 1278 1211 1278 1138 1278 c 0,81,82
 1050 1278 1050 1278 960.5 1253 c 128,-1,83
 871 1228 871 1228 787.5 1180 c 128,-1,84
 704 1132 704 1132 631.5 1063 c 128,-1,85
 559 994 559 994 504.5 906 c 128,-1,86
 450 818 450 818 419 712.5 c 128,-1,87
 388 607 388 607 388 487 c 0,88,89
 388 353 388 353 417.5 247 c 128,-1,90
 447 141 447 141 499.5 61.5 c 128,-1,91
 552 -18 552 -18 624 -73 c 128,-1,92
 696 -128 696 -128 781.5 -161 c 128,-1,93
 867 -194 867 -194 962 -206.5 c 128,-1,94
 1057 -219 1057 -219 1156 -213 c 0,95,96
 1205 -210 1205 -210 1253 -204.5 c 128,-1,97
 1301 -199 1301 -199 1343.5 -191 c 128,-1,98
 1386 -183 1386 -183 1420.5 -172 c 128,-1,99
 1455 -161 1455 -161 1478 -147 c 1,100,-1
 1522 -271 l 1,101,102
 1487 -297 1487 -297 1442.5 -318.5 c 128,-1,103
 1398 -340 1398 -340 1339.5 -355 c 128,-1,104
 1281 -370 1281 -370 1205.5 -378.5 c 128,-1,105
 1130 -387 1130 -387 1033 -387 c 0,106,107
 852 -387 852 -387 694 -332.5 c 128,-1,108
 536 -278 536 -278 419 -176.5 c 128,-1,109
 302 -75 302 -75 235 70 c 128,-1,110
 168 215 168 215 168 396 c 0,0,1
927 227 m 0,111,112
 950 227 950 227 983.5 259.5 c 128,-1,113
 1017 292 1017 292 1053 343.5 c 128,-1,114
 1089 395 1089 395 1124.5 460 c 128,-1,115
 1160 525 1160 525 1187.5 590.5 c 128,-1,116
 1215 656 1215 656 1231.5 715.5 c 128,-1,117
 1248 775 1248 775 1246 816 c 1,118,119
 1233 828 1233 828 1213.5 837.5 c 128,-1,120
 1194 847 1194 847 1172 853.5 c 128,-1,121
 1150 860 1150 860 1127.5 863.5 c 128,-1,122
 1105 867 1105 867 1087 867 c 0,123,124
 1024 867 1024 867 976.5 845 c 128,-1,125
 929 823 929 823 896 781 c 128,-1,126
 863 739 863 739 845.5 678.5 c 128,-1,127
 828 618 828 618 826 542 c 0,128,129
 824 498 824 498 826.5 443.5 c 128,-1,130
 829 389 829 389 839.5 341 c 128,-1,131
 850 293 850 293 871 260 c 128,-1,132
 892 227 892 227 927 227 c 0,111,112
EndSplineSet
EndChar

StartChar: period
Encoding: 46 46 42
Width: 747
Flags: W
LayerCount: 2
Fore
SplineSet
193 133 m 0,0,1
 193 174 193 174 211 209.5 c 128,-1,2
 229 245 229 245 258 271 c 128,-1,3
 287 297 287 297 322.5 311.5 c 128,-1,4
 358 326 358 326 393 326 c 0,5,6
 437 326 437 326 469.5 313 c 128,-1,7
 502 300 502 300 523.5 277.5 c 128,-1,8
 545 255 545 255 555.5 225 c 128,-1,9
 566 195 566 195 566 161 c 0,10,11
 566 118 566 118 548 83.5 c 128,-1,12
 530 49 530 49 501.5 24.5 c 128,-1,13
 473 0 473 0 436.5 -13 c 128,-1,14
 400 -26 400 -26 363 -26 c 0,15,16
 331 -26 331 -26 300.5 -15.5 c 128,-1,17
 270 -5 270 -5 246 15.5 c 128,-1,18
 222 36 222 36 207.5 65.5 c 128,-1,19
 193 95 193 95 193 133 c 0,0,1
EndSplineSet
EndChar

StartChar: bullet
Encoding: 8226 8226 43
Width: 876
Flags: W
LayerCount: 2
Fore
SplineSet
421 462 m 0,0,1
 364 462 364 462 313 485 c 128,-1,2
 262 508 262 508 225 547 c 128,-1,3
 188 586 188 586 167.5 637.5 c 128,-1,4
 147 689 147 689 152 746 c 1,5,6
 156 805 156 805 182 856.5 c 128,-1,7
 208 908 208 908 248.5 945.5 c 128,-1,8
 289 983 289 983 341 1004.5 c 128,-1,9
 393 1026 393 1026 450 1026 c 256,10,11
 507 1026 507 1026 557.5 1004.5 c 128,-1,12
 608 983 608 983 645 945.5 c 128,-1,13
 682 908 682 908 702 856.5 c 128,-1,14
 722 805 722 805 718 746 c 256,15,16
 714 687 714 687 688.5 635 c 128,-1,17
 663 583 663 583 623 544.5 c 128,-1,18
 583 506 583 506 531 484 c 128,-1,19
 479 462 479 462 421 462 c 0,0,1
EndSplineSet
EndChar

StartChar: comma
Encoding: 44 44 44
Width: 766
Flags: W
LayerCount: 2
Fore
SplineSet
159 121 m 1,0,-1
 344 353 l 1,1,2
 413 331 413 331 460.5 285.5 c 128,-1,3
 508 240 508 240 537 185 c 128,-1,4
 566 130 566 130 578.5 72 c 128,-1,5
 591 14 591 14 590 -32 c 0,6,7
 589 -101 589 -101 572 -161 c 128,-1,8
 555 -221 555 -221 526 -273 c 128,-1,9
 497 -325 497 -325 459.5 -368.5 c 128,-1,10
 422 -412 422 -412 379.5 -447 c 128,-1,11
 337 -482 337 -482 293 -507.5 c 128,-1,12
 249 -533 249 -533 207 -549 c 1,13,-1
 124 -474 l 1,14,-1
 124 -434 l 1,15,16
 155 -422 155 -422 188.5 -392.5 c 128,-1,17
 222 -363 222 -363 250.5 -323 c 128,-1,18
 279 -283 279 -283 297.5 -235.5 c 128,-1,19
 316 -188 316 -188 316 -140 c 0,20,21
 316 -104 316 -104 302.5 -70 c 128,-1,22
 289 -36 289 -36 267.5 -8.5 c 128,-1,23
 246 19 246 19 217.5 37 c 128,-1,24
 189 55 189 55 159 58 c 1,25,-1
 159 121 l 1,0,-1
EndSplineSet
EndChar

StartChar: colon
Encoding: 58 58 45
Width: 748
Flags: W
LayerCount: 2
Fore
SplineSet
363 315 m 0,0,1
 331 315 331 315 300.5 325.5 c 128,-1,2
 270 336 270 336 246 356.5 c 128,-1,3
 222 377 222 377 207.5 406.5 c 128,-1,4
 193 436 193 436 193 474 c 0,5,6
 193 493 193 493 198 513 c 1,7,8
 196 523 196 523 194.5 532.5 c 128,-1,9
 193 542 193 542 193 553 c 0,10,11
 193 594 193 594 211 629.5 c 128,-1,12
 229 665 229 665 258 691 c 128,-1,13
 287 717 287 717 322.5 731.5 c 128,-1,14
 358 746 358 746 393 746 c 0,15,16
 437 746 437 746 469.5 733 c 128,-1,17
 502 720 502 720 523.5 697.5 c 128,-1,18
 545 675 545 675 555.5 645 c 128,-1,19
 566 615 566 615 566 581 c 0,20,21
 566 570 566 570 565 561 c 128,-1,22
 564 552 564 552 562 543 c 1,23,24
 564 533 564 533 565 523 c 128,-1,25
 566 513 566 513 566 502 c 0,26,27
 566 459 566 459 548 424.5 c 128,-1,28
 530 390 530 390 501.5 365.5 c 128,-1,29
 473 341 473 341 436.5 328 c 128,-1,30
 400 315 400 315 363 315 c 0,0,1
EndSplineSet
EndChar

StartChar: semicolon
Encoding: 59 59 46
Width: 800
Flags: W
LayerCount: 2
Fore
SplineSet
363 739 m 0,0,1
 331 739 331 739 300.5 749.5 c 128,-1,2
 270 760 270 760 246 780.5 c 128,-1,3
 222 801 222 801 207.5 830.5 c 128,-1,4
 193 860 193 860 193 898 c 0,5,6
 193 939 193 939 211 974.5 c 128,-1,7
 229 1010 229 1010 258 1036 c 128,-1,8
 287 1062 287 1062 322.5 1076.5 c 128,-1,9
 358 1091 358 1091 393 1091 c 0,10,11
 437 1091 437 1091 469.5 1078 c 128,-1,12
 502 1065 502 1065 523.5 1042.5 c 128,-1,13
 545 1020 545 1020 555.5 990 c 128,-1,14
 566 960 566 960 566 926 c 0,15,16
 566 883 566 883 548 848.5 c 128,-1,17
 530 814 530 814 501.5 789.5 c 128,-1,18
 473 765 473 765 436.5 752 c 128,-1,19
 400 739 400 739 363 739 c 0,0,1
193 121 m 1,20,-1
 378 353 l 1,21,22
 447 331 447 331 494.5 285.5 c 128,-1,23
 542 240 542 240 571 185 c 128,-1,24
 600 130 600 130 612.5 72 c 128,-1,25
 625 14 625 14 624 -32 c 0,26,27
 623 -101 623 -101 606 -161 c 128,-1,28
 589 -221 589 -221 560 -273 c 128,-1,29
 531 -325 531 -325 493.5 -368.5 c 128,-1,30
 456 -412 456 -412 413.5 -447 c 128,-1,31
 371 -482 371 -482 327 -507.5 c 128,-1,32
 283 -533 283 -533 241 -549 c 1,33,-1
 158 -474 l 1,34,-1
 158 -434 l 1,35,36
 189 -422 189 -422 222.5 -392.5 c 128,-1,37
 256 -363 256 -363 284.5 -323 c 128,-1,38
 313 -283 313 -283 331.5 -235.5 c 128,-1,39
 350 -188 350 -188 350 -140 c 0,40,41
 350 -104 350 -104 336.5 -70 c 128,-1,42
 323 -36 323 -36 301.5 -8.5 c 128,-1,43
 280 19 280 19 251.5 37 c 128,-1,44
 223 55 223 55 193 58 c 1,45,-1
 193 121 l 1,20,-1
EndSplineSet
EndChar

StartChar: question
Encoding: 63 63 47
Width: 1072
Flags: W
LayerCount: 2
Fore
SplineSet
448 520 m 1,0,1
 412 552 412 552 380.5 594 c 128,-1,2
 349 636 349 636 326 680 c 128,-1,3
 303 724 303 724 289 766.5 c 128,-1,4
 275 809 275 809 274 843 c 0,5,6
 273 879 273 879 294.5 908 c 128,-1,7
 316 937 316 937 351 961.5 c 128,-1,8
 386 986 386 986 431.5 1006.5 c 128,-1,9
 477 1027 477 1027 525.5 1044.5 c 128,-1,10
 574 1062 574 1062 621 1077.5 c 128,-1,11
 668 1093 668 1093 706 1108.5 c 128,-1,12
 744 1124 744 1124 770 1140 c 128,-1,13
 796 1156 796 1156 801 1174 c 1,14,15
 800 1246 800 1246 778.5 1306 c 128,-1,16
 757 1366 757 1366 721 1414.5 c 128,-1,17
 685 1463 685 1463 638 1499 c 128,-1,18
 591 1535 591 1535 540.5 1559 c 128,-1,19
 490 1583 490 1583 439 1595 c 128,-1,20
 388 1607 388 1607 343 1608 c 0,21,22
 273 1610 273 1610 220.5 1603.5 c 128,-1,23
 168 1597 168 1597 142 1580 c 1,24,-1
 133 1801 l 1,25,26
 140 1811 140 1811 163.5 1820.5 c 128,-1,27
 187 1830 187 1830 218.5 1836.5 c 128,-1,28
 250 1843 250 1843 286.5 1847 c 128,-1,29
 323 1851 323 1851 357 1850 c 0,30,31
 467 1847 467 1847 554 1823.5 c 128,-1,32
 641 1800 641 1800 708 1761 c 128,-1,33
 775 1722 775 1722 823 1671.5 c 128,-1,34
 871 1621 871 1621 902.5 1564.5 c 128,-1,35
 934 1508 934 1508 951.5 1448.5 c 128,-1,36
 969 1389 969 1389 975 1331.5 c 128,-1,37
 981 1274 981 1274 976 1222.5 c 128,-1,38
 971 1171 971 1171 959 1131 c 1,39,40
 954 1107 954 1107 926 1084.5 c 128,-1,41
 898 1062 898 1062 857.5 1041 c 128,-1,42
 817 1020 817 1020 769 998.5 c 128,-1,43
 721 977 721 977 676.5 955 c 128,-1,44
 632 933 632 933 596.5 908.5 c 128,-1,45
 561 884 561 884 545 857 c 1,46,47
 533 828 533 828 540.5 783.5 c 128,-1,48
 548 739 548 739 564.5 690.5 c 128,-1,49
 581 642 581 642 601.5 596.5 c 128,-1,50
 622 551 622 551 636 520 c 1,51,-1
 448 520 l 1,0,1
409 133 m 0,52,53
 409 174 409 174 427 209.5 c 128,-1,54
 445 245 445 245 474 271 c 128,-1,55
 503 297 503 297 538.5 311.5 c 128,-1,56
 574 326 574 326 609 326 c 0,57,58
 653 326 653 326 685.5 313 c 128,-1,59
 718 300 718 300 739.5 277.5 c 128,-1,60
 761 255 761 255 771.5 225 c 128,-1,61
 782 195 782 195 782 161 c 0,62,63
 782 118 782 118 764.5 83.5 c 128,-1,64
 747 49 747 49 718 24.5 c 128,-1,65
 689 0 689 0 652.5 -13 c 128,-1,66
 616 -26 616 -26 579 -26 c 0,67,68
 547 -26 547 -26 516.5 -15.5 c 128,-1,69
 486 -5 486 -5 462 15.5 c 128,-1,70
 438 36 438 36 423.5 65.5 c 128,-1,71
 409 95 409 95 409 133 c 0,52,53
EndSplineSet
EndChar

StartChar: questiondown
Encoding: 191 191 48
Width: 1046
Flags: W
LayerCount: 2
Fore
SplineSet
437 1098 m 0,0,1
 405 1098 405 1098 374 1108.5 c 128,-1,2
 343 1119 343 1119 319 1139.5 c 128,-1,3
 295 1160 295 1160 280.5 1189.5 c 128,-1,4
 266 1219 266 1219 266 1257 c 0,5,6
 266 1298 266 1298 284.5 1333.5 c 128,-1,7
 303 1369 303 1369 331.5 1395 c 128,-1,8
 360 1421 360 1421 395.5 1435.5 c 128,-1,9
 431 1450 431 1450 466 1450 c 0,10,11
 511 1450 511 1450 543.5 1437 c 128,-1,12
 576 1424 576 1424 597 1401.5 c 128,-1,13
 618 1379 618 1379 628.5 1349.5 c 128,-1,14
 639 1320 639 1320 639 1286 c 0,15,16
 639 1242 639 1242 621.5 1207.5 c 128,-1,17
 604 1173 604 1173 575.5 1148.5 c 128,-1,18
 547 1124 547 1124 510.5 1111 c 128,-1,19
 474 1098 474 1098 437 1098 c 0,0,1
56 254 m 1,20,21
 59 277 59 277 67.5 297 c 128,-1,22
 76 317 76 317 89 334 c 0,23,24
 104 352 104 352 137.5 370.5 c 128,-1,25
 171 389 171 389 213 408 c 128,-1,26
 255 427 255 427 300.5 447 c 128,-1,27
 346 467 346 467 385.5 488.5 c 128,-1,28
 425 510 425 510 453.5 533.5 c 128,-1,29
 482 557 482 557 491 582 c 1,30,31
 500 613 500 613 496 653.5 c 128,-1,32
 492 694 492 694 479.5 737.5 c 128,-1,33
 467 781 467 781 449 824.5 c 128,-1,34
 431 868 431 868 412 907 c 1,35,-1
 606 907 l 1,36,37
 629 890 629 890 659 856.5 c 128,-1,38
 689 823 689 823 717 781 c 128,-1,39
 745 739 745 739 767 693.5 c 128,-1,40
 789 648 789 648 795 607 c 0,41,42
 800 568 800 568 780 535 c 128,-1,43
 760 502 760 502 724.5 474.5 c 128,-1,44
 689 447 689 447 641 423.5 c 128,-1,45
 593 400 593 400 542 380 c 128,-1,46
 491 360 491 360 441.5 343 c 128,-1,47
 392 326 392 326 352.5 311.5 c 128,-1,48
 313 297 313 297 288 284 c 128,-1,49
 263 271 263 271 261 258 c 1,50,51
 263 190 263 190 284 132.5 c 128,-1,52
 305 75 305 75 338.5 29.5 c 128,-1,53
 372 -16 372 -16 415.5 -50.5 c 128,-1,54
 459 -85 459 -85 507 -108 c 128,-1,55
 555 -131 555 -131 604 -142.5 c 128,-1,56
 653 -154 653 -154 698 -154 c 0,57,58
 721 -154 721 -154 749 -153.5 c 128,-1,59
 777 -153 777 -153 805.5 -150 c 128,-1,60
 834 -147 834 -147 860.5 -141 c 128,-1,61
 887 -135 887 -135 907 -125 c 1,62,-1
 907 -361 l 1,63,64
 897 -373 897 -373 873.5 -382 c 128,-1,65
 850 -391 850 -391 818.5 -398 c 128,-1,66
 787 -405 787 -405 751.5 -408.5 c 128,-1,67
 716 -412 716 -412 682 -412 c 0,68,69
 546 -412 546 -412 443.5 -380 c 128,-1,70
 341 -348 341 -348 268 -294.5 c 128,-1,71
 195 -241 195 -241 148.5 -172 c 128,-1,72
 102 -103 102 -103 78 -29 c 128,-1,73
 54 45 54 45 49.5 118.5 c 128,-1,74
 45 192 45 192 56 254 c 1,20,21
EndSplineSet
EndChar

StartChar: exclam
Encoding: 33 33 49
Width: 741
Flags: W
LayerCount: 2
Fore
SplineSet
186 1780 m 1,0,-1
 570 1780 l 1,1,-1
 451 535 l 1,2,-1
 296 535 l 1,3,-1
 186 1780 l 1,0,-1
193 133 m 0,4,5
 193 174 193 174 211 209.5 c 128,-1,6
 229 245 229 245 258 271 c 128,-1,7
 287 297 287 297 322.5 311.5 c 128,-1,8
 358 326 358 326 393 326 c 0,9,10
 437 326 437 326 469.5 313 c 128,-1,11
 502 300 502 300 523.5 277.5 c 128,-1,12
 545 255 545 255 555.5 225 c 128,-1,13
 566 195 566 195 566 161 c 0,14,15
 566 118 566 118 548 83.5 c 128,-1,16
 530 49 530 49 501.5 24.5 c 128,-1,17
 473 0 473 0 436.5 -13 c 128,-1,18
 400 -26 400 -26 363 -26 c 0,19,20
 331 -26 331 -26 300.5 -15.5 c 128,-1,21
 270 -5 270 -5 246 15.5 c 128,-1,22
 222 36 222 36 207.5 65.5 c 128,-1,23
 193 95 193 95 193 133 c 0,4,5
EndSplineSet
EndChar

StartChar: exclamdown
Encoding: 161 161 50
Width: 735
Flags: W
LayerCount: 2
Fore
SplineSet
366 1087 m 0,0,1
 334 1087 334 1087 303.5 1097.5 c 128,-1,2
 273 1108 273 1108 249 1128.5 c 128,-1,3
 225 1149 225 1149 210.5 1178.5 c 128,-1,4
 196 1208 196 1208 196 1246 c 0,5,6
 196 1287 196 1287 214 1322.5 c 128,-1,7
 232 1358 232 1358 261 1384 c 128,-1,8
 290 1410 290 1410 325.5 1424.5 c 128,-1,9
 361 1439 361 1439 396 1439 c 0,10,11
 440 1439 440 1439 472.5 1426 c 128,-1,12
 505 1413 505 1413 526.5 1390.5 c 128,-1,13
 548 1368 548 1368 558.5 1338.5 c 128,-1,14
 569 1309 569 1309 569 1275 c 0,15,16
 569 1231 569 1231 551 1196.5 c 128,-1,17
 533 1162 533 1162 504.5 1137.5 c 128,-1,18
 476 1113 476 1113 439.5 1100 c 128,-1,19
 403 1087 403 1087 366 1087 c 0,0,1
293 866 m 1,20,-1
 447 866 l 1,21,-1
 558 -429 l 1,22,-1
 174 -429 l 1,23,-1
 293 866 l 1,20,-1
EndSplineSet
EndChar

StartChar: uni00AD
Encoding: 173 173 51
Width: 926
Flags: W
LayerCount: 2
Fore
SplineSet
97 707 m 1,0,-1
 829 707 l 1,1,-1
 829 499 l 1,2,-1
 97 499 l 1,3,-1
 97 707 l 1,0,-1
EndSplineSet
EndChar

StartChar: endash
Encoding: 8211 8211 52
Width: 1176
Flags: W
LayerCount: 2
Fore
SplineSet
76 705 m 1,0,-1
 1100 705 l 1,1,-1
 1100 496 l 1,2,-1
 76 496 l 1,3,-1
 76 705 l 1,0,-1
EndSplineSet
EndChar

StartChar: emdash
Encoding: 8212 8212 53
Width: 2200
Flags: W
LayerCount: 2
Fore
SplineSet
76 706 m 1,0,-1
 2124 706 l 1,1,-1
 2124 498 l 1,2,-1
 76 498 l 1,3,-1
 76 706 l 1,0,-1
EndSplineSet
EndChar

StartChar: underscore
Encoding: 95 95 54
Width: 1097
Flags: W
LayerCount: 2
Fore
SplineSet
1103 -193 m 1,0,-1
 1103 -390 l 1,1,-1
 -14 -390 l 1,2,-1
 -14 -193 l 1,3,-1
 1103 -193 l 1,0,-1
EndSplineSet
EndChar

StartChar: slash
Encoding: 47 47 55
Width: 749
Flags: W
LayerCount: 2
Fore
SplineSet
466 1599 m 1,0,-1
 741 1599 l 1,1,-1
 249 -363 l 1,2,-1
 -25 -363 l 1,3,-1
 466 1599 l 1,0,-1
EndSplineSet
EndChar

StartChar: backslash
Encoding: 92 92 56
Width: 749
Flags: W
LayerCount: 2
Fore
SplineSet
9 1599 m 1,0,-1
 283 1599 l 1,1,-1
 775 -363 l 1,2,-1
 500 -363 l 1,3,-1
 9 1599 l 1,0,-1
EndSplineSet
EndChar

StartChar: bar
Encoding: 124 124 57
Width: 993
Flags: W
LayerCount: 2
Fore
SplineSet
361 1780 m 1,0,-1
 638 1780 l 1,1,-1
 638 -186 l 1,2,-1
 361 -186 l 1,3,-1
 361 1780 l 1,0,-1
EndSplineSet
EndChar

StartChar: A
Encoding: 65 65 58
Width: 1530
Flags: W
LayerCount: 2
Fore
SplineSet
3 117 m 1,0,-1
 135 153 l 1,1,-1
 624 1511 l 1,2,-1
 893 1511 l 1,3,-1
 1366 153 l 1,4,-1
 1525 115 l 1,5,-1
 1525 0 l 1,6,-1
 899 0 l 1,7,-1
 899 115 l 1,8,-1
 1045 155 l 1,9,-1
 978 378 l 1,10,-1
 435 378 l 1,11,-1
 366 157 l 1,12,-1
 528 117 l 1,13,-1
 528 0 l 1,14,-1
 3 0 l 1,15,-1
 3 117 l 1,0,-1
929 541 m 1,16,-1
 795 990 l 1,17,-1
 712 1260 l 1,18,-1
 486 541 l 1,19,-1
 929 541 l 1,16,-1
EndSplineSet
EndChar

StartChar: B
Encoding: 66 66 59
Width: 1443
Flags: W
LayerCount: 2
Fore
SplineSet
98 117 m 1,0,-1
 259 155 l 1,1,-1
 259 1355 l 1,2,-1
 102 1375 l 1,3,-1
 102 1511 l 1,4,-1
 389 1511 l 1,5,6
 401 1513 401 1513 435 1514.5 c 128,-1,7
 469 1516 469 1516 517 1517.5 c 128,-1,8
 565 1519 565 1519 624 1520.5 c 128,-1,9
 683 1522 683 1522 746 1523 c 0,10,11
 1007 1527 1007 1527 1142 1450.5 c 128,-1,12
 1277 1374 1277 1374 1277 1206 c 0,13,14
 1277 1141 1277 1141 1260.5 1082 c 128,-1,15
 1244 1023 1244 1023 1210 974 c 128,-1,16
 1176 925 1176 925 1124.5 889.5 c 128,-1,17
 1073 854 1073 854 1003 837 c 1,18,19
 1080 836 1080 836 1149 807.5 c 128,-1,20
 1218 779 1218 779 1269.5 728.5 c 128,-1,21
 1321 678 1321 678 1351.5 609.5 c 128,-1,22
 1382 541 1382 541 1382 461 c 0,23,24
 1382 351 1382 351 1340 263.5 c 128,-1,25
 1298 176 1298 176 1212.5 115 c 128,-1,26
 1127 54 1127 54 996 21 c 128,-1,27
 865 -12 865 -12 687 -12 c 0,28,29
 643 -12 643 -12 601.5 -10.5 c 128,-1,30
 560 -9 560 -9 518 -7 c 128,-1,31
 476 -5 476 -5 431.5 -3 c 128,-1,32
 387 -1 387 -1 336 0 c 1,33,-1
 98 0 l 1,34,-1
 98 117 l 1,0,-1
545 881 m 1,35,36
 576 873 576 873 623 873 c 128,-1,37
 670 873 670 873 722 873 c 0,38,39
 807 873 807 873 861.5 899.5 c 128,-1,40
 916 926 916 926 947.5 968.5 c 128,-1,41
 979 1011 979 1011 991 1065 c 128,-1,42
 1003 1119 1003 1119 1003 1175 c 0,43,44
 1003 1290 1003 1290 930 1340.5 c 128,-1,45
 857 1391 857 1391 701 1391 c 0,46,47
 687 1391 687 1391 665.5 1391 c 128,-1,48
 644 1391 644 1391 621.5 1389.5 c 128,-1,49
 599 1388 599 1388 579 1385 c 128,-1,50
 559 1382 559 1382 547 1377 c 1,51,-1
 545 881 l 1,35,36
544 152 m 1,52,53
 557 145 557 145 579.5 139 c 128,-1,54
 602 133 602 133 630.5 129 c 128,-1,55
 659 125 659 125 692 122.5 c 128,-1,56
 725 120 725 120 758 120 c 0,57,58
 840 120 840 120 900 144.5 c 128,-1,59
 960 169 960 169 1000 212 c 128,-1,60
 1040 255 1040 255 1059.5 312.5 c 128,-1,61
 1079 370 1079 370 1079 435 c 0,62,63
 1079 502 1079 502 1062.5 557 c 128,-1,64
 1046 612 1046 612 1009 651.5 c 128,-1,65
 972 691 972 691 913 713 c 128,-1,66
 854 735 854 735 769 735 c 0,67,68
 713 735 713 735 654 734.5 c 128,-1,69
 595 734 595 734 544 726 c 1,70,-1
 544 152 l 1,52,53
EndSplineSet
EndChar

StartChar: C
Encoding: 67 67 60
Width: 1451
Flags: W
LayerCount: 2
Fore
SplineSet
81 724 m 0,0,1
 81 853 81 853 113.5 962.5 c 128,-1,2
 146 1072 146 1072 203.5 1161 c 128,-1,3
 261 1250 261 1250 340 1318 c 128,-1,4
 419 1386 419 1386 513.5 1432 c 128,-1,5
 608 1478 608 1478 713.5 1501.5 c 128,-1,6
 819 1525 819 1525 930 1525 c 0,7,8
 1005 1525 1005 1525 1067.5 1517.5 c 128,-1,9
 1130 1510 1130 1510 1181.5 1499.5 c 128,-1,10
 1233 1489 1233 1489 1275 1477.5 c 128,-1,11
 1317 1466 1317 1466 1351 1459 c 1,12,-1
 1332 1112 l 1,13,-1
 1167 1112 l 1,14,-1
 1103 1301 l 1,15,16
 1084 1319 1084 1319 1062 1332 c 128,-1,17
 1040 1345 1040 1345 1010 1353.5 c 128,-1,18
 980 1362 980 1362 941 1366.5 c 128,-1,19
 902 1371 902 1371 848 1371 c 0,20,21
 755 1371 755 1371 672.5 1337 c 128,-1,22
 590 1303 590 1303 528.5 1233 c 128,-1,23
 467 1163 467 1163 431 1056 c 128,-1,24
 395 949 395 949 395 803 c 0,25,26
 395 713 395 713 408.5 627.5 c 128,-1,27
 422 542 422 542 449 466 c 128,-1,28
 476 390 476 390 516 326.5 c 128,-1,29
 556 263 556 263 608.5 216.5 c 128,-1,30
 661 170 661 170 726 143 c 128,-1,31
 791 116 791 116 869 115 c 1,32,33
 932 113 932 113 976.5 121 c 128,-1,34
 1021 129 1021 129 1052 143 c 128,-1,35
 1083 157 1083 157 1101.5 175 c 128,-1,36
 1120 193 1120 193 1131 212 c 1,37,-1
 1203 393 l 1,38,39
 1241 393 1241 393 1277.5 392.5 c 128,-1,40
 1314 392 1314 392 1352 392 c 1,41,-1
 1352 65 l 1,42,43
 1315 63 1315 63 1271.5 48.5 c 128,-1,44
 1228 34 1228 34 1168 17 c 128,-1,45
 1108 0 1108 0 1027 -14 c 128,-1,46
 946 -28 946 -28 835 -28 c 0,47,48
 659 -28 659 -28 519.5 29 c 128,-1,49
 380 86 380 86 282.5 186.5 c 128,-1,50
 185 287 185 287 133 425 c 128,-1,51
 81 563 81 563 81 724 c 0,0,1
EndSplineSet
EndChar

StartChar: D
Encoding: 68 68 61
Width: 1604
Flags: W
LayerCount: 2
Fore
SplineSet
99 117 m 1,0,-1
 254 154 l 1,1,-1
 254 1355 l 1,2,-1
 103 1375 l 1,3,-1
 103 1511 l 1,4,-1
 403 1511 l 2,5,6
 494 1511 494 1511 583.5 1517 c 128,-1,7
 673 1523 673 1523 767 1523 c 0,8,9
 962 1523 962 1523 1105 1473.5 c 128,-1,10
 1248 1424 1248 1424 1341.5 1332 c 128,-1,11
 1435 1240 1435 1240 1481 1109.5 c 128,-1,12
 1527 979 1527 979 1527 817 c 0,13,14
 1527 620 1527 620 1467.5 466 c 128,-1,15
 1408 312 1408 312 1301.5 206 c 128,-1,16
 1195 100 1195 100 1048.5 44.5 c 128,-1,17
 902 -11 902 -11 729 -10 c 0,18,19
 693 -10 693 -10 652 -8 c 128,-1,20
 611 -6 611 -6 569 -4 c 128,-1,21
 527 -2 527 -2 486 -0.5 c 128,-1,22
 445 1 445 1 408 1 c 0,23,24
 330 1 330 1 253 0.5 c 128,-1,25
 176 0 176 0 99 0 c 1,26,-1
 99 117 l 1,0,-1
542 159 m 1,27,28
 636 117 636 117 793 128 c 1,29,30
 883 133 883 133 961.5 178 c 128,-1,31
 1040 223 1040 223 1098.5 303.5 c 128,-1,32
 1157 384 1157 384 1190.5 497.5 c 128,-1,33
 1224 611 1224 611 1224 754 c 0,34,35
 1224 1065 1224 1065 1098 1225.5 c 128,-1,36
 972 1386 972 1386 728 1385 c 0,37,38
 670 1385 670 1385 627 1379 c 128,-1,39
 584 1373 584 1373 542 1360 c 1,40,-1
 542 159 l 1,27,28
EndSplineSet
EndChar

StartChar: E
Encoding: 69 69 62
Width: 1378
Flags: W
LayerCount: 2
Fore
SplineSet
97 117 m 1,0,-1
 253 153 l 1,1,-1
 253 1354 l 1,2,-1
 101 1375 l 1,3,-1
 101 1511 l 1,4,-1
 1168 1511 l 1,5,-1
 1198 1193 l 1,6,-1
 1042 1193 l 1,7,-1
 977 1354 l 1,8,-1
 540 1374 l 1,9,-1
 540 866 l 1,10,-1
 887 875 l 1,11,-1
 925 1025 l 1,12,-1
 1061 1025 l 1,13,-1
 1061 562 l 1,14,-1
 925 562 l 1,15,-1
 887 718 l 1,16,-1
 540 724 l 1,17,-1
 540 138 l 1,18,-1
 1040 162 l 1,19,-1
 1156 364 l 1,20,-1
 1299 332 l 1,21,-1
 1249 0 l 1,22,-1
 97 0 l 1,23,-1
 97 117 l 1,0,-1
EndSplineSet
EndChar

StartChar: F
Encoding: 70 70 63
Width: 1275
Flags: W
LayerCount: 2
Fore
SplineSet
94 117 m 1,0,-1
 253 148 l 1,1,-1
 253 1356 l 1,2,-1
 94 1375 l 1,3,-1
 94 1511 l 1,4,-1
 1181 1511 l 1,5,-1
 1207 1190 l 1,6,-1
 1058 1188 l 1,7,-1
 991 1341 l 1,8,-1
 540 1364 l 1,9,-1
 540 843 l 1,10,-1
 880 855 l 1,11,-1
 934 1000 l 1,12,-1
 1074 1000 l 1,13,-1
 1074 540 l 1,14,-1
 920 540 l 1,15,-1
 883 692 l 1,16,-1
 540 703 l 1,17,-1
 540 157 l 1,18,-1
 848 132 l 1,19,-1
 848 0 l 1,20,-1
 94 0 l 1,21,-1
 94 117 l 1,0,-1
EndSplineSet
EndChar

StartChar: G
Encoding: 71 71 64
Width: 1563
Flags: W
LayerCount: 2
Fore
SplineSet
83 738 m 0,0,1
 83 931 83 931 146 1078.5 c 128,-1,2
 209 1226 209 1226 319 1325 c 128,-1,3
 429 1424 429 1424 578 1474.5 c 128,-1,4
 727 1525 727 1525 900 1525 c 0,5,6
 997 1525 997 1525 1077 1518.5 c 128,-1,7
 1157 1512 1157 1512 1217.5 1502.5 c 128,-1,8
 1278 1493 1278 1493 1319.5 1483 c 128,-1,9
 1361 1473 1361 1473 1382 1467 c 1,10,-1
 1363 1148 l 1,11,-1
 1197 1148 l 1,12,-1
 1133 1311 l 1,13,14
 1127 1318 1127 1318 1108.5 1329.5 c 128,-1,15
 1090 1341 1090 1341 1056.5 1351.5 c 128,-1,16
 1023 1362 1023 1362 974.5 1369 c 128,-1,17
 926 1376 926 1376 861 1376 c 0,18,19
 758 1375 758 1375 671.5 1338 c 128,-1,20
 585 1301 585 1301 523 1229.5 c 128,-1,21
 461 1158 461 1158 426 1052.5 c 128,-1,22
 391 947 391 947 391 810 c 0,23,24
 391 720 391 720 402.5 632.5 c 128,-1,25
 414 545 414 545 437.5 467 c 128,-1,26
 461 389 461 389 497.5 323 c 128,-1,27
 534 257 534 257 584.5 209.5 c 128,-1,28
 635 162 635 162 700 135 c 128,-1,29
 765 108 765 108 846 108 c 0,30,31
 891 108 891 108 934.5 116 c 128,-1,32
 978 124 978 124 1014.5 139.5 c 128,-1,33
 1051 155 1051 155 1079 177 c 128,-1,34
 1107 199 1107 199 1121 226 c 1,35,-1
 1121 549 l 1,36,-1
 939 571 l 1,37,-1
 939 708 l 1,38,-1
 1515 708 l 1,39,-1
 1515 571 l 1,40,-1
 1395 548 l 1,41,-1
 1395 71 l 1,42,43
 1344 75 1344 75 1276.5 60 c 128,-1,44
 1209 45 1209 45 1131 25.5 c 128,-1,45
 1053 6 1053 6 966 -11 c 128,-1,46
 879 -28 879 -28 789 -28 c 0,47,48
 629 -28 629 -28 498.5 30.5 c 128,-1,49
 368 89 368 89 276 192 c 128,-1,50
 184 295 184 295 133.5 435 c 128,-1,51
 83 575 83 575 83 738 c 0,0,1
EndSplineSet
EndChar

StartChar: H
Encoding: 72 72 65
Width: 1751
Flags: W
LayerCount: 2
Fore
SplineSet
84 117 m 1,0,-1
 253 154 l 1,1,-1
 253 1354 l 1,2,-1
 82 1375 l 1,3,-1
 82 1511 l 1,4,-1
 711 1511 l 1,5,-1
 711 1375 l 1,6,-1
 542 1355 l 1,7,-1
 542 858 l 1,8,-1
 1210 858 l 1,9,-1
 1210 1357 l 1,10,-1
 1043 1375 l 1,11,-1
 1043 1511 l 1,12,-1
 1674 1511 l 1,13,-1
 1674 1375 l 1,14,-1
 1498 1356 l 1,15,-1
 1498 152 l 1,16,-1
 1672 115 l 1,17,-1
 1672 0 l 1,18,-1
 1032 0 l 1,19,-1
 1032 115 l 1,20,-1
 1210 152 l 1,21,-1
 1210 693 l 1,22,-1
 542 693 l 1,23,-1
 542 154 l 1,24,-1
 721 117 l 1,25,-1
 721 0 l 1,26,-1
 84 0 l 1,27,-1
 84 117 l 1,0,-1
EndSplineSet
EndChar

StartChar: I
Encoding: 73 73 66
Width: 831
Flags: W
LayerCount: 2
Fore
SplineSet
85 117 m 1,0,-1
 270 153 l 1,1,-1
 270 1354 l 1,2,-1
 91 1375 l 1,3,-1
 91 1511 l 1,4,-1
 739 1511 l 1,5,-1
 739 1375 l 1,6,-1
 561 1353 l 1,7,-1
 561 154 l 1,8,-1
 749 117 l 1,9,-1
 749 0 l 1,10,-1
 85 0 l 1,11,-1
 85 117 l 1,0,-1
EndSplineSet
EndChar

StartChar: J
Encoding: 74 74 67
Width: 779
Flags: W
LayerCount: 2
Fore
SplineSet
212 -52 m 1,0,1
 227 -8 227 -8 236.5 39.5 c 128,-1,2
 246 87 246 87 251.5 142 c 128,-1,3
 257 197 257 197 258.5 260.5 c 128,-1,4
 260 324 260 324 260 401 c 2,5,-1
 260 1355 l 1,6,-1
 111 1375 l 1,7,-1
 111 1511 l 1,8,-1
 697 1511 l 1,9,-1
 697 1375 l 1,10,-1
 551 1354 l 1,11,-1
 551 538 l 2,12,13
 551 457 551 457 549 378.5 c 128,-1,14
 547 300 547 300 542.5 229.5 c 128,-1,15
 538 159 538 159 529.5 99.5 c 128,-1,16
 521 40 521 40 508 -3 c 1,17,18
 477 -96 477 -96 417 -165.5 c 128,-1,19
 357 -235 357 -235 285 -281.5 c 128,-1,20
 213 -328 213 -328 138 -352.5 c 128,-1,21
 63 -377 63 -377 2 -381 c 1,22,-1
 -66 -293 l 1,23,24
 -22 -276 -22 -276 19.5 -254.5 c 128,-1,25
 61 -233 61 -233 97 -204 c 128,-1,26
 133 -175 133 -175 162.5 -137.5 c 128,-1,27
 192 -100 192 -100 212 -52 c 1,0,1
EndSplineSet
EndChar

StartChar: K
Encoding: 75 75 68
Width: 1481
Flags: W
LayerCount: 2
Fore
SplineSet
63 117 m 1,0,-1
 249 155 l 1,1,-1
 249 1354 l 1,2,-1
 69 1375 l 1,3,-1
 69 1511 l 1,4,-1
 707 1511 l 1,5,-1
 707 1375 l 1,6,-1
 535 1353 l 1,7,-1
 535 768 l 1,8,-1
 1064 1353 l 1,9,-1
 900 1375 l 1,10,11
 899 1410 899 1410 898.5 1443 c 128,-1,12
 898 1476 898 1476 898 1511 c 1,13,-1
 1459 1511 l 1,14,-1
 1459 1375 l 1,15,-1
 1296 1352 l 1,16,-1
 849 892 l 1,17,18
 874 874 874 874 907.5 834 c 128,-1,19
 941 794 941 794 980 740 c 128,-1,20
 1019 686 1019 686 1060.5 622 c 128,-1,21
 1102 558 1102 558 1143 494 c 128,-1,22
 1184 430 1184 430 1222 369 c 128,-1,23
 1260 308 1260 308 1292.5 260 c 128,-1,24
 1325 212 1325 212 1349 181 c 128,-1,25
 1373 150 1373 150 1386 144 c 1,26,-1
 1475 117 l 1,27,-1
 1475 0 l 1,28,-1
 1141 0 l 2,29,30
 1127 0 1127 0 1106 25.5 c 128,-1,31
 1085 51 1085 51 1059.5 93 c 128,-1,32
 1034 135 1034 135 1004.5 190.5 c 128,-1,33
 975 246 975 246 943 307 c 128,-1,34
 911 368 911 368 878 430.5 c 128,-1,35
 845 493 845 493 812 549.5 c 128,-1,36
 779 606 779 606 747.5 651.5 c 128,-1,37
 716 697 716 697 687 725 c 1,38,-1
 535 568 l 1,39,-1
 535 155 l 1,40,-1
 757 117 l 1,41,-1
 757 0 l 1,42,-1
 63 0 l 1,43,-1
 63 117 l 1,0,-1
EndSplineSet
EndChar

StartChar: L
Encoding: 76 76 69
Width: 1268
Flags: W
LayerCount: 2
Fore
SplineSet
99 117 m 1,0,-1
 253 152 l 1,1,-1
 253 1339 l 1,2,-1
 104 1358 l 1,3,-1
 104 1511 l 1,4,-1
 722 1511 l 1,5,-1
 722 1358 l 1,6,-1
 542 1338 l 1,7,-1
 541 140 l 1,8,-1
 964 174 l 1,9,-1
 1130 423 l 1,10,-1
 1254 361 l 1,11,-1
 1175 0 l 1,12,-1
 99 0 l 1,13,-1
 99 117 l 1,0,-1
EndSplineSet
EndChar

StartChar: M
Encoding: 77 77 70
Width: 2013
Flags: W
LayerCount: 2
Fore
SplineSet
62 117 m 1,0,-1
 210 152 l 1,1,-1
 290 1337 l 1,2,-1
 102 1357 l 1,3,-1
 102 1511 l 1,4,-1
 676 1511 l 1,5,-1
 955 691 l 1,6,-1
 1016 470 l 1,7,-1
 1032 404 l 1,8,-1
 1057 484 l 1,9,-1
 1372 1511 l 1,10,-1
 1913 1511 l 1,11,-1
 1913 1357 l 1,12,-1
 1732 1337 l 1,13,-1
 1811 151 l 1,14,-1
 1950 115 l 1,15,-1
 1950 0 l 1,16,-1
 1370 0 l 1,17,-1
 1370 115 l 1,18,-1
 1523 154 l 1,19,-1
 1487 898 l 2,20,21
 1484 961 1484 961 1484 1025 c 2,22,-1
 1482 1326 l 1,23,-1
 1447 1182 l 1,24,-1
 1044 -15 l 1,25,-1
 945 -15 l 1,26,-1
 586 925 l 1,27,-1
 544 1047 l 1,28,29
 521 1117 521 1117 498 1187 c 128,-1,30
 475 1257 475 1257 452 1328 c 1,31,-1
 450 1025 l 1,32,-1
 438 156 l 1,33,-1
 628 117 l 1,34,-1
 628 0 l 1,35,-1
 62 0 l 1,36,-1
 62 117 l 1,0,-1
EndSplineSet
EndChar

StartChar: N
Encoding: 78 78 71
Width: 1682
Flags: W
LayerCount: 2
Fore
SplineSet
85 117 m 1,0,-1
 253 155 l 1,1,-1
 253 1337 l 1,2,-1
 91 1358 l 1,3,-1
 91 1511 l 1,4,-1
 535 1511 l 1,5,-1
 1158 491 l 1,6,-1
 1265 229 l 1,7,-1
 1265 1336 l 1,8,-1
 1086 1360 l 1,9,-1
 1086 1511 l 1,10,-1
 1611 1511 l 1,11,-1
 1611 1360 l 1,12,-1
 1450 1339 l 1,13,-1
 1450 0 l 1,14,-1
 1149 0 l 1,15,16
 1009 232 1009 232 868 460 c 128,-1,17
 727 688 727 688 587 919 c 2,18,-1
 531 1012 l 1,19,-1
 440 1212 l 1,20,21
 440 946 440 946 440.5 686 c 128,-1,22
 441 426 441 426 441 157 c 1,23,-1
 640 117 l 1,24,-1
 640 0 l 1,25,-1
 85 0 l 1,26,-1
 85 117 l 1,0,-1
EndSplineSet
EndChar

StartChar: O
Encoding: 79 79 72
Width: 1571
Flags: W
LayerCount: 2
Fore
SplineSet
70 742 m 0,0,1
 74 931 74 931 131.5 1075 c 128,-1,2
 189 1219 189 1219 287.5 1317.5 c 128,-1,3
 386 1416 386 1416 518.5 1468.5 c 128,-1,4
 651 1521 651 1521 806 1527 c 0,5,6
 973 1533 973 1533 1103.5 1480 c 128,-1,7
 1234 1427 1234 1427 1323 1326.5 c 128,-1,8
 1412 1226 1412 1226 1457.5 1086 c 128,-1,9
 1503 946 1503 946 1500 778 c 0,10,11
 1496 589 1496 589 1440.5 440.5 c 128,-1,12
 1385 292 1385 292 1289 189 c 128,-1,13
 1193 86 1193 86 1063 30.5 c 128,-1,14
 933 -25 933 -25 781 -28 c 0,15,16
 611 -31 611 -31 477.5 26.5 c 128,-1,17
 344 84 344 84 252.5 187.5 c 128,-1,18
 161 291 161 291 114 433.5 c 128,-1,19
 67 576 67 576 70 742 c 0,0,1
796 109 m 0,20,21
 899 109 899 109 972 151.5 c 128,-1,22
 1045 194 1045 194 1092 278 c 128,-1,23
 1139 362 1139 362 1161 487 c 128,-1,24
 1183 612 1183 612 1183 777 c 0,25,26
 1183 851 1183 851 1173 925 c 128,-1,27
 1163 999 1163 999 1142 1067.5 c 128,-1,28
 1121 1136 1121 1136 1089.5 1194.5 c 128,-1,29
 1058 1253 1058 1253 1015 1296.5 c 128,-1,30
 972 1340 972 1340 917 1365 c 128,-1,31
 862 1390 862 1390 795 1390 c 0,32,33
 585 1390 585 1390 486.5 1226.5 c 128,-1,34
 388 1063 388 1063 388 743 c 0,35,36
 388 673 388 673 399 598.5 c 128,-1,37
 410 524 410 524 432 453.5 c 128,-1,38
 454 383 454 383 487 320.5 c 128,-1,39
 520 258 520 258 565.5 211 c 128,-1,40
 611 164 611 164 668.5 136.5 c 128,-1,41
 726 109 726 109 796 109 c 0,20,21
EndSplineSet
EndChar

StartChar: P
Encoding: 80 80 73
Width: 1336
Flags: W
LayerCount: 2
Fore
SplineSet
78 117 m 1,0,-1
 259 155 l 1,1,-1
 259 1338 l 1,2,-1
 90 1365 l 1,3,-1
 90 1511 l 1,4,-1
 407 1511 l 2,5,6
 472 1511 472 1511 558 1519 c 128,-1,7
 644 1527 644 1527 748 1527 c 0,8,9
 827 1527 827 1527 899.5 1521.5 c 128,-1,10
 972 1516 972 1516 1034.5 1500 c 128,-1,11
 1097 1484 1097 1484 1148 1455 c 128,-1,12
 1199 1426 1199 1426 1235 1379.5 c 128,-1,13
 1271 1333 1271 1333 1291 1266.5 c 128,-1,14
 1311 1200 1311 1200 1311 1109 c 0,15,16
 1311 985 1311 985 1262.5 889.5 c 128,-1,17
 1214 794 1214 794 1132.5 729.5 c 128,-1,18
 1051 665 1051 665 944.5 632.5 c 128,-1,19
 838 600 838 600 723 601 c 0,20,21
 657 602 657 602 616 601 c 128,-1,22
 575 600 575 600 544 596 c 1,23,-1
 544 154 l 1,24,-1
 798 117 l 1,25,-1
 798 0 l 1,26,-1
 78 0 l 1,27,-1
 78 117 l 1,0,-1
544 747 m 1,28,29
 586 739 586 739 632 737.5 c 128,-1,30
 678 736 678 736 718 736 c 0,31,32
 779 736 779 736 834.5 752 c 128,-1,33
 890 768 890 768 932.5 810.5 c 128,-1,34
 975 853 975 853 1000.5 927 c 128,-1,35
 1026 1001 1026 1001 1026 1117 c 0,36,37
 1026 1197 1026 1197 1002.5 1250 c 128,-1,38
 979 1303 979 1303 935.5 1333.5 c 128,-1,39
 892 1364 892 1364 829.5 1376 c 128,-1,40
 767 1388 767 1388 690 1387 c 0,41,42
 655 1386 655 1386 613.5 1383 c 128,-1,43
 572 1380 572 1380 544 1372 c 1,44,-1
 544 747 l 1,28,29
EndSplineSet
EndChar

StartChar: Q
Encoding: 81 81 74
Width: 1601
Flags: W
LayerCount: 2
Fore
SplineSet
70 742 m 0,0,1
 74 931 74 931 131.5 1075 c 128,-1,2
 189 1219 189 1219 287.5 1317.5 c 128,-1,3
 386 1416 386 1416 518.5 1468.5 c 128,-1,4
 651 1521 651 1521 806 1527 c 0,5,6
 973 1533 973 1533 1103.5 1480 c 128,-1,7
 1234 1427 1234 1427 1323 1326.5 c 128,-1,8
 1412 1226 1412 1226 1457.5 1086 c 128,-1,9
 1503 946 1503 946 1500 778 c 0,10,11
 1497 624 1497 624 1459 496.5 c 128,-1,12
 1421 369 1421 369 1354.5 271.5 c 128,-1,13
 1288 174 1288 174 1196 106.5 c 128,-1,14
 1104 39 1104 39 994 5 c 1,15,16
 1012 -40 1012 -40 1042 -69 c 128,-1,17
 1072 -98 1072 -98 1109.5 -115.5 c 128,-1,18
 1147 -133 1147 -133 1188 -141 c 128,-1,19
 1229 -149 1229 -149 1268 -151.5 c 128,-1,20
 1307 -154 1307 -154 1341 -153 c 128,-1,21
 1375 -152 1375 -152 1399 -151 c 0,22,23
 1459 -146 1459 -146 1510 -135 c 128,-1,24
 1561 -124 1561 -124 1585 -114 c 1,25,-1
 1593 -293 l 1,26,27
 1565 -325 1565 -325 1495.5 -350.5 c 128,-1,28
 1426 -376 1426 -376 1320 -376 c 0,29,30
 1249 -376 1249 -376 1177.5 -361 c 128,-1,31
 1106 -346 1106 -346 1043 -307 c 128,-1,32
 980 -268 980 -268 930.5 -199.5 c 128,-1,33
 881 -131 881 -131 853 -23 c 1,34,35
 835 -25 835 -25 817 -26 c 128,-1,36
 799 -27 799 -27 781 -28 c 0,37,38
 611 -31 611 -31 477.5 26.5 c 128,-1,39
 344 84 344 84 252.5 187.5 c 128,-1,40
 161 291 161 291 114 433.5 c 128,-1,41
 67 576 67 576 70 742 c 0,0,1
796 109 m 0,42,43
 899 109 899 109 972 151.5 c 128,-1,44
 1045 194 1045 194 1092 278 c 128,-1,45
 1139 362 1139 362 1161 487 c 128,-1,46
 1183 612 1183 612 1183 777 c 0,47,48
 1183 851 1183 851 1173 925 c 128,-1,49
 1163 999 1163 999 1142 1067.5 c 128,-1,50
 1121 1136 1121 1136 1089.5 1194.5 c 128,-1,51
 1058 1253 1058 1253 1015 1296.5 c 128,-1,52
 972 1340 972 1340 917 1365 c 128,-1,53
 862 1390 862 1390 795 1390 c 0,54,55
 585 1390 585 1390 486.5 1226.5 c 128,-1,56
 388 1063 388 1063 388 743 c 0,57,58
 388 673 388 673 399 598.5 c 128,-1,59
 410 524 410 524 432 453.5 c 128,-1,60
 454 383 454 383 487 320.5 c 128,-1,61
 520 258 520 258 565.5 211 c 128,-1,62
 611 164 611 164 668.5 136.5 c 128,-1,63
 726 109 726 109 796 109 c 0,42,43
EndSplineSet
EndChar

StartChar: R
Encoding: 82 82 75
Width: 1503
Flags: W
LayerCount: 2
Fore
SplineSet
79 117 m 1,0,-1
 259 155 l 1,1,-1
 259 1344 l 1,2,-1
 100 1365 l 1,3,-1
 100 1511 l 1,4,-1
 303 1511 l 2,5,6
 333 1511 333 1511 362 1511.5 c 128,-1,7
 391 1512 391 1512 419 1512 c 0,8,9
 495 1514 495 1514 574.5 1518.5 c 128,-1,10
 654 1523 654 1523 730 1523 c 0,11,12
 853 1523 853 1523 956.5 1509 c 128,-1,13
 1060 1495 1060 1495 1135 1455 c 128,-1,14
 1210 1415 1210 1415 1252.5 1344 c 128,-1,15
 1295 1273 1295 1273 1295 1158 c 0,16,17
 1295 989 1295 989 1209.5 874 c 128,-1,18
 1124 759 1124 759 959 703 c 1,19,20
 1003 680 1003 680 1044.5 634 c 128,-1,21
 1086 588 1086 588 1124.5 531 c 128,-1,22
 1163 474 1163 474 1198.5 412 c 128,-1,23
 1234 350 1234 350 1267.5 296.5 c 128,-1,24
 1301 243 1301 243 1331.5 203.5 c 128,-1,25
 1362 164 1362 164 1391 151 c 1,26,-1
 1516 117 l 1,27,-1
 1516 0 l 1,28,-1
 1145 0 l 2,29,30
 1123 0 1123 0 1100 27.5 c 128,-1,31
 1077 55 1077 55 1051.5 100.5 c 128,-1,32
 1026 146 1026 146 999.5 204 c 128,-1,33
 973 262 973 262 943.5 323 c 128,-1,34
 914 384 914 384 883 442.5 c 128,-1,35
 852 501 852 501 818 548 c 128,-1,36
 784 595 784 595 748 625.5 c 128,-1,37
 712 656 712 656 673 659 c 1,38,39
 643 658 643 658 611 658.5 c 128,-1,40
 579 659 579 659 545 658 c 1,41,-1
 545 152 l 1,42,-1
 743 117 l 1,43,-1
 743 0 l 1,44,-1
 79 0 l 1,45,-1
 79 117 l 1,0,-1
545 798 m 1,46,47
 563 795 563 795 587.5 793 c 128,-1,48
 612 791 612 791 638 790.5 c 128,-1,49
 664 790 664 790 689 790.5 c 128,-1,50
 714 791 714 791 735 793 c 0,51,52
 789 796 789 796 838.5 812.5 c 128,-1,53
 888 829 888 829 926.5 867 c 128,-1,54
 965 905 965 905 988 968 c 128,-1,55
 1011 1031 1011 1031 1011 1127 c 0,56,57
 1011 1188 1011 1188 996 1236.5 c 128,-1,58
 981 1285 981 1285 944 1319 c 128,-1,59
 907 1353 907 1353 845 1370 c 128,-1,60
 783 1387 783 1387 690 1385 c 0,61,62
 653 1384 653 1384 612.5 1383 c 128,-1,63
 572 1382 572 1382 545 1372 c 1,64,-1
 545 798 l 1,46,47
EndSplineSet
EndChar

StartChar: S
Encoding: 83 83 76
Width: 1238
Flags: W
LayerCount: 2
Fore
SplineSet
134 432 m 1,0,-1
 252 432 l 1,1,-1
 331 217 l 1,2,3
 359 184 359 184 392 162.5 c 128,-1,4
 425 141 425 141 461.5 129 c 128,-1,5
 498 117 498 117 537.5 112.5 c 128,-1,6
 577 108 577 108 618 108 c 0,7,8
 664 108 664 108 710.5 120 c 128,-1,9
 757 132 757 132 795 159 c 128,-1,10
 833 186 833 186 857 230.5 c 128,-1,11
 881 275 881 275 881 340 c 0,12,13
 881 398 881 398 849 444 c 128,-1,14
 817 490 817 490 765.5 530 c 128,-1,15
 714 570 714 570 647.5 607 c 128,-1,16
 581 644 581 644 512 682 c 128,-1,17
 443 720 443 720 376.5 763 c 128,-1,18
 310 806 310 806 258.5 858 c 128,-1,19
 207 910 207 910 175.5 974 c 128,-1,20
 144 1038 144 1038 144 1120 c 0,21,22
 144 1189 144 1189 166 1246 c 128,-1,23
 188 1303 188 1303 225.5 1348 c 128,-1,24
 263 1393 263 1393 313.5 1426.5 c 128,-1,25
 364 1460 364 1460 421 1481.5 c 128,-1,26
 478 1503 478 1503 538 1514 c 128,-1,27
 598 1525 598 1525 656 1525 c 0,28,29
 734 1525 734 1525 802 1518 c 128,-1,30
 870 1511 870 1511 924 1500 c 128,-1,31
 978 1489 978 1489 1016 1476 c 128,-1,32
 1054 1463 1054 1463 1073 1452 c 1,33,-1
 1073 1144 l 1,34,-1
 948 1144 l 1,35,-1
 861 1342 l 1,36,37
 851 1352 851 1352 832 1362 c 128,-1,38
 813 1372 813 1372 788 1379.5 c 128,-1,39
 763 1387 763 1387 732.5 1391.5 c 128,-1,40
 702 1396 702 1396 669 1396 c 0,41,42
 629 1396 629 1396 586.5 1386 c 128,-1,43
 544 1376 544 1376 509.5 1352.5 c 128,-1,44
 475 1329 475 1329 452.5 1289.5 c 128,-1,45
 430 1250 430 1250 430 1192 c 0,46,47
 430 1128 430 1128 461.5 1079 c 128,-1,48
 493 1030 493 1030 545 989.5 c 128,-1,49
 597 949 597 949 663 914 c 128,-1,50
 729 879 729 879 798 843 c 128,-1,51
 867 807 867 807 933 767.5 c 128,-1,52
 999 728 999 728 1050.5 678.5 c 128,-1,53
 1102 629 1102 629 1133.5 567 c 128,-1,54
 1165 505 1165 505 1165 423 c 0,55,56
 1165 346 1165 346 1143 283 c 128,-1,57
 1121 220 1121 220 1082.5 170 c 128,-1,58
 1044 120 1044 120 991.5 83 c 128,-1,59
 939 46 939 46 876.5 22 c 128,-1,60
 814 -2 814 -2 745 -14 c 128,-1,61
 676 -26 676 -26 605 -26 c 0,62,63
 533 -26 533 -26 462.5 -18.5 c 128,-1,64
 392 -11 392 -11 329 1.5 c 128,-1,65
 266 14 266 14 215.5 30 c 128,-1,66
 165 46 165 46 134 63 c 1,67,-1
 134 432 l 1,0,-1
EndSplineSet
EndChar

StartChar: T
Encoding: 84 84 77
Width: 1368
Flags: W
LayerCount: 2
Fore
SplineSet
317 117 m 1,0,-1
 552 152 l 1,1,-1
 552 1367 l 1,2,-1
 239 1336 l 1,3,-1
 166 1147 l 1,4,-1
 41 1141 l 1,5,-1
 65 1511 l 1,6,-1
 1330 1511 l 1,7,-1
 1328 1147 l 1,8,-1
 1218 1133 l 1,9,-1
 1151 1345 l 1,10,-1
 838 1368 l 1,11,-1
 838 153 l 1,12,-1
 1077 117 l 1,13,-1
 1077 0 l 1,14,-1
 317 0 l 1,15,-1
 317 117 l 1,0,-1
EndSplineSet
EndChar

StartChar: U
Encoding: 85 85 78
Width: 1657
Flags: W
LayerCount: 2
Fore
SplineSet
216 643 m 1,0,1
 216 825 216 825 217 999 c 128,-1,2
 218 1173 218 1173 219 1354 c 1,3,-1
 64 1375 l 1,4,-1
 64 1511 l 1,5,-1
 673 1511 l 1,6,-1
 673 1375 l 1,7,-1
 503 1354 l 1,8,-1
 503 633 l 1,9,10
 504 472 504 472 535 371 c 128,-1,11
 566 270 566 270 619 214 c 128,-1,12
 672 158 672 158 742.5 138 c 128,-1,13
 813 118 813 118 894 118 c 0,14,15
 978 118 978 118 1043.5 150 c 128,-1,16
 1109 182 1109 182 1153.5 249.5 c 128,-1,17
 1198 317 1198 317 1220.5 423 c 128,-1,18
 1243 529 1243 529 1243 677 c 2,19,-1
 1240 1351 l 1,20,-1
 1046 1375 l 1,21,-1
 1046 1511 l 1,22,-1
 1608 1511 l 1,23,-1
 1608 1375 l 1,24,-1
 1432 1351 l 1,25,-1
 1432 678 l 2,26,27
 1432 479 1432 479 1387 344 c 128,-1,28
 1342 209 1342 209 1264 126.5 c 128,-1,29
 1186 44 1186 44 1080.5 8 c 128,-1,30
 975 -28 975 -28 855 -28 c 0,31,32
 680 -28 680 -28 558 13.5 c 128,-1,33
 436 55 436 55 360 138.5 c 128,-1,34
 284 222 284 222 249.5 348 c 128,-1,35
 215 474 215 474 216 643 c 1,0,1
EndSplineSet
EndChar

StartChar: V
Encoding: 86 86 79
Width: 1485
Flags: W
LayerCount: 2
Fore
SplineSet
132 1357 m 1,0,-1
 7 1375 l 1,1,-1
 7 1511 l 1,2,-1
 619 1511 l 1,3,-1
 619 1377 l 1,4,-1
 450 1355 l 1,5,-1
 718 528 l 1,6,-1
 784 281 l 1,7,-1
 826 429 l 2,8,9
 840 480 840 480 852.5 530.5 c 128,-1,10
 865 581 865 581 879 632 c 2,11,-1
 1087 1355 l 1,12,-1
 932 1375 l 1,13,-1
 932 1510 l 1,14,-1
 1476 1510 l 1,15,-1
 1476 1375 l 1,16,-1
 1330 1356 l 1,17,-1
 867 -17 l 1,18,-1
 646 -17 l 1,19,-1
 132 1357 l 1,0,-1
EndSplineSet
EndChar

StartChar: W
Encoding: 87 87 80
Width: 2231
Flags: W
LayerCount: 2
Fore
SplineSet
143 1357 m 1,0,-1
 21 1374 l 1,1,-1
 21 1511 l 1,2,-1
 607 1511 l 1,3,-1
 607 1375 l 1,4,-1
 460 1356 l 1,5,-1
 732 429 l 1,6,7
 743 382 743 382 754.5 337 c 128,-1,8
 766 292 766 292 778 246 c 1,9,-1
 823 424 l 1,10,-1
 1035 1151 l 1,11,-1
 972 1357 l 1,12,-1
 832 1374 l 1,13,-1
 832 1511 l 1,14,-1
 1426 1511 l 1,15,-1
 1426 1375 l 1,16,-1
 1272 1356 l 1,17,-1
 1511 420 l 1,18,-1
 1551 248 l 1,19,-1
 1588 436 l 1,20,-1
 1826 1355 l 1,21,-1
 1667 1374 l 1,22,-1
 1667 1511 l 1,23,-1
 2209 1511 l 1,24,-1
 2209 1374 l 1,25,-1
 2059 1357 l 1,26,-1
 1639 -18 l 1,27,-1
 1375 -18 l 1,28,-1
 1129 834 l 1,29,-1
 872 -17 l 1,30,-1
 619 -17 l 1,31,-1
 143 1357 l 1,0,-1
EndSplineSet
EndChar

StartChar: X
Encoding: 88 88 81
Width: 1546
Flags: W
LayerCount: 2
Fore
SplineSet
50 115 m 1,0,-1
 232 154 l 1,1,-1
 636 749 l 1,2,-1
 222 1355 l 1,3,-1
 72 1375 l 1,4,-1
 72 1511 l 1,5,-1
 716 1511 l 1,6,-1
 716 1377 l 1,7,-1
 559 1356 l 1,8,-1
 808 931 l 1,9,-1
 1075 1357 l 1,10,-1
 932 1375 l 1,11,-1
 932 1511 l 1,12,-1
 1474 1511 l 1,13,-1
 1474 1375 l 1,14,-1
 1320 1356 l 1,15,-1
 907 813 l 1,16,-1
 1355 154 l 1,17,-1
 1519 115 l 1,18,-1
 1519 0 l 1,19,-1
 864 0 l 1,20,-1
 864 115 l 1,21,-1
 1024 151 l 1,22,-1
 741 613 l 1,23,-1
 483 154 l 1,24,-1
 674 115 l 1,25,-1
 674 0 l 1,26,-1
 50 0 l 1,27,-1
 50 115 l 1,0,-1
EndSplineSet
EndChar

StartChar: Y
Encoding: 89 89 82
Width: 1364
Flags: W
LayerCount: 2
Fore
SplineSet
328 117 m 1,0,-1
 553 156 l 1,1,-1
 553 563 l 1,2,-1
 101 1356 l 1,3,-1
 -17 1375 l 1,4,-1
 -17 1511 l 1,5,-1
 559 1511 l 1,6,-1
 559 1377 l 1,7,-1
 435 1357 l 1,8,-1
 703 843 l 1,9,-1
 738 731 l 1,10,-1
 780 851 l 1,11,-1
 1024 1354 l 1,12,-1
 872 1375 l 1,13,-1
 872 1511 l 1,14,-1
 1389 1511 l 1,15,-1
 1389 1375 l 1,16,-1
 1252 1340 l 1,17,-1
 841 574 l 1,18,-1
 841 157 l 1,19,-1
 1080 117 l 1,20,-1
 1080 0 l 1,21,-1
 328 0 l 1,22,-1
 328 117 l 1,0,-1
EndSplineSet
EndChar

StartChar: Z
Encoding: 90 90 83
Width: 1456
Flags: W
LayerCount: 2
Fore
SplineSet
91 118 m 1,0,-1
 887 1217 l 1,1,-1
 1031 1371 l 1,2,-1
 391 1333 l 1,3,-1
 277 1098 l 1,4,-1
 144 1124 l 1,5,-1
 182 1511 l 1,6,-1
 1308 1511 l 1,7,-1
 1346 1387 l 1,8,-1
 562 288 l 1,9,-1
 439 144 l 1,10,-1
 1070 184 l 1,11,-1
 1251 437 l 1,12,-1
 1379 404 l 1,13,-1
 1277 0 l 1,14,-1
 126 0 l 1,15,-1
 91 118 l 1,0,-1
EndSplineSet
EndChar

StartChar: a
Encoding: 97 97 84
Width: 1165
Flags: W
LayerCount: 2
Fore
SplineSet
77 363 m 0,0,1
 88 426 88 426 127 474.5 c 128,-1,2
 166 523 166 523 222 559 c 128,-1,3
 278 595 278 595 345.5 619.5 c 128,-1,4
 413 644 413 644 482 659 c 128,-1,5
 551 674 551 674 614.5 680.5 c 128,-1,6
 678 687 678 687 727 687 c 1,7,-1
 727 724 l 2,8,9
 727 803 727 803 710 853 c 128,-1,10
 693 903 693 903 661.5 931.5 c 128,-1,11
 630 960 630 960 586 970 c 128,-1,12
 542 980 542 980 488 980 c 0,13,14
 438 980 438 980 392 973 c 128,-1,15
 346 966 346 966 306.5 955 c 128,-1,16
 267 944 267 944 235 931.5 c 128,-1,17
 203 919 203 919 182 907 c 1,18,-1
 128 1020 l 1,19,20
 153 1041 153 1041 197.5 1063 c 128,-1,21
 242 1085 242 1085 301.5 1103.5 c 128,-1,22
 361 1122 361 1122 432 1134 c 128,-1,23
 503 1146 503 1146 581 1146 c 0,24,25
 673 1146 673 1146 752 1128.5 c 128,-1,26
 831 1111 831 1111 889 1066.5 c 128,-1,27
 947 1022 947 1022 979.5 946.5 c 128,-1,28
 1012 871 1012 871 1012 754 c 2,29,-1
 1011 114 l 1,30,-1
 1141 114 l 1,31,-1
 1141 25 l 1,32,33
 1119 11 1119 11 1091 1 c 128,-1,34
 1063 -9 1063 -9 1032 -15 c 128,-1,35
 1001 -21 1001 -21 970 -23.5 c 128,-1,36
 939 -26 939 -26 912 -26 c 0,37,38
 893 -26 893 -26 867.5 -22.5 c 128,-1,39
 842 -19 842 -19 818 -8 c 128,-1,40
 794 3 794 3 776.5 24 c 128,-1,41
 759 45 759 45 758 81 c 1,42,43
 704 35 704 35 627.5 4.5 c 128,-1,44
 551 -26 551 -26 442 -26 c 0,45,46
 335 -26 335 -26 259 5 c 128,-1,47
 183 36 183 36 138 89.5 c 128,-1,48
 93 143 93 143 78 213.5 c 128,-1,49
 63 284 63 284 77 363 c 0,0,1
359 328 m 0,50,51
 359 275 359 275 374.5 237 c 128,-1,52
 390 199 390 199 419.5 175 c 128,-1,53
 449 151 449 151 490.5 140 c 128,-1,54
 532 129 532 129 583 129 c 0,55,56
 627 129 627 129 662 145 c 128,-1,57
 697 161 697 161 726 181 c 1,58,59
 726 275 726 275 726 368 c 128,-1,60
 726 461 726 461 727 555 c 1,61,62
 691 555 691 555 649.5 551 c 128,-1,63
 608 547 608 547 567.5 537 c 128,-1,64
 527 527 527 527 489 510 c 128,-1,65
 451 493 451 493 422.5 468 c 128,-1,66
 394 443 394 443 376.5 408.5 c 128,-1,67
 359 374 359 374 359 328 c 0,50,51
EndSplineSet
EndChar

StartChar: b
Encoding: 98 98 85
Width: 1314
Flags: W
LayerCount: 2
Fore
SplineSet
187 1430 m 1,0,-1
 2 1478 l 1,1,-1
 2 1584 l 1,2,-1
 422 1627 l 1,3,-1
 472 1610 l 1,4,-1
 472 1064 l 1,5,6
 523 1099 523 1099 596 1125.5 c 128,-1,7
 669 1152 669 1152 767 1152 c 0,8,9
 856 1152 856 1152 940.5 1122.5 c 128,-1,10
 1025 1093 1025 1093 1090.5 1028 c 128,-1,11
 1156 963 1156 963 1196 859 c 128,-1,12
 1236 755 1236 755 1236 605 c 0,13,14
 1236 480 1236 480 1193 365.5 c 128,-1,15
 1150 251 1150 251 1071 163.5 c 128,-1,16
 992 76 992 76 880.5 24 c 128,-1,17
 769 -28 769 -28 633 -28 c 0,18,19
 557 -28 557 -28 482 -19.5 c 128,-1,20
 407 -11 407 -11 345 1.5 c 128,-1,21
 283 14 283 14 240.5 28 c 128,-1,22
 198 42 198 42 187 53 c 1,23,-1
 187 1430 l 1,0,-1
472 183 m 1,24,25
 487 150 487 150 535 125 c 128,-1,26
 583 100 583 100 663 100 c 0,27,28
 715 100 715 100 765.5 123.5 c 128,-1,29
 816 147 816 147 856 201.5 c 128,-1,30
 896 256 896 256 921.5 346 c 128,-1,31
 947 436 947 436 950 568 c 0,32,33
 953 680 953 680 927 760.5 c 128,-1,34
 901 841 901 841 858.5 892.5 c 128,-1,35
 816 944 816 944 762 968 c 128,-1,36
 708 992 708 992 654 992 c 0,37,38
 590 992 590 992 545 978 c 128,-1,39
 500 964 500 964 472 949 c 1,40,-1
 472 183 l 1,24,25
EndSplineSet
EndChar

StartChar: c
Encoding: 99 99 86
Width: 1078
Flags: W
LayerCount: 2
Fore
SplineSet
68 531 m 0,0,1
 67 673 67 673 114.5 786 c 128,-1,2
 162 899 162 899 244 978.5 c 128,-1,3
 326 1058 326 1058 435.5 1101.5 c 128,-1,4
 545 1145 545 1145 669 1150 c 0,5,6
 717 1151 717 1151 766 1148 c 128,-1,7
 815 1145 815 1145 859 1138.5 c 128,-1,8
 903 1132 903 1132 939.5 1122 c 128,-1,9
 976 1112 976 1112 997 1099 c 1,10,-1
 997 815 l 1,11,-1
 852 815 l 1,12,-1
 785 976 l 1,13,14
 755 997 755 997 717.5 1004 c 128,-1,15
 680 1011 680 1011 646 1011 c 0,16,17
 588 1011 588 1011 536.5 986 c 128,-1,18
 485 961 485 961 445.5 912 c 128,-1,19
 406 863 406 863 382.5 791 c 128,-1,20
 359 719 359 719 357 625 c 0,21,22
 354 497 354 497 385 406.5 c 128,-1,23
 416 316 416 316 467 257.5 c 128,-1,24
 518 199 518 199 583 172 c 128,-1,25
 648 145 648 145 713 145 c 0,26,27
 804 145 804 145 871.5 164 c 128,-1,28
 939 183 939 183 982 213 c 1,29,-1
 1027 101 l 1,30,31
 954 37 954 37 841 6 c 128,-1,32
 728 -25 728 -25 588 -25 c 0,33,34
 463 -25 463 -25 366.5 17 c 128,-1,35
 270 59 270 59 204 133 c 128,-1,36
 138 207 138 207 103.5 309 c 128,-1,37
 69 411 69 411 68 531 c 0,0,1
EndSplineSet
EndChar

StartChar: d
Encoding: 100 100 87
Width: 1323
Flags: W
LayerCount: 2
Fore
SplineSet
535 -26 m 0,0,1
 454 -26 454 -26 372 6.5 c 128,-1,2
 290 39 290 39 224 108 c 128,-1,3
 158 177 158 177 116.5 284 c 128,-1,4
 75 391 75 391 75 541 c 0,5,6
 75 630 75 630 97 710 c 128,-1,7
 119 790 119 790 159.5 858 c 128,-1,8
 200 926 200 926 256.5 980.5 c 128,-1,9
 313 1035 313 1035 382 1073 c 128,-1,10
 451 1111 451 1111 530 1131.5 c 128,-1,11
 609 1152 609 1152 695 1152 c 0,12,13
 727 1152 727 1152 765 1149.5 c 128,-1,14
 803 1147 803 1147 845 1138 c 1,15,-1
 845 1422 l 1,16,-1
 627 1470 l 1,17,-1
 627 1576 l 1,18,-1
 1073 1628 l 1,19,-1
 1130 1603 l 1,20,-1
 1130 114 l 1,21,-1
 1269 114 l 1,22,-1
 1269 21 l 1,23,24
 1234 2 1234 2 1165 -14 c 128,-1,25
 1096 -30 1096 -30 1005 -30 c 0,26,27
 946 -30 946 -30 906.5 -10 c 128,-1,28
 867 10 867 10 856 60 c 1,29,30
 836 45 836 45 807.5 29.5 c 128,-1,31
 779 14 779 14 739.5 1.5 c 128,-1,32
 700 -11 700 -11 649 -18.5 c 128,-1,33
 598 -26 598 -26 535 -26 c 0,0,1
618 133 m 0,34,35
 641 128 641 128 663 128 c 128,-1,36
 685 128 685 128 706 131 c 1,37,38
 754 134 754 134 789.5 146.5 c 128,-1,39
 825 159 825 159 845 173 c 1,40,-1
 845 975 l 1,41,42
 783 1028 783 1028 667 1028 c 0,43,44
 642 1028 642 1028 611 1021 c 128,-1,45
 580 1014 580 1014 547 995.5 c 128,-1,46
 514 977 514 977 482.5 946.5 c 128,-1,47
 451 916 451 916 426.5 869 c 128,-1,48
 402 822 402 822 386 757 c 128,-1,49
 370 692 370 692 369 605 c 0,50,51
 367 494 367 494 386.5 410 c 128,-1,52
 406 326 406 326 440.5 267.5 c 128,-1,53
 475 209 475 209 521 175.5 c 128,-1,54
 567 142 567 142 618 133 c 0,34,35
EndSplineSet
EndChar

StartChar: e
Encoding: 101 101 88
Width: 1181
Flags: W
LayerCount: 2
Fore
SplineSet
78 542 m 0,0,1
 78 670 78 670 119.5 781 c 128,-1,2
 161 892 161 892 238.5 973.5 c 128,-1,3
 316 1055 316 1055 425.5 1102.5 c 128,-1,4
 535 1150 535 1150 672 1151 c 0,5,6
 779 1152 779 1152 859 1122.5 c 128,-1,7
 939 1093 939 1093 992.5 1038.5 c 128,-1,8
 1046 984 1046 984 1074 906.5 c 128,-1,9
 1102 829 1102 829 1106 734 c 0,10,11
 1108 671 1108 671 1103 623.5 c 128,-1,12
 1098 576 1098 576 1093 536 c 1,13,-1
 371 536 l 1,14,15
 371 534 371 534 371.5 531.5 c 128,-1,16
 372 529 372 529 372 527 c 0,17,18
 378 425 378 425 407 352.5 c 128,-1,19
 436 280 436 280 483 234.5 c 128,-1,20
 530 189 530 189 591.5 168 c 128,-1,21
 653 147 653 147 724 147 c 0,22,23
 761 147 761 147 802.5 151.5 c 128,-1,24
 844 156 844 156 884.5 164.5 c 128,-1,25
 925 173 925 173 963 185.5 c 128,-1,26
 1001 198 1001 198 1033 214 c 1,27,-1
 1080 103 l 1,28,29
 1045 74 1045 74 994.5 49.5 c 128,-1,30
 944 25 944 25 883 8 c 128,-1,31
 822 -9 822 -9 755.5 -18 c 128,-1,32
 689 -27 689 -27 623 -26 c 0,33,34
 492 -25 492 -25 391 15 c 128,-1,35
 290 55 290 55 220 128 c 128,-1,36
 150 201 150 201 114 305.5 c 128,-1,37
 78 410 78 410 78 542 c 0,0,1
821 679 m 1,38,39
 825 728 825 728 826 782 c 128,-1,40
 827 836 827 836 815.5 883.5 c 128,-1,41
 804 931 804 931 774.5 965.5 c 128,-1,42
 745 1000 745 1000 688 1011 c 1,43,44
 631 1025 631 1025 572 1005 c 1,45,46
 495 981 495 981 440.5 900.5 c 128,-1,47
 386 820 386 820 373 679 c 1,48,-1
 821 679 l 1,38,39
EndSplineSet
EndChar

StartChar: f
Encoding: 102 102 89
Width: 878
Flags: W
LayerCount: 2
Fore
SplineSet
96 114 m 1,0,-1
 280 141 l 1,1,-1
 280 952 l 1,2,-1
 81 952 l 1,3,-1
 81 1045 l 1,4,-1
 280 1115 l 1,5,-1
 280 1211 l 2,6,7
 280 1285 280 1285 300 1352.5 c 128,-1,8
 320 1420 320 1420 354.5 1478.5 c 128,-1,9
 389 1537 389 1537 435.5 1585 c 128,-1,10
 482 1633 482 1633 534.5 1667 c 128,-1,11
 587 1701 587 1701 643 1719.5 c 128,-1,12
 699 1738 699 1738 754 1738 c 0,13,14
 812 1738 812 1738 844 1732 c 128,-1,15
 876 1726 876 1726 883 1721 c 1,16,-1
 883 1473 l 1,17,18
 873 1481 873 1481 855 1490 c 128,-1,19
 837 1499 837 1499 813.5 1506.5 c 128,-1,20
 790 1514 790 1514 762.5 1519 c 128,-1,21
 735 1524 735 1524 705 1524 c 0,22,23
 674 1524 674 1524 648.5 1518 c 128,-1,24
 623 1512 623 1512 604.5 1488 c 128,-1,25
 586 1464 586 1464 575.5 1416.5 c 128,-1,26
 565 1369 565 1369 565 1286 c 2,27,-1
 565 1128 l 1,28,-1
 839 1128 l 1,29,-1
 839 952 l 1,30,-1
 565 952 l 1,31,-1
 565 140 l 1,32,-1
 794 114 l 1,33,-1
 794 0 l 1,34,-1
 96 0 l 1,35,-1
 96 114 l 1,0,-1
EndSplineSet
EndChar

StartChar: g
Encoding: 103 103 90
Width: 1245
Flags: W
LayerCount: 2
Fore
SplineSet
77 -239 m 0,0,1
 77 -187 77 -187 96 -144 c 128,-1,2
 115 -101 115 -101 144 -66.5 c 128,-1,3
 173 -32 173 -32 207 -6 c 128,-1,4
 241 20 241 20 272 37 c 1,5,6
 231 52 231 52 209 72.5 c 128,-1,7
 187 93 187 93 176.5 117 c 128,-1,8
 166 141 166 141 164 167 c 128,-1,9
 162 193 162 193 162 219 c 0,10,11
 162 240 162 240 172.5 269 c 128,-1,12
 183 298 183 298 200.5 328.5 c 128,-1,13
 218 359 218 359 241.5 388.5 c 128,-1,14
 265 418 265 418 292 441 c 1,15,16
 203 486 203 486 153 563 c 128,-1,17
 103 640 103 640 103 753 c 0,18,19
 103 858 103 858 146.5 933 c 128,-1,20
 190 1008 190 1008 260.5 1057 c 128,-1,21
 331 1106 331 1106 420.5 1129.5 c 128,-1,22
 510 1153 510 1153 602 1155 c 0,23,24
 708 1157 708 1157 797.5 1133.5 c 128,-1,25
 887 1110 887 1110 950 1057 c 1,26,27
 973 1086 973 1086 1014 1105.5 c 128,-1,28
 1055 1125 1055 1125 1124 1125 c 2,29,-1
 1240 1125 l 1,30,-1
 1240 924 l 1,31,32
 1223 924 1223 924 1200.5 924 c 128,-1,33
 1178 924 1178 924 1152 924 c 128,-1,34
 1126 924 1126 924 1098 924.5 c 128,-1,35
 1070 925 1070 925 1042 925 c 1,36,37
 1053 895 1053 895 1058.5 860.5 c 128,-1,38
 1064 826 1064 826 1064 788 c 0,39,40
 1064 687 1064 687 1026 611.5 c 128,-1,41
 988 536 988 536 922 485.5 c 128,-1,42
 856 435 856 435 767 409.5 c 128,-1,43
 678 384 678 384 577 384 c 0,44,45
 482 384 482 384 403 402 c 1,46,47
 399 385 399 385 397.5 368 c 128,-1,48
 396 351 396 351 396 335 c 0,49,50
 396 297 396 297 403 273.5 c 128,-1,51
 410 250 410 250 438 236 c 128,-1,52
 466 222 466 222 521.5 217 c 128,-1,53
 577 212 577 212 673 212 c 0,54,55
 823 212 823 212 921 185.5 c 128,-1,56
 1019 159 1019 159 1076.5 113 c 128,-1,57
 1134 67 1134 67 1157 5 c 128,-1,58
 1180 -57 1180 -57 1180 -128 c 0,59,60
 1180 -214 1180 -214 1143 -287.5 c 128,-1,61
 1106 -361 1106 -361 1033 -415 c 128,-1,62
 960 -469 960 -469 851.5 -500 c 128,-1,63
 743 -531 743 -531 601 -531 c 0,64,65
 490 -531 490 -531 394.5 -514 c 128,-1,66
 299 -497 299 -497 228.5 -461.5 c 128,-1,67
 158 -426 158 -426 117.5 -371 c 128,-1,68
 77 -316 77 -316 77 -239 c 0,0,1
603 521 m 0,69,70
 656 521 656 521 692.5 540 c 128,-1,71
 729 559 729 559 751.5 592 c 128,-1,72
 774 625 774 625 783.5 670.5 c 128,-1,73
 793 716 793 716 793 769 c 0,74,75
 793 898 793 898 739 964.5 c 128,-1,76
 685 1031 685 1031 579 1031 c 0,77,78
 540 1031 540 1031 504.5 1020 c 128,-1,79
 469 1009 469 1009 441 983.5 c 128,-1,80
 413 958 413 958 396.5 916.5 c 128,-1,81
 380 875 380 875 380 814 c 0,82,83
 380 754 380 754 391 701 c 128,-1,84
 402 648 402 648 428 608 c 128,-1,85
 454 568 454 568 497 544.5 c 128,-1,86
 540 521 540 521 603 521 c 0,69,70
377 12 m 1,87,88
 363 -16 363 -16 355 -56.5 c 128,-1,89
 347 -97 347 -97 347 -160 c 256,90,91
 347 -223 347 -223 371.5 -267 c 128,-1,92
 396 -311 396 -311 437 -338.5 c 128,-1,93
 478 -366 478 -366 531.5 -379 c 128,-1,94
 585 -392 585 -392 644 -392 c 0,95,96
 786 -392 786 -392 857 -340 c 128,-1,97
 928 -288 928 -288 928 -193 c 0,98,99
 928 -159 928 -159 918 -125.5 c 128,-1,100
 908 -92 908 -92 877 -64.5 c 128,-1,101
 846 -37 846 -37 787.5 -19 c 128,-1,102
 729 -1 729 -1 632 2 c 1,103,-1
 545 3 l 1,104,105
 444 3 444 3 377 12 c 1,87,88
EndSplineSet
EndChar

StartChar: h
Encoding: 104 104 91
Width: 1392
Flags: W
LayerCount: 2
Fore
SplineSet
82 114 m 1,0,-1
 228 139 l 1,1,-1
 228 1398 l 1,2,-1
 56 1454 l 1,3,-1
 56 1573 l 1,4,-1
 450 1628 l 1,5,-1
 513 1603 l 1,6,-1
 513 1230 l 1,7,-1
 512 1137 l 1,8,-1
 498 1004 l 1,9,10
 543 1043 543 1043 593 1070.5 c 128,-1,11
 643 1098 643 1098 693.5 1114.5 c 128,-1,12
 744 1131 744 1131 791.5 1138.5 c 128,-1,13
 839 1146 839 1146 878 1146 c 0,14,15
 983 1146 983 1146 1048.5 1112 c 128,-1,16
 1114 1078 1114 1078 1151 1011 c 128,-1,17
 1188 944 1188 944 1200 845.5 c 128,-1,18
 1212 747 1212 747 1211 618 c 1,19,-1
 1211 139 l 1,20,-1
 1353 114 l 1,21,-1
 1353 0 l 1,22,-1
 771 1 l 1,23,-1
 771 114 l 1,24,-1
 926 140 l 1,25,-1
 926 554 l 2,26,27
 926 648 926 648 921 722 c 128,-1,28
 916 796 916 796 896 847 c 128,-1,29
 876 898 876 898 834.5 925 c 128,-1,30
 793 952 793 952 720 952 c 0,31,32
 667 952 667 952 613.5 938.5 c 128,-1,33
 560 925 560 925 513 890 c 1,34,-1
 513 139 l 1,35,-1
 632 114 l 1,36,-1
 632 0 l 1,37,-1
 82 0 l 1,38,-1
 82 114 l 1,0,-1
EndSplineSet
EndChar

StartChar: i
Encoding: 105 105 92
Width: 718
Flags: W
LayerCount: 2
Fore
SplineSet
356 1359 m 0,0,1
 323 1359 323 1359 292 1370 c 128,-1,2
 261 1381 261 1381 237 1401.5 c 128,-1,3
 213 1422 213 1422 198.5 1451.5 c 128,-1,4
 184 1481 184 1481 184 1519 c 0,5,6
 184 1560 184 1560 202 1595 c 128,-1,7
 220 1630 220 1630 249.5 1655.5 c 128,-1,8
 279 1681 279 1681 315.5 1695.5 c 128,-1,9
 352 1710 352 1710 388 1710 c 0,10,11
 433 1710 433 1710 465.5 1697 c 128,-1,12
 498 1684 498 1684 519 1662 c 128,-1,13
 540 1640 540 1640 550 1610.5 c 128,-1,14
 560 1581 560 1581 560 1548 c 0,15,16
 560 1505 560 1505 542.5 1470 c 128,-1,17
 525 1435 525 1435 496.5 1410.5 c 128,-1,18
 468 1386 468 1386 431.5 1372.5 c 128,-1,19
 395 1359 395 1359 356 1359 c 0,0,1
101 114 m 1,20,-1
 251 140 l 1,21,-1
 251 845 l 1,22,-1
 119 959 l 1,23,-1
 119 1039 l 1,24,-1
 464 1146 l 1,25,-1
 532 1123 l 1,26,-1
 532 139 l 1,27,-1
 682 114 l 1,28,-1
 682 0 l 1,29,-1
 101 0 l 1,30,-1
 101 114 l 1,20,-1
EndSplineSet
EndChar

StartChar: j
Encoding: 106 106 93
Width: 685
Flags: W
LayerCount: 2
Fore
SplineSet
328 1359 m 0,0,1
 295 1359 295 1359 264 1370 c 128,-1,2
 233 1381 233 1381 209.5 1401.5 c 128,-1,3
 186 1422 186 1422 171.5 1451.5 c 128,-1,4
 157 1481 157 1481 157 1519 c 0,5,6
 157 1559 157 1559 175 1594 c 128,-1,7
 193 1629 193 1629 222 1655 c 128,-1,8
 251 1681 251 1681 287.5 1695.5 c 128,-1,9
 324 1710 324 1710 360 1710 c 0,10,11
 405 1710 405 1710 437.5 1697 c 128,-1,12
 470 1684 470 1684 491.5 1662 c 128,-1,13
 513 1640 513 1640 523 1610.5 c 128,-1,14
 533 1581 533 1581 533 1548 c 0,15,16
 533 1505 533 1505 515.5 1470 c 128,-1,17
 498 1435 498 1435 469 1410.5 c 128,-1,18
 440 1386 440 1386 403.5 1372.5 c 128,-1,19
 367 1359 367 1359 328 1359 c 0,0,1
233 845 m 1,20,-1
 111 961 l 1,21,-1
 111 1037 l 1,22,-1
 451 1146 l 1,23,-1
 517 1122 l 1,24,-1
 517 -16 l 2,25,26
 517 -133 517 -133 489.5 -225.5 c 128,-1,27
 462 -318 462 -318 412 -382.5 c 128,-1,28
 362 -447 362 -447 291.5 -481 c 128,-1,29
 221 -515 221 -515 135 -515 c 0,30,31
 125 -515 125 -515 101 -514 c 128,-1,32
 77 -513 77 -513 51 -511 c 128,-1,33
 25 -509 25 -509 4 -506 c 128,-1,34
 -17 -503 -17 -503 -21 -500 c 1,35,-1
 -21 -303 l 1,36,37
 -12 -306 -12 -306 5 -308 c 128,-1,38
 22 -310 22 -310 41 -311.5 c 128,-1,39
 60 -313 60 -313 77.5 -313.5 c 128,-1,40
 95 -314 95 -314 104 -314 c 0,41,42
 144 -314 144 -314 169 -300 c 128,-1,43
 194 -286 194 -286 208 -251 c 128,-1,44
 222 -216 222 -216 227.5 -155.5 c 128,-1,45
 233 -95 233 -95 233 -2 c 2,46,-1
 233 845 l 1,20,-1
EndSplineSet
EndChar

StartChar: k
Encoding: 107 107 94
Width: 1324
Flags: W
LayerCount: 2
Fore
SplineSet
90 114 m 1,0,-1
 226 141 l 1,1,-1
 226 1398 l 1,2,-1
 34 1454 l 1,3,-1
 34 1573 l 1,4,-1
 459 1628 l 1,5,-1
 511 1603 l 1,6,-1
 511 858 l 1,7,-1
 510 693 l 1,8,-1
 501 539 l 1,9,-1
 867 957 l 1,10,-1
 707 976 l 1,11,-1
 707 1123 l 1,12,-1
 1273 1123 l 1,13,-1
 1273 975 l 1,14,-1
 1095 958 l 1,15,-1
 808 671 l 1,16,-1
 1192 138 l 1,17,-1
 1320 115 l 1,18,-1
 1320 0 l 1,19,-1
 751 0 l 1,20,-1
 751 115 l 1,21,-1
 866 141 l 1,22,-1
 635 512 l 1,23,-1
 502 372 l 1,24,-1
 510 253 l 1,25,-1
 510 139 l 1,26,-1
 639 114 l 1,27,-1
 639 0 l 1,28,-1
 90 0 l 1,29,-1
 90 114 l 1,0,-1
EndSplineSet
EndChar

StartChar: l
Encoding: 108 108 95
Width: 702
Flags: W
LayerCount: 2
Fore
SplineSet
97 114 m 1,0,-1
 235 138 l 1,1,-1
 235 1398 l 1,2,-1
 88 1454 l 1,3,-1
 88 1573 l 1,4,-1
 470 1628 l 1,5,-1
 521 1603 l 1,6,-1
 521 140 l 1,7,-1
 693 114 l 1,8,-1
 693 0 l 1,9,-1
 97 0 l 1,10,-1
 97 114 l 1,0,-1
EndSplineSet
EndChar

StartChar: m
Encoding: 109 109 96
Width: 2129
Flags: W
LayerCount: 2
Fore
SplineSet
116 115 m 1,0,-1
 245 141 l 1,1,-1
 245 837 l 1,2,-1
 107 959 l 1,3,-1
 107 1038 l 1,4,-1
 433 1146 l 1,5,-1
 495 1126 l 1,6,-1
 495 981 l 1,7,8
 527 1012 527 1012 570 1041 c 128,-1,9
 613 1070 613 1070 662.5 1093 c 128,-1,10
 712 1116 712 1116 765.5 1130.5 c 128,-1,11
 819 1145 819 1145 871 1148 c 1,12,13
 925 1150 925 1150 972 1144 c 128,-1,14
 1019 1138 1019 1138 1058 1120.5 c 128,-1,15
 1097 1103 1097 1103 1127.5 1073.5 c 128,-1,16
 1158 1044 1158 1044 1178 999 c 1,17,18
 1212 1027 1212 1027 1257 1053 c 128,-1,19
 1302 1079 1302 1079 1353 1099.5 c 128,-1,20
 1404 1120 1404 1120 1460 1132.5 c 128,-1,21
 1516 1145 1516 1145 1572 1146 c 0,22,23
 1668 1147 1668 1147 1736 1117.5 c 128,-1,24
 1804 1088 1804 1088 1847 1028.5 c 128,-1,25
 1890 969 1890 969 1909.5 878.5 c 128,-1,26
 1929 788 1929 788 1929 668 c 2,27,-1
 1929 140 l 1,28,-1
 2081 115 l 1,29,-1
 2081 0 l 1,30,-1
 1503 0 l 1,31,-1
 1503 115 l 1,32,-1
 1644 141 l 1,33,-1
 1644 628 l 2,34,35
 1644 714 1644 714 1634.5 773.5 c 128,-1,36
 1625 833 1625 833 1603 870 c 128,-1,37
 1581 907 1581 907 1545.5 924 c 128,-1,38
 1510 941 1510 941 1458 943 c 0,39,40
 1435 944 1435 944 1408.5 941.5 c 128,-1,41
 1382 939 1382 939 1355 934 c 0,42,43
 1325 929 1325 929 1287.5 919.5 c 128,-1,44
 1250 910 1250 910 1219 894 c 1,45,46
 1227 859 1227 859 1231.5 811.5 c 128,-1,47
 1236 764 1236 764 1236 690 c 2,48,-1
 1236 140 l 1,49,-1
 1392 115 l 1,50,-1
 1392 0 l 1,51,-1
 796 0 l 1,52,-1
 796 115 l 1,53,-1
 951 142 l 1,54,-1
 951 639 l 2,55,56
 951 735 951 735 939 797 c 128,-1,57
 927 859 927 859 899.5 895 c 128,-1,58
 872 931 872 931 828 943.5 c 128,-1,59
 784 956 784 956 720 952 c 0,60,61
 701 951 701 951 677 945.5 c 128,-1,62
 653 940 653 940 627.5 931 c 128,-1,63
 602 922 602 922 577 908.5 c 128,-1,64
 552 895 552 895 531 879 c 1,65,66
 531 693 531 693 531 509.5 c 128,-1,67
 531 326 531 326 532 140 c 1,68,-1
 672 115 l 1,69,-1
 672 0 l 1,70,-1
 116 0 l 1,71,-1
 116 115 l 1,0,-1
EndSplineSet
EndChar

StartChar: n
Encoding: 110 110 97
Width: 1432
Flags: W
LayerCount: 2
Fore
SplineSet
115 114 m 1,0,-1
 245 138 l 1,1,-1
 245 837 l 1,2,-1
 106 959 l 1,3,-1
 106 1039 l 1,4,-1
 433 1146 l 1,5,-1
 495 1126 l 1,6,-1
 495 981 l 1,7,8
 525 1009 525 1009 567 1035.5 c 128,-1,9
 609 1062 609 1062 656.5 1084 c 128,-1,10
 704 1106 704 1106 755 1121 c 128,-1,11
 806 1136 806 1136 855 1141 c 1,12,13
 901 1147 901 1147 943 1144 c 0,14,15
 1027 1139 1027 1139 1083.5 1108 c 128,-1,16
 1140 1077 1140 1077 1173.5 1019 c 128,-1,17
 1207 961 1207 961 1221.5 878 c 128,-1,18
 1236 795 1236 795 1236 687 c 2,19,-1
 1236 138 l 1,20,-1
 1386 114 l 1,21,-1
 1386 0 l 1,22,-1
 805 0 l 1,23,-1
 805 114 l 1,24,-1
 951 140 l 1,25,-1
 951 646 l 2,26,27
 951 731 951 731 941 790 c 128,-1,28
 931 849 931 849 905 885 c 128,-1,29
 879 921 879 921 834.5 936.5 c 128,-1,30
 790 952 790 952 721 951 c 0,31,32
 703 950 703 950 679.5 946 c 128,-1,33
 656 942 656 942 631 933.5 c 128,-1,34
 606 925 606 925 580 911.5 c 128,-1,35
 554 898 554 898 531 880 c 1,36,-1
 531 139 l 1,37,-1
 665 114 l 1,38,-1
 665 0 l 1,39,-1
 115 0 l 1,40,-1
 115 114 l 1,0,-1
EndSplineSet
EndChar

StartChar: o
Encoding: 111 111 98
Width: 1289
Flags: W
LayerCount: 2
Fore
SplineSet
76 570 m 0,0,1
 78 715 78 715 128 824 c 128,-1,2
 178 933 178 933 259.5 1005 c 128,-1,3
 341 1077 341 1077 446.5 1113.5 c 128,-1,4
 552 1150 552 1150 664 1151 c 0,5,6
 797 1152 797 1152 899.5 1113 c 128,-1,7
 1002 1074 1002 1074 1072 1000 c 128,-1,8
 1142 926 1142 926 1177.5 820.5 c 128,-1,9
 1213 715 1213 715 1213 583 c 0,10,11
 1213 436 1213 436 1165.5 322.5 c 128,-1,12
 1118 209 1118 209 1039 131.5 c 128,-1,13
 960 54 960 54 855.5 14 c 128,-1,14
 751 -26 751 -26 637 -26 c 0,15,16
 487 -26 487 -26 380 22 c 128,-1,17
 273 70 273 70 205 152 c 128,-1,18
 137 234 137 234 105.5 342 c 128,-1,19
 74 450 74 450 76 570 c 0,0,1
648 110 m 0,20,21
 729 109 729 109 780 145 c 128,-1,22
 831 181 831 181 860 243.5 c 128,-1,23
 889 306 889 306 899.5 389.5 c 128,-1,24
 910 473 910 473 910 568 c 0,25,26
 910 652 910 652 897 733 c 128,-1,27
 884 814 884 814 854 878 c 128,-1,28
 824 942 824 942 775 981.5 c 128,-1,29
 726 1021 726 1021 654 1022 c 1,30,31
 578 1022 578 1022 525.5 987.5 c 128,-1,32
 473 953 473 953 441 893.5 c 128,-1,33
 409 834 409 834 394.5 755 c 128,-1,34
 380 676 380 676 380 588 c 0,35,36
 380 536 380 536 386.5 480.5 c 128,-1,37
 393 425 393 425 406.5 372 c 128,-1,38
 420 319 420 319 441.5 271.5 c 128,-1,39
 463 224 463 224 493 188.5 c 128,-1,40
 523 153 523 153 561.5 131.5 c 128,-1,41
 600 110 600 110 648 110 c 0,20,21
EndSplineSet
EndChar

StartChar: p
Encoding: 112 112 99
Width: 1317
Flags: W
LayerCount: 2
Fore
SplineSet
230 -369 m 1,0,-1
 230 837 l 1,1,-1
 88 959 l 1,2,-1
 88 1039 l 1,3,-1
 416 1146 l 1,4,-1
 477 1127 l 1,5,-1
 477 1003 l 1,6,7
 489 1020 489 1020 517.5 1045 c 128,-1,8
 546 1070 546 1070 589 1093.5 c 128,-1,9
 632 1117 632 1117 688.5 1134 c 128,-1,10
 745 1151 745 1151 813 1151 c 0,11,12
 900 1151 900 1151 981 1122.5 c 128,-1,13
 1062 1094 1062 1094 1124.5 1028.5 c 128,-1,14
 1187 963 1187 963 1224 857 c 128,-1,15
 1261 751 1261 751 1261 595 c 0,16,17
 1261 469 1261 469 1216 355.5 c 128,-1,18
 1171 242 1171 242 1090.5 157 c 128,-1,19
 1010 72 1010 72 899.5 22 c 128,-1,20
 789 -28 789 -28 659 -28 c 0,21,22
 614 -28 614 -28 573.5 -22 c 128,-1,23
 533 -16 533 -16 504 -9 c 1,24,-1
 513 -175 l 1,25,-1
 514 -257 l 1,26,-1
 514 -370 l 1,27,-1
 720 -396 l 1,28,-1
 720 -511 l 1,29,-1
 95 -511 l 1,30,-1
 95 -396 l 1,31,-1
 230 -369 l 1,0,-1
514 194 m 1,32,33
 523 176 523 176 542 161.5 c 128,-1,34
 561 147 561 147 586.5 137 c 128,-1,35
 612 127 612 127 642 121.5 c 128,-1,36
 672 116 672 116 705 116 c 0,37,38
 751 116 751 116 799.5 138 c 128,-1,39
 848 160 848 160 887.5 211 c 128,-1,40
 927 262 927 262 952.5 345.5 c 128,-1,41
 978 429 978 429 979 552 c 0,42,43
 980 681 980 681 954 764 c 128,-1,44
 928 847 928 847 887 895 c 128,-1,45
 846 943 846 943 795.5 962 c 128,-1,46
 745 981 745 981 697 981 c 0,47,48
 662 981 662 981 633 972.5 c 128,-1,49
 604 964 604 964 581 952 c 128,-1,50
 558 940 558 940 541 926.5 c 128,-1,51
 524 913 524 913 513 902 c 1,52,53
 513 808 513 808 513.5 715 c 128,-1,54
 514 622 514 622 514 527 c 2,55,-1
 514 194 l 1,32,33
EndSplineSet
EndChar

StartChar: q
Encoding: 113 113 100
Width: 1301
Flags: W
LayerCount: 2
Fore
SplineSet
551 -26 m 0,0,1
 506 -26 506 -26 453 -17.5 c 128,-1,2
 400 -9 400 -9 347 13.5 c 128,-1,3
 294 36 294 36 244.5 76.5 c 128,-1,4
 195 117 195 117 157 181 c 128,-1,5
 119 245 119 245 96 335.5 c 128,-1,6
 73 426 73 426 73 549 c 0,7,8
 73 675 73 675 119.5 785 c 128,-1,9
 166 895 166 895 249.5 976.5 c 128,-1,10
 333 1058 333 1058 449 1105 c 128,-1,11
 565 1152 565 1152 705 1152 c 0,12,13
 732 1152 732 1152 765.5 1149 c 128,-1,14
 799 1146 799 1146 833 1139.5 c 128,-1,15
 867 1133 867 1133 898 1123 c 128,-1,16
 929 1113 929 1113 951 1100 c 1,17,-1
 1081 1146 l 1,18,-1
 1128 1125 l 1,19,-1
 1128 -372 l 1,20,-1
 1262 -395 l 1,21,-1
 1262 -511 l 1,22,-1
 646 -511 l 1,23,-1
 646 -395 l 1,24,-1
 843 -373 l 1,25,-1
 843 -47 l 1,26,-1
 853 98 l 1,27,28
 836 80 836 80 812.5 58.5 c 128,-1,29
 789 37 789 37 753.5 18.5 c 128,-1,30
 718 0 718 0 668.5 -13 c 128,-1,31
 619 -26 619 -26 551 -26 c 0,0,1
648 147 m 0,32,33
 716 147 716 147 765 165.5 c 128,-1,34
 814 184 814 184 843 214 c 1,35,-1
 843 953 l 1,36,37
 822 985 822 985 779.5 1002.5 c 128,-1,38
 737 1020 737 1020 687 1020 c 0,39,40
 606 1020 606 1020 546.5 991 c 128,-1,41
 487 962 487 962 447.5 907 c 128,-1,42
 408 852 408 852 388 772.5 c 128,-1,43
 368 693 368 693 366 593 c 0,44,45
 364 490 364 490 381 407.5 c 128,-1,46
 398 325 398 325 434 267 c 128,-1,47
 470 209 470 209 523.5 178 c 128,-1,48
 577 147 577 147 648 147 c 0,32,33
EndSplineSet
EndChar

StartChar: r
Encoding: 114 114 101
Width: 939
Flags: W
LayerCount: 2
Fore
SplineSet
118 114 m 1,0,-1
 250 138 l 1,1,-1
 250 837 l 1,2,-1
 110 959 l 1,3,-1
 110 1039 l 1,4,-1
 433 1146 l 1,5,-1
 498 1123 l 1,6,-1
 498 949 l 1,7,8
 512 983 512 983 546 1018 c 128,-1,9
 580 1053 580 1053 624 1081.5 c 128,-1,10
 668 1110 668 1110 718 1128 c 128,-1,11
 768 1146 768 1146 814 1146 c 0,12,13
 858 1146 858 1146 881 1142.5 c 128,-1,14
 904 1139 904 1139 916 1134 c 1,15,-1
 916 852 l 1,16,17
 881 875 881 875 834.5 886.5 c 128,-1,18
 788 898 788 898 738 898 c 0,19,20
 697 898 697 898 665 892.5 c 128,-1,21
 633 887 633 887 609 879 c 128,-1,22
 585 871 585 871 567 861.5 c 128,-1,23
 549 852 549 852 535 843 c 1,24,-1
 535 145 l 1,25,-1
 799 114 l 1,26,-1
 799 0 l 1,27,-1
 118 0 l 1,28,-1
 118 114 l 1,0,-1
EndSplineSet
EndChar

StartChar: s
Encoding: 115 115 102
Width: 1078
Flags: W
LayerCount: 2
Fore
SplineSet
141 312 m 1,0,-1
 261 312 l 1,1,-1
 314 204 l 1,2,3
 350 171 350 171 397.5 144.5 c 128,-1,4
 445 118 445 118 518 114 c 0,5,6
 618 109 618 109 673.5 149.5 c 128,-1,7
 729 190 729 190 729 267 c 1,8,9
 728 302 728 302 707 326.5 c 128,-1,10
 686 351 686 351 650.5 372 c 128,-1,11
 615 393 615 393 569 413 c 128,-1,12
 523 433 523 433 472 460 c 1,13,14
 410 491 410 491 350.5 526.5 c 128,-1,15
 291 562 291 562 244.5 607 c 128,-1,16
 198 652 198 652 170 707.5 c 128,-1,17
 142 763 142 763 143 835 c 0,18,19
 144 889 144 889 163.5 933.5 c 128,-1,20
 183 978 183 978 216.5 1012.5 c 128,-1,21
 250 1047 250 1047 293.5 1072.5 c 128,-1,22
 337 1098 337 1098 385 1115 c 128,-1,23
 433 1132 433 1132 483 1141 c 128,-1,24
 533 1150 533 1150 579 1151 c 0,25,26
 633 1152 633 1152 684 1147 c 128,-1,27
 735 1142 735 1142 779.5 1133 c 128,-1,28
 824 1124 824 1124 861.5 1112.5 c 128,-1,29
 899 1101 899 1101 926 1089 c 1,30,-1
 926 837 l 1,31,-1
 802 837 l 1,32,-1
 752 954 l 1,33,34
 725 984 725 984 686.5 1004.5 c 128,-1,35
 648 1025 648 1025 594 1026 c 0,36,37
 561 1026 561 1026 529 1018 c 128,-1,38
 497 1010 497 1010 472.5 994 c 128,-1,39
 448 978 448 978 432.5 953.5 c 128,-1,40
 417 929 417 929 417 896 c 0,41,42
 416 854 416 854 436.5 823.5 c 128,-1,43
 457 793 457 793 494.5 766 c 128,-1,44
 532 739 532 739 586 713.5 c 128,-1,45
 640 688 640 688 707 657 c 0,46,47
 764 631 764 631 817.5 601 c 128,-1,48
 871 571 871 571 912 532.5 c 128,-1,49
 953 494 953 494 978 444 c 128,-1,50
 1003 394 1003 394 1003 328 c 0,51,52
 1003 235 1003 235 963 168.5 c 128,-1,53
 923 102 923 102 855.5 59 c 128,-1,54
 788 16 788 16 700.5 -4 c 128,-1,55
 613 -24 613 -24 519 -24 c 0,56,57
 472 -24 472 -24 422 -18.5 c 128,-1,58
 372 -13 372 -13 322.5 -2.5 c 128,-1,59
 273 8 273 8 226.5 24.5 c 128,-1,60
 180 41 180 41 141 64 c 1,61,-1
 141 312 l 1,0,-1
EndSplineSet
EndChar

StartChar: t
Encoding: 116 116 103
Width: 892
Flags: W
LayerCount: 2
Fore
SplineSet
242 310 m 0,0,1
 242 471 242 471 242.5 629.5 c 128,-1,2
 243 788 243 788 243 949 c 1,3,-1
 88 949 l 1,4,-1
 88 1048 l 1,5,6
 122 1060 122 1060 149.5 1073 c 128,-1,7
 177 1086 177 1086 200 1102 c 128,-1,8
 223 1118 223 1118 241.5 1137.5 c 128,-1,9
 260 1157 260 1157 277 1182 c 0,10,11
 292 1204 292 1204 306.5 1232.5 c 128,-1,12
 321 1261 321 1261 332.5 1289.5 c 128,-1,13
 344 1318 344 1318 352.5 1343 c 128,-1,14
 361 1368 361 1368 364 1383 c 1,15,-1
 517 1386 l 1,16,-1
 517 1124 l 1,17,-1
 850 1124 l 1,18,-1
 850 949 l 1,19,-1
 526 949 l 1,20,-1
 526 550 l 2,21,22
 526 424 526 424 530 348 c 128,-1,23
 534 272 534 272 546 231.5 c 128,-1,24
 558 191 558 191 580.5 178.5 c 128,-1,25
 603 166 603 166 641 166 c 0,26,27
 662 166 662 166 686 168 c 128,-1,28
 710 170 710 170 733.5 174.5 c 128,-1,29
 757 179 757 179 777.5 185.5 c 128,-1,30
 798 192 798 192 812 201 c 1,31,-1
 855 84 l 1,32,33
 831 59 831 59 794 39 c 128,-1,34
 757 19 757 19 711 4.5 c 128,-1,35
 665 -10 665 -10 612.5 -18 c 128,-1,36
 560 -26 560 -26 506 -26 c 0,37,38
 433 -26 433 -26 382.5 -6.5 c 128,-1,39
 332 13 332 13 301 54.5 c 128,-1,40
 270 96 270 96 256 159.5 c 128,-1,41
 242 223 242 223 242 310 c 0,0,1
EndSplineSet
EndChar

StartChar: u
Encoding: 117 117 104
Width: 1303
Flags: W
LayerCount: 2
Fore
SplineSet
165 909 m 1,0,-1
 59 962 l 1,1,-1
 59 1068 l 1,2,-1
 400 1146 l 1,3,-1
 445 1128 l 1,4,-1
 445 421 l 2,5,6
 445 347 445 347 457 296 c 128,-1,7
 469 245 469 245 493.5 214 c 128,-1,8
 518 183 518 183 555 169.5 c 128,-1,9
 592 156 592 156 642 156 c 0,10,11
 675 156 675 156 707 162.5 c 128,-1,12
 739 169 739 169 766 178 c 128,-1,13
 793 187 793 187 813.5 198 c 128,-1,14
 834 209 834 209 845 218 c 1,15,-1
 845 901 l 1,16,-1
 719 955 l 1,17,-1
 719 1069 l 1,18,-1
 1080 1146 l 1,19,-1
 1124 1129 l 1,20,-1
 1124 114 l 1,21,-1
 1241 114 l 1,22,-1
 1241 20 l 1,23,24
 1225 10 1225 10 1198 0.5 c 128,-1,25
 1171 -9 1171 -9 1138 -16 c 128,-1,26
 1105 -23 1105 -23 1068.5 -27 c 128,-1,27
 1032 -31 1032 -31 999 -31 c 0,28,29
 944 -31 944 -31 908.5 -7.5 c 128,-1,30
 873 16 873 16 873 69 c 2,31,-1
 873 120 l 1,32,33
 838 84 838 84 794.5 56.5 c 128,-1,34
 751 29 751 29 704.5 11 c 128,-1,35
 658 -7 658 -7 612 -16 c 128,-1,36
 566 -25 566 -25 526 -25 c 0,37,38
 416 -25 416 -25 346 5 c 128,-1,39
 276 35 276 35 236 97 c 128,-1,40
 196 159 196 159 180.5 254.5 c 128,-1,41
 165 350 165 350 165 481 c 2,42,-1
 165 909 l 1,0,-1
EndSplineSet
EndChar

StartChar: v
Encoding: 118 118 105
Width: 1274
Flags: W
LayerCount: 2
Fore
SplineSet
124 949 m 1,0,-1
 20 973 l 1,1,-1
 20 1119 l 1,2,-1
 541 1119 l 1,3,-1
 541 972 l 1,4,-1
 438 946 l 1,5,-1
 622 448 l 1,6,-1
 693 205 l 1,7,-1
 758 444 l 1,8,-1
 943 945 l 1,9,-1
 805 971 l 1,10,-1
 805 1119 l 1,11,-1
 1255 1119 l 1,12,-1
 1255 972 l 1,13,-1
 1143 942 l 1,14,-1
 748 -13 l 1,15,-1
 531 -13 l 1,16,-1
 124 949 l 1,0,-1
EndSplineSet
EndChar

StartChar: w
Encoding: 119 119 106
Width: 1787
Flags: W
LayerCount: 2
Fore
SplineSet
123 949 m 1,0,-1
 30 971 l 1,1,-1
 30 1119 l 1,2,-1
 512 1119 l 1,3,-1
 512 971 l 1,4,-1
 399 945 l 1,5,6
 431 828 431 828 462.5 712 c 128,-1,7
 494 596 494 596 526 479 c 1,8,-1
 549 386 l 1,9,-1
 580 237 l 1,10,-1
 615 389 l 1,11,-1
 637 486 l 1,12,-1
 816 1119 l 1,13,-1
 1023 1119 l 1,14,-1
 1215 481 l 1,15,-1
 1237 388 l 1,16,-1
 1273 207 l 1,17,-1
 1315 391 l 1,18,-1
 1442 947 l 1,19,-1
 1321 971 l 1,20,-1
 1321 1119 l 1,21,-1
 1765 1119 l 1,22,-1
 1765 972 l 1,23,-1
 1644 943 l 1,24,-1
 1360 -14 l 1,25,-1
 1115 -14 l 1,26,-1
 955 459 l 1,27,-1
 889 693 l 1,28,-1
 878 741 l 1,29,-1
 869 688 l 1,30,-1
 836 546 l 1,31,-1
 663 -14 l 1,32,-1
 432 -14 l 1,33,-1
 123 949 l 1,0,-1
EndSplineSet
EndChar

StartChar: x
Encoding: 120 120 107
Width: 1287
Flags: W
LayerCount: 2
Fore
SplineSet
38 114 m 1,0,-1
 196 142 l 1,1,-1
 512 539 l 1,2,-1
 175 949 l 1,3,-1
 41 971 l 1,4,-1
 41 1119 l 1,5,-1
 610 1119 l 1,6,-1
 610 971 l 1,7,-1
 505 949 l 1,8,-1
 575 842 l 1,9,10
 604 800 604 800 630.5 759 c 128,-1,11
 657 718 657 718 683 675 c 1,12,-1
 713 725 l 1,13,-1
 869 953 l 1,14,-1
 733 971 l 1,15,-1
 733 1119 l 1,16,-1
 1221 1119 l 1,17,-1
 1221 971 l 1,18,-1
 1076 947 l 1,19,-1
 776 580 l 1,20,-1
 1121 141 l 1,21,-1
 1253 114 l 1,22,-1
 1253 0 l 1,23,-1
 690 0 l 1,24,-1
 690 114 l 1,25,-1
 792 140 l 1,26,-1
 684 297 l 1,27,-1
 646 352 l 1,28,-1
 598 425 l 1,29,-1
 575 377 l 1,30,-1
 422 144 l 1,31,-1
 583 114 l 1,32,-1
 583 0 l 1,33,-1
 38 0 l 1,34,-1
 38 114 l 1,0,-1
EndSplineSet
EndChar

StartChar: y
Encoding: 121 121 108
Width: 1243
Flags: W
LayerCount: 2
Fore
SplineSet
158 -298 m 1,0,1
 180 -303 180 -303 210.5 -308 c 128,-1,2
 241 -313 241 -313 277 -312 c 0,3,4
 305 -312 305 -312 341.5 -301 c 128,-1,5
 378 -290 378 -290 415 -256.5 c 128,-1,6
 452 -223 452 -223 487 -162 c 128,-1,7
 522 -101 522 -101 548 0 c 1,8,-1
 499 0 l 1,9,-1
 98 949 l 1,10,-1
 4 971 l 1,11,-1
 4 1119 l 1,12,-1
 521 1119 l 1,13,-1
 521 971 l 1,14,-1
 409 948 l 1,15,-1
 618 351 l 1,16,-1
 657 200 l 1,17,-1
 700 350 l 1,18,-1
 893 951 l 1,19,-1
 753 971 l 1,20,-1
 753 1119 l 1,21,-1
 1221 1119 l 1,22,-1
 1221 971 l 1,23,-1
 1116 951 l 1,24,25
 1044 761 1044 761 989.5 618 c 128,-1,26
 935 475 935 475 894.5 370.5 c 128,-1,27
 854 266 854 266 825.5 195 c 128,-1,28
 797 124 797 124 777.5 76.5 c 128,-1,29
 758 29 758 29 746 0.5 c 128,-1,30
 734 -28 734 -28 727 -48 c 0,31,32
 685 -158 685 -158 644 -243.5 c 128,-1,33
 603 -329 603 -329 555.5 -388.5 c 128,-1,34
 508 -448 508 -448 451 -482 c 128,-1,35
 394 -516 394 -516 320 -522 c 1,36,37
 278 -527 278 -527 230 -525 c 0,38,39
 209 -524 209 -524 187.5 -520.5 c 128,-1,40
 166 -517 166 -517 157 -511 c 1,41,-1
 158 -298 l 1,42,-1
 158 -298 l 1,0,1
EndSplineSet
EndChar

StartChar: z
Encoding: 122 122 109
Width: 1132
Flags: W
LayerCount: 2
Fore
SplineSet
81 81 m 1,0,-1
 140 189 l 1,1,-1
 627 899 l 1,2,-1
 711 992 l 1,3,-1
 332 971 l 1,4,-1
 268 780 l 1,5,-1
 124 780 l 1,6,-1
 124 1119 l 1,7,-1
 1020 1119 l 1,8,-1
 1051 1038 l 1,9,-1
 989 928 l 1,10,-1
 555 271 l 1,11,-1
 442 128 l 1,12,-1
 859 162 l 1,13,-1
 921 326 l 1,14,-1
 1071 326 l 1,15,-1
 1055 0 l 1,16,-1
 114 0 l 1,17,-1
 81 81 l 1,0,-1
EndSplineSet
EndChar

StartChar: asciitilde
Encoding: 126 126 110
Width: 1291
Flags: W
LayerCount: 2
Fore
SplineSet
169 843 m 1,0,1
 177 865 177 865 194.5 890.5 c 128,-1,2
 212 916 212 916 236 942 c 128,-1,3
 260 968 260 968 290 992 c 128,-1,4
 320 1016 320 1016 353.5 1035 c 128,-1,5
 387 1054 387 1054 423.5 1065 c 128,-1,6
 460 1076 460 1076 497 1076 c 0,7,8
 539 1076 539 1076 571 1066 c 128,-1,9
 603 1056 603 1056 629 1040.5 c 128,-1,10
 655 1025 655 1025 678 1007.5 c 128,-1,11
 701 990 701 990 724.5 974.5 c 128,-1,12
 748 959 748 959 774 949 c 128,-1,13
 800 939 800 939 833 939 c 0,14,15
 863 939 863 939 891.5 949.5 c 128,-1,16
 920 960 920 960 945 975 c 128,-1,17
 970 990 970 990 991.5 1007.5 c 128,-1,18
 1013 1025 1013 1025 1029 1040 c 1,19,-1
 1118 940 l 1,20,21
 1106 905 1106 905 1075 864 c 128,-1,22
 1044 823 1044 823 1000.5 788 c 128,-1,23
 957 753 957 753 903 729 c 128,-1,24
 849 705 849 705 792 705 c 0,25,26
 750 705 750 705 719 715.5 c 128,-1,27
 688 726 688 726 662 741 c 128,-1,28
 636 756 636 756 613.5 774.5 c 128,-1,29
 591 793 591 793 567 808 c 128,-1,30
 543 823 543 823 515.5 833.5 c 128,-1,31
 488 844 488 844 453 844 c 0,32,33
 422 844 422 844 394 833.5 c 128,-1,34
 366 823 366 823 341 808 c 128,-1,35
 316 793 316 793 295 775.5 c 128,-1,36
 274 758 274 758 258 743 c 1,37,-1
 169 843 l 1,0,1
EndSplineSet
EndChar

StartChar: asciicircum
Encoding: 94 94 111
Width: 1281
Flags: W
LayerCount: 2
Fore
SplineSet
502 1531 m 1,0,-1
 782 1531 l 1,1,-1
 1170 564 l 1,2,3
 1106 564 1106 564 1041.5 563.5 c 128,-1,4
 977 563 977 563 913 563 c 1,5,-1
 626 1265 l 1,6,-1
 333 563 l 1,7,8
 276 563 276 563 220.5 563.5 c 128,-1,9
 165 564 165 564 108 564 c 1,10,-1
 502 1531 l 1,0,-1
EndSplineSet
EndChar

StartChar: cent
Encoding: 162 162 112
Width: 1077
Flags: W
LayerCount: 2
Fore
SplineSet
475 -15 m 1,0,1
 377 3 377 3 301.5 50.5 c 128,-1,2
 226 98 226 98 174 169.5 c 128,-1,3
 122 241 122 241 95.5 333 c 128,-1,4
 69 425 69 425 68 531 c 0,5,6
 67 660 67 660 106.5 765.5 c 128,-1,7
 146 871 146 871 215.5 948.5 c 128,-1,8
 285 1026 285 1026 379 1075 c 128,-1,9
 473 1124 473 1124 582 1141 c 1,10,-1
 595 1362 l 1,11,-1
 758 1362 l 1,12,-1
 746 1149 l 1,13,14
 785 1147 785 1147 822.5 1143 c 128,-1,15
 860 1139 860 1139 893 1132.5 c 128,-1,16
 926 1126 926 1126 953 1117.5 c 128,-1,17
 980 1109 980 1109 997 1099 c 1,18,-1
 997 815 l 1,19,-1
 852 815 l 1,20,-1
 785 976 l 1,21,22
 755 997 755 997 717.5 1004 c 128,-1,23
 680 1011 680 1011 646 1011 c 0,24,25
 588 1011 588 1011 536.5 986 c 128,-1,26
 485 961 485 961 445.5 912 c 128,-1,27
 406 863 406 863 382.5 791 c 128,-1,28
 359 719 359 719 357 625 c 0,29,30
 354 497 354 497 385 406.5 c 128,-1,31
 416 316 416 316 467 257.5 c 128,-1,32
 518 199 518 199 583 172 c 128,-1,33
 648 145 648 145 713 145 c 0,34,35
 804 145 804 145 871.5 164 c 128,-1,36
 939 183 939 183 982 213 c 1,37,-1
 1027 101 l 1,38,39
 961 43 961 43 861.5 12 c 128,-1,40
 762 -19 762 -19 638 -24 c 1,41,-1
 628 -217 l 1,42,-1
 463 -217 l 1,43,-1
 475 -15 l 1,44,-1
 475 -15 l 1,0,1
EndSplineSet
EndChar

StartChar: sterling
Encoding: 163 163 113
Width: 1462
Flags: W
LayerCount: 2
Fore
SplineSet
35 67 m 0,0,1
 35 95 35 95 55 124.5 c 128,-1,2
 75 154 75 154 114.5 177.5 c 128,-1,3
 154 201 154 201 212 215.5 c 128,-1,4
 270 230 270 230 346 229 c 1,5,6
 364 271 364 271 370.5 328.5 c 128,-1,7
 377 386 377 386 377 461 c 2,8,-1
 377 710 l 1,9,-1
 210 710 l 1,10,-1
 210 881 l 1,11,-1
 377 881 l 1,12,-1
 377 938 l 2,13,14
 377 1056 377 1056 414.5 1167.5 c 128,-1,15
 452 1279 452 1279 524.5 1364.5 c 128,-1,16
 597 1450 597 1450 702 1500 c 128,-1,17
 807 1550 807 1550 942 1546 c 1,18,19
 1048 1541 1048 1541 1114.5 1513.5 c 128,-1,20
 1181 1486 1181 1486 1221 1451 c 1,21,-1
 1090 1210 l 1,22,23
 1084 1224 1084 1224 1062 1255 c 128,-1,24
 1040 1286 1040 1286 1004 1318 c 128,-1,25
 968 1350 968 1350 920 1374.5 c 128,-1,26
 872 1399 872 1399 816 1399 c 0,27,28
 778 1399 778 1399 749.5 1379 c 128,-1,29
 721 1359 721 1359 701.5 1310.5 c 128,-1,30
 682 1262 682 1262 672 1179 c 128,-1,31
 662 1096 662 1096 662 970 c 2,32,-1
 662 881 l 1,33,-1
 945 881 l 1,34,-1
 945 710 l 1,35,-1
 663 710 l 1,36,-1
 663 661 l 2,37,38
 663 573 663 573 657 506 c 128,-1,39
 651 439 651 439 636.5 385.5 c 128,-1,40
 622 332 622 332 599.5 287 c 128,-1,41
 577 242 577 242 544 197 c 1,42,43
 581 194 581 194 614.5 183 c 128,-1,44
 648 172 648 172 684.5 160 c 128,-1,45
 721 148 721 148 762 136.5 c 128,-1,46
 803 125 803 125 855 120 c 1,47,48
 924 112 924 112 975 125 c 128,-1,49
 1026 138 1026 138 1059.5 164 c 128,-1,50
 1093 190 1093 190 1109.5 224 c 128,-1,51
 1126 258 1126 258 1126 293 c 0,52,53
 1126 316 1126 316 1118 337.5 c 128,-1,54
 1110 359 1110 359 1097 377.5 c 128,-1,55
 1084 396 1084 396 1069 410.5 c 128,-1,56
 1054 425 1054 425 1040 434 c 1,57,-1
 1157 662 l 1,58,59
 1202 650 1202 650 1241 623 c 128,-1,60
 1280 596 1280 596 1309 557 c 128,-1,61
 1338 518 1338 518 1356 470 c 128,-1,62
 1374 422 1374 422 1377 368 c 0,63,64
 1379 335 1379 335 1374 293 c 128,-1,65
 1369 251 1369 251 1352.5 207 c 128,-1,66
 1336 163 1336 163 1306 120.5 c 128,-1,67
 1276 78 1276 78 1228.5 44 c 128,-1,68
 1181 10 1181 10 1113.5 -12 c 128,-1,69
 1046 -34 1046 -34 954 -37 c 0,70,71
 859 -40 859 -40 770 -24 c 1,72,73
 702 -13 702 -13 650.5 7 c 128,-1,74
 599 27 599 27 557.5 46 c 128,-1,75
 516 65 516 65 483 77.5 c 128,-1,76
 450 90 450 90 420 87 c 1,77,78
 379 39 379 39 317.5 5.5 c 128,-1,79
 256 -28 256 -28 176 -30 c 0,80,81
 150 -31 150 -31 124.5 -26 c 128,-1,82
 99 -21 99 -21 79 -9.5 c 128,-1,83
 59 2 59 2 47 21 c 128,-1,84
 35 40 35 40 35 67 c 0,0,1
EndSplineSet
EndChar

StartChar: currency
Encoding: 164 164 114
Width: 1461
Flags: W
LayerCount: 2
Fore
SplineSet
378 466 m 1,0,1
 346 514 346 514 329 570 c 128,-1,2
 312 626 312 626 312 689 c 256,3,4
 312 752 312 752 329.5 808.5 c 128,-1,5
 347 865 347 865 379 913 c 1,6,-1
 181 1113 l 1,7,-1
 307 1241 l 1,8,-1
 508 1037 l 1,9,10
 555 1066 555 1066 608 1081 c 128,-1,11
 661 1096 661 1096 720 1096 c 0,12,13
 781 1096 781 1096 837 1079 c 128,-1,14
 893 1062 893 1062 941 1032 c 1,15,-1
 1155 1242 l 1,16,-1
 1282 1113 l 1,17,-1
 1069 903 l 1,18,19
 1098 856 1098 856 1114 802 c 128,-1,20
 1130 748 1130 748 1130 689 c 0,21,22
 1130 629 1130 629 1113.5 574.5 c 128,-1,23
 1097 520 1097 520 1067 472 c 1,24,-1
 1268 270 l 1,25,-1
 1141 143 l 1,26,-1
 939 345 l 1,27,28
 891 315 891 315 835.5 299 c 128,-1,29
 780 283 780 283 720 283 c 0,30,31
 661 283 661 283 608 298 c 128,-1,32
 555 313 555 313 508 341 c 1,33,-1
 307 140 l 1,34,-1
 179 266 l 1,35,-1
 378 466 l 1,0,1
515 689 m 256,36,37
 515 646 515 646 531.5 607.5 c 128,-1,38
 548 569 548 569 576 539.5 c 128,-1,39
 604 510 604 510 641.5 492.5 c 128,-1,40
 679 475 679 475 722 475 c 0,41,42
 764 475 764 475 801.5 492.5 c 128,-1,43
 839 510 839 510 866.5 539.5 c 128,-1,44
 894 569 894 569 910 607.5 c 128,-1,45
 926 646 926 646 926 689 c 256,46,47
 926 732 926 732 910 770.5 c 128,-1,48
 894 809 894 809 866.5 838.5 c 128,-1,49
 839 868 839 868 801.5 885.5 c 128,-1,50
 764 903 764 903 722 903 c 0,51,52
 679 903 679 903 641.5 885.5 c 128,-1,53
 604 868 604 868 576 838.5 c 128,-1,54
 548 809 548 809 531.5 770.5 c 128,-1,55
 515 732 515 732 515 689 c 256,36,37
EndSplineSet
EndChar

StartChar: yen
Encoding: 165 165 115
Width: 1370
Flags: W
LayerCount: 2
Fore
SplineSet
341 117 m 1,0,-1
 561 155 l 1,1,-1
 561 350 l 1,2,-1
 173 350 l 1,3,-1
 173 511 l 1,4,-1
 561 511 l 1,5,-1
 561 697 l 1,6,-1
 553 709 l 1,7,-1
 173 709 l 1,8,-1
 173 871 l 1,9,-1
 451 871 l 1,10,-1
 133 1375 l 1,11,-1
 8 1395 l 1,12,-1
 8 1531 l 1,13,-1
 584 1531 l 1,14,-1
 584 1397 l 1,15,-1
 463 1378 l 1,16,-1
 676 997 l 1,17,-1
 730 871 l 1,18,-1
 750 871 l 1,19,-1
 813 1005 l 1,20,21
 861 1098 861 1098 908.5 1190 c 128,-1,22
 956 1282 956 1282 1005 1375 c 1,23,-1
 857 1395 l 1,24,-1
 857 1531 l 1,25,-1
 1374 1531 l 1,26,-1
 1374 1395 l 1,27,-1
 1231 1359 l 1,28,-1
 940 871 l 1,29,-1
 1238 871 l 1,30,-1
 1238 709 l 1,31,-1
 849 709 l 1,32,-1
 849 511 l 1,33,-1
 1238 511 l 1,34,-1
 1238 350 l 1,35,-1
 849 350 l 1,36,-1
 849 157 l 1,37,-1
 1084 117 l 1,38,-1
 1084 0 l 1,39,-1
 341 0 l 1,40,-1
 341 117 l 1,0,-1
EndSplineSet
EndChar

StartChar: dollar
Encoding: 36 36 116
Width: 1198
Flags: W
LayerCount: 2
Fore
SplineSet
116 432 m 1,0,-1
 233 432 l 1,1,-1
 313 230 l 1,2,3
 343 194 343 194 376 172 c 128,-1,4
 409 150 409 150 445 138.5 c 128,-1,5
 481 127 481 127 520 123 c 128,-1,6
 559 119 559 119 600 119 c 0,7,8
 644 119 644 119 689 130.5 c 128,-1,9
 734 142 734 142 770 166 c 128,-1,10
 806 190 806 190 829 227.5 c 128,-1,11
 852 265 852 265 852 317 c 0,12,13
 852 375 852 375 821 425 c 128,-1,14
 790 475 790 475 739 520 c 128,-1,15
 688 565 688 565 623 607.5 c 128,-1,16
 558 650 558 650 490 694.5 c 128,-1,17
 422 739 422 739 357 786 c 128,-1,18
 292 833 292 833 241 888 c 128,-1,19
 190 943 190 943 159 1006.5 c 128,-1,20
 128 1070 128 1070 128 1147 c 0,21,22
 128 1241 128 1241 168.5 1312 c 128,-1,23
 209 1383 209 1383 273.5 1432 c 128,-1,24
 338 1481 338 1481 417.5 1508.5 c 128,-1,25
 497 1536 497 1536 575 1544 c 1,26,-1
 581 1754 l 1,27,-1
 777 1754 l 1,28,-1
 770 1541 l 1,29,30
 866 1532 866 1532 939 1514 c 128,-1,31
 1012 1496 1012 1496 1050 1475 c 1,32,-1
 1050 1167 l 1,33,-1
 927 1167 l 1,34,-1
 839 1359 l 1,35,36
 831 1368 831 1368 812.5 1377.5 c 128,-1,37
 794 1387 794 1387 768 1394.5 c 128,-1,38
 742 1402 742 1402 710 1406.5 c 128,-1,39
 678 1411 678 1411 643 1411 c 0,40,41
 603 1411 603 1411 561 1402 c 128,-1,42
 519 1393 519 1393 484 1370 c 128,-1,43
 449 1347 449 1347 426 1306.5 c 128,-1,44
 403 1266 403 1266 403 1203 c 0,45,46
 403 1148 403 1148 434 1102 c 128,-1,47
 465 1056 465 1056 515.5 1013.5 c 128,-1,48
 566 971 566 971 631 931 c 128,-1,49
 696 891 696 891 763.5 849 c 128,-1,50
 831 807 831 807 896 761.5 c 128,-1,51
 961 716 961 716 1011.5 662.5 c 128,-1,52
 1062 609 1062 609 1093 546 c 128,-1,53
 1124 483 1124 483 1124 406 c 0,54,55
 1124 304 1124 304 1089.5 229 c 128,-1,56
 1055 154 1055 154 996 102.5 c 128,-1,57
 937 51 937 51 857.5 22 c 128,-1,58
 778 -7 778 -7 688 -17 c 1,59,-1
 681 -231 l 1,60,-1
 485 -231 l 1,61,-1
 492 -20 l 1,62,63
 433 -16 433 -16 376.5 -8 c 128,-1,64
 320 0 320 0 270.5 11 c 128,-1,65
 221 22 221 22 181.5 35 c 128,-1,66
 142 48 142 48 116 63 c 1,67,-1
 116 432 l 1,0,-1
EndSplineSet
EndChar

StartChar: acute
Encoding: 180 180 117
Width: 862
Flags: W
LayerCount: 2
Fore
SplineSet
366 1412 m 1,0,-1
 685 1834 l 1,1,-1
 894 1658 l 1,2,3
 860 1607 860 1607 805 1558 c 128,-1,4
 750 1509 750 1509 687 1466.5 c 128,-1,5
 624 1424 624 1424 559 1390.5 c 128,-1,6
 494 1357 494 1357 440 1338 c 1,7,-1
 366 1412 l 1,0,-1
EndSplineSet
EndChar

StartChar: grave
Encoding: 96 96 118
Width: 774
Flags: W
LayerCount: 2
Fore
SplineSet
614 1338 m 1,0,1
 562 1345 562 1345 497.5 1377 c 128,-1,2
 433 1409 433 1409 369.5 1454.5 c 128,-1,3
 306 1500 306 1500 250 1554 c 128,-1,4
 194 1608 194 1608 160 1659 c 1,5,-1
 368 1834 l 1,6,-1
 687 1412 l 1,7,-1
 614 1338 l 1,8,-1
 614 1338 l 1,0,1
EndSplineSet
EndChar

StartChar: dieresis
Encoding: 168 168 119
Width: 1016
Flags: W
LayerCount: 2
Fore
SplineSet
712 1324 m 0,0,1
 681 1324 681 1324 652.5 1334.5 c 128,-1,2
 624 1345 624 1345 601.5 1365 c 128,-1,3
 579 1385 579 1385 565.5 1414 c 128,-1,4
 552 1443 552 1443 552 1481 c 0,5,6
 552 1521 552 1521 568 1554.5 c 128,-1,7
 584 1588 584 1588 610.5 1612.5 c 128,-1,8
 637 1637 637 1637 670 1650.5 c 128,-1,9
 703 1664 703 1664 737 1664 c 0,10,11
 780 1664 780 1664 810 1652 c 128,-1,12
 840 1640 840 1640 859.5 1619 c 128,-1,13
 879 1598 879 1598 888 1569.5 c 128,-1,14
 897 1541 897 1541 897 1508 c 0,15,16
 897 1466 897 1466 881.5 1432 c 128,-1,17
 866 1398 866 1398 840 1374 c 128,-1,18
 814 1350 814 1350 781 1337 c 128,-1,19
 748 1324 748 1324 712 1324 c 0,0,1
235 1324 m 0,20,21
 203 1324 203 1324 174.5 1334.5 c 128,-1,22
 146 1345 146 1345 124.5 1364.5 c 128,-1,23
 103 1384 103 1384 90 1413 c 128,-1,24
 77 1442 77 1442 77 1479 c 0,25,26
 77 1519 77 1519 93 1553 c 128,-1,27
 109 1587 109 1587 135 1611.5 c 128,-1,28
 161 1636 161 1636 194 1650 c 128,-1,29
 227 1664 227 1664 261 1664 c 0,30,31
 304 1664 304 1664 334.5 1652 c 128,-1,32
 365 1640 365 1640 385 1618.5 c 128,-1,33
 405 1597 405 1597 414.5 1568.5 c 128,-1,34
 424 1540 424 1540 424 1507 c 0,35,36
 424 1465 424 1465 408 1431 c 128,-1,37
 392 1397 392 1397 366 1373.5 c 128,-1,38
 340 1350 340 1350 305.5 1337 c 128,-1,39
 271 1324 271 1324 235 1324 c 0,20,21
EndSplineSet
EndChar

StartChar: circumflex
Encoding: 710 710 120
Width: 1372
Flags: W
LayerCount: 2
Fore
SplineSet
308 1397 m 1,0,-1
 557 1775 l 1,1,-1
 805 1775 l 1,2,-1
 1057 1398 l 1,3,-1
 937 1336 l 1,4,-1
 680 1583 l 1,5,-1
 416 1335 l 1,6,-1
 308 1397 l 1,0,-1
EndSplineSet
EndChar

StartChar: caron
Encoding: 711 711 121
Width: 1170
Flags: W
LayerCount: 2
Fore
SplineSet
194 1712 m 1,0,-1
 316 1774 l 1,1,-1
 583 1524 l 1,2,-1
 842 1775 l 1,3,-1
 952 1715 l 1,4,-1
 698 1334 l 1,5,-1
 458 1334 l 1,6,-1
 194 1712 l 1,0,-1
EndSplineSet
EndChar

StartChar: breve
Encoding: 728 728 122
Width: 1373
Flags: W
LayerCount: 2
Fore
SplineSet
681 1243 m 0,0,1
 595 1243 595 1243 528.5 1274.5 c 128,-1,2
 462 1306 462 1306 416.5 1356.5 c 128,-1,3
 371 1407 371 1407 347.5 1469 c 128,-1,4
 324 1531 324 1531 324 1592 c 1,5,-1
 485 1592 l 1,6,7
 489 1581 489 1581 498.5 1553 c 128,-1,8
 508 1525 508 1525 529.5 1495.5 c 128,-1,9
 551 1466 551 1466 587.5 1443 c 128,-1,10
 624 1420 624 1420 682 1420 c 0,11,12
 739 1420 739 1420 775.5 1443 c 128,-1,13
 812 1466 812 1466 833.5 1495.5 c 128,-1,14
 855 1525 855 1525 865.5 1553.5 c 128,-1,15
 876 1582 876 1582 881 1593 c 1,16,-1
 1038 1593 l 1,17,18
 1038 1532 1038 1532 1013 1469.5 c 128,-1,19
 988 1407 988 1407 941.5 1357 c 128,-1,20
 895 1307 895 1307 829 1275 c 128,-1,21
 763 1243 763 1243 681 1243 c 0,0,1
EndSplineSet
EndChar

StartChar: dotaccent
Encoding: 729 729 123
Width: 609
Flags: W
LayerCount: 2
Fore
SplineSet
286 1328 m 0,0,1
 254 1328 254 1328 225 1338.5 c 128,-1,2
 196 1349 196 1349 173.5 1369 c 128,-1,3
 151 1389 151 1389 138 1418 c 128,-1,4
 125 1447 125 1447 125 1485 c 0,5,6
 125 1525 125 1525 141.5 1559 c 128,-1,7
 158 1593 158 1593 184.5 1617.5 c 128,-1,8
 211 1642 211 1642 244 1655.5 c 128,-1,9
 277 1669 277 1669 311 1669 c 0,10,11
 354 1669 354 1669 385 1657 c 128,-1,12
 416 1645 416 1645 436 1623.5 c 128,-1,13
 456 1602 456 1602 466 1573 c 128,-1,14
 476 1544 476 1544 476 1510 c 0,15,16
 476 1468 476 1468 460 1434.5 c 128,-1,17
 444 1401 444 1401 417 1377 c 128,-1,18
 390 1353 390 1353 356 1340.5 c 128,-1,19
 322 1328 322 1328 286 1328 c 0,0,1
EndSplineSet
EndChar

StartChar: ring
Encoding: 730 730 124
Width: 609
Flags: W
LayerCount: 2
Fore
SplineSet
305 1300 m 256,0,1
 248 1300 248 1300 198 1320.5 c 128,-1,2
 148 1341 148 1341 110.5 1376.5 c 128,-1,3
 73 1412 73 1412 51 1459 c 128,-1,4
 29 1506 29 1506 29 1560 c 256,5,6
 29 1614 29 1614 51 1661.5 c 128,-1,7
 73 1709 73 1709 110.5 1744.5 c 128,-1,8
 148 1780 148 1780 198 1800.5 c 128,-1,9
 248 1821 248 1821 305 1821 c 256,10,11
 362 1821 362 1821 412 1800 c 128,-1,12
 462 1779 462 1779 499.5 1743.5 c 128,-1,13
 537 1708 537 1708 559 1660.5 c 128,-1,14
 581 1613 581 1613 581 1560 c 0,15,16
 581 1506 581 1506 559 1459 c 128,-1,17
 537 1412 537 1412 499.5 1376.5 c 128,-1,18
 462 1341 462 1341 412 1320.5 c 128,-1,19
 362 1300 362 1300 305 1300 c 256,0,1
305 1427 m 0,20,21
 333 1427 333 1427 357 1437 c 128,-1,22
 381 1447 381 1447 399 1465 c 128,-1,23
 417 1483 417 1483 427 1507 c 128,-1,24
 437 1531 437 1531 437 1560 c 0,25,26
 437 1587 437 1587 427 1611 c 128,-1,27
 417 1635 417 1635 399 1653.5 c 128,-1,28
 381 1672 381 1672 357 1682.5 c 128,-1,29
 333 1693 333 1693 305 1693 c 0,30,31
 276 1693 276 1693 251.5 1682.5 c 128,-1,32
 227 1672 227 1672 209.5 1654 c 128,-1,33
 192 1636 192 1636 182 1612 c 128,-1,34
 172 1588 172 1588 172 1560 c 0,35,36
 172 1531 172 1531 182 1507 c 128,-1,37
 192 1483 192 1483 209.5 1465 c 128,-1,38
 227 1447 227 1447 251.5 1437 c 128,-1,39
 276 1427 276 1427 305 1427 c 0,20,21
EndSplineSet
EndChar

StartChar: ogonek
Encoding: 731 731 125
Width: 743
Flags: W
LayerCount: 2
Fore
SplineSet
366 8 m 1,0,-1
 523 4 l 1,1,2
 472 -14 472 -14 423 -42.5 c 128,-1,3
 374 -71 374 -71 335 -103 c 128,-1,4
 296 -135 296 -135 271 -167.5 c 128,-1,5
 246 -200 246 -200 242 -225 c 1,6,7
 235 -255 235 -255 237.5 -274.5 c 128,-1,8
 240 -294 240 -294 249.5 -306 c 128,-1,9
 259 -318 259 -318 273 -323.5 c 128,-1,10
 287 -329 287 -329 302 -332 c 0,11,12
 318 -335 318 -335 337 -334 c 128,-1,13
 356 -333 356 -333 377 -330 c 0,14,15
 395 -327 395 -327 413.5 -321.5 c 128,-1,16
 432 -316 432 -316 449 -311 c 128,-1,17
 466 -306 466 -306 479.5 -301 c 128,-1,18
 493 -296 493 -296 500 -293 c 1,19,-1
 529 -407 l 1,20,21
 512 -421 512 -421 486.5 -437 c 128,-1,22
 461 -453 461 -453 426 -468 c 128,-1,23
 391 -483 391 -483 346.5 -494.5 c 128,-1,24
 302 -506 302 -506 248 -511 c 0,25,26
 223 -513 223 -513 198.5 -512.5 c 128,-1,27
 174 -512 174 -512 148 -510 c 0,28,29
 101 -505 101 -505 68 -488 c 128,-1,30
 35 -471 35 -471 15 -447 c 128,-1,31
 -5 -423 -5 -423 -14.5 -395 c 128,-1,32
 -24 -367 -24 -367 -25 -339 c 0,33,34
 -26 -300 -26 -300 -1.5 -251 c 128,-1,35
 23 -202 23 -202 68.5 -153.5 c 128,-1,36
 114 -105 114 -105 178 -61.5 c 128,-1,37
 242 -18 242 -18 319 10 c 1,38,-1
 366 8 l 1,0,-1
EndSplineSet
EndChar

StartChar: tilde
Encoding: 732 732 126
Width: 998
Flags: W
LayerCount: 2
Fore
SplineSet
88 1488 m 1,0,1
 106 1528 106 1528 140.5 1563.5 c 128,-1,2
 175 1599 175 1599 216.5 1625.5 c 128,-1,3
 258 1652 258 1652 302 1667 c 128,-1,4
 346 1682 346 1682 383 1682 c 0,5,6
 435 1682 435 1682 472.5 1664 c 128,-1,7
 510 1646 510 1646 541 1624.5 c 128,-1,8
 572 1603 572 1603 600 1585 c 128,-1,9
 628 1567 628 1567 662 1567 c 0,10,11
 689 1567 689 1567 713.5 1574.5 c 128,-1,12
 738 1582 738 1582 760 1594 c 128,-1,13
 782 1606 782 1606 801 1620.5 c 128,-1,14
 820 1635 820 1635 836 1649 c 1,15,-1
 897 1566 l 1,16,17
 879 1526 879 1526 845.5 1490.5 c 128,-1,18
 812 1455 812 1455 771 1428 c 128,-1,19
 730 1401 730 1401 686.5 1385.5 c 128,-1,20
 643 1370 643 1370 606 1370 c 0,21,22
 571 1370 571 1370 543 1378.5 c 128,-1,23
 515 1387 515 1387 491.5 1400 c 128,-1,24
 468 1413 468 1413 447 1428.5 c 128,-1,25
 426 1444 426 1444 406.5 1457 c 128,-1,26
 387 1470 387 1470 366.5 1478.5 c 128,-1,27
 346 1487 346 1487 323 1487 c 0,28,29
 298 1487 298 1487 274 1479.5 c 128,-1,30
 250 1472 250 1472 227.5 1460.5 c 128,-1,31
 205 1449 205 1449 185 1434.5 c 128,-1,32
 165 1420 165 1420 148 1406 c 1,33,-1
 88 1488 l 1,0,1
EndSplineSet
EndChar

StartChar: hungarumlaut
Encoding: 733 733 127
Width: 949
Flags: W
LayerCount: 2
Fore
SplineSet
611 1409 m 1,0,-1
 913 1825 l 1,1,-1
 1099 1680 l 1,2,3
 1078 1653 1078 1653 1049.5 1620 c 128,-1,4
 1021 1587 1021 1587 987.5 1552.5 c 128,-1,5
 954 1518 954 1518 917.5 1484 c 128,-1,6
 881 1450 881 1450 845 1420 c 128,-1,7
 809 1390 809 1390 775 1366.5 c 128,-1,8
 741 1343 741 1343 712 1330 c 1,9,-1
 611 1409 l 1,0,-1
73 1409 m 1,10,-1
 378 1825 l 1,11,-1
 559 1680 l 1,12,13
 529 1639 529 1639 481.5 1588 c 128,-1,14
 434 1537 434 1537 381 1487 c 128,-1,15
 328 1437 328 1437 274.5 1395 c 128,-1,16
 221 1353 221 1353 178 1330 c 1,17,-1
 73 1409 l 1,10,-1
EndSplineSet
EndChar

StartChar: cedilla
Encoding: 184 184 128
Width: 649
Flags: W
LayerCount: 2
Fore
SplineSet
310 6 m 1,0,1
 306 -19 306 -19 307.5 -58 c 128,-1,2
 309 -97 309 -97 312 -128 c 1,3,4
 378 -132 378 -132 422 -152.5 c 128,-1,5
 466 -173 466 -173 492.5 -202 c 128,-1,6
 519 -231 519 -231 530 -264 c 128,-1,7
 541 -297 541 -297 541 -324 c 0,8,9
 541 -374 541 -374 522.5 -411 c 128,-1,10
 504 -448 504 -448 470 -473.5 c 128,-1,11
 436 -499 436 -499 389 -512.5 c 128,-1,12
 342 -526 342 -526 285 -529 c 0,13,14
 240 -531 240 -531 203 -529 c 128,-1,15
 166 -527 166 -527 137 -522.5 c 128,-1,16
 108 -518 108 -518 86 -512.5 c 128,-1,17
 64 -507 64 -507 48 -503 c 1,18,19
 48 -471 48 -471 48.5 -439 c 128,-1,20
 49 -407 49 -407 49 -375 c 1,21,22
 61 -378 61 -378 78 -380.5 c 128,-1,23
 95 -383 95 -383 113 -385 c 128,-1,24
 131 -387 131 -387 146 -388 c 128,-1,25
 161 -389 161 -389 169 -389 c 0,26,27
 220 -389 220 -389 242 -371 c 128,-1,28
 264 -353 264 -353 264 -302 c 0,29,30
 264 -291 264 -291 259.5 -279.5 c 128,-1,31
 255 -268 255 -268 242.5 -258 c 128,-1,32
 230 -248 230 -248 207.5 -241.5 c 128,-1,33
 185 -235 185 -235 149 -234 c 0,34,35
 143 -234 143 -234 134 -234.5 c 128,-1,36
 125 -235 125 -235 117 -235.5 c 128,-1,37
 109 -236 109 -236 102 -237 c 128,-1,38
 95 -238 95 -238 94 -238 c 1,39,40
 94 -214 94 -214 98 -180.5 c 128,-1,41
 102 -147 102 -147 108 -112.5 c 128,-1,42
 114 -78 114 -78 122 -46.5 c 128,-1,43
 130 -15 130 -15 139 6 c 1,44,-1
 310 6 l 1,0,1
EndSplineSet
EndChar

StartChar: ordfeminine
Encoding: 170 170 129
Width: 1097
Flags: W
LayerCount: 2
Fore
SplineSet
393 683 m 0,0,1
 350 683 350 683 304.5 698 c 128,-1,2
 259 713 259 713 221 744 c 128,-1,3
 183 775 183 775 158.5 821 c 128,-1,4
 134 867 134 867 134 930 c 0,5,6
 134 990 134 990 162.5 1035 c 128,-1,7
 191 1080 191 1080 237.5 1112.5 c 128,-1,8
 284 1145 284 1145 342 1165.5 c 128,-1,9
 400 1186 400 1186 459 1198.5 c 128,-1,10
 518 1211 518 1211 572.5 1215.5 c 128,-1,11
 627 1220 627 1220 666 1220 c 1,12,-1
 666 1241 l 2,13,14
 666 1291 666 1291 652 1320.5 c 128,-1,15
 638 1350 638 1350 612 1365 c 128,-1,16
 586 1380 586 1380 550 1384.5 c 128,-1,17
 514 1389 514 1389 471 1389 c 0,18,19
 434 1389 434 1389 398.5 1384.5 c 128,-1,20
 363 1380 363 1380 331.5 1372.5 c 128,-1,21
 300 1365 300 1365 274.5 1354.5 c 128,-1,22
 249 1344 249 1344 234 1333 c 1,23,-1
 188 1456 l 1,24,25
 206 1469 206 1469 242.5 1484 c 128,-1,26
 279 1499 279 1499 328.5 1512 c 128,-1,27
 378 1525 378 1525 436.5 1533 c 128,-1,28
 495 1541 495 1541 556 1541 c 0,29,30
 628 1541 628 1541 694 1531.5 c 128,-1,31
 760 1522 760 1522 810.5 1490.5 c 128,-1,32
 861 1459 861 1459 890.5 1400.5 c 128,-1,33
 920 1342 920 1342 920 1245 c 2,34,-1
 918 815 l 1,35,-1
 1003 815 l 1,36,-1
 1003 721 l 1,37,38
 985 716 985 716 958.5 709 c 128,-1,39
 932 702 932 702 902 695.5 c 128,-1,40
 872 689 872 689 841.5 684.5 c 128,-1,41
 811 680 811 680 784 680 c 0,42,43
 763 680 763 680 745 683 c 128,-1,44
 727 686 727 686 712.5 695.5 c 128,-1,45
 698 705 698 705 688.5 723 c 128,-1,46
 679 741 679 741 675 770 c 1,47,48
 657 754 657 754 630.5 738.5 c 128,-1,49
 604 723 604 723 569 710.5 c 128,-1,50
 534 698 534 698 490.5 690.5 c 128,-1,51
 447 683 447 683 393 683 c 0,0,1
486 831 m 0,52,53
 522 825 522 825 568 832.5 c 128,-1,54
 614 840 614 840 665 860 c 1,55,-1
 664 863 l 1,56,-1
 665 1116 l 1,57,58
 630 1114 630 1114 582 1106 c 128,-1,59
 534 1098 534 1098 490 1081 c 128,-1,60
 446 1064 446 1064 415 1034.5 c 128,-1,61
 384 1005 384 1005 384 960 c 0,62,63
 384 910 384 910 411 874.5 c 128,-1,64
 438 839 438 839 486 831 c 0,52,53
EndSplineSet
EndChar

StartChar: ordmasculine
Encoding: 186 186 130
Width: 1097
Flags: W
LayerCount: 2
Fore
SplineSet
534 682 m 0,0,1
 433 682 433 682 353.5 709.5 c 128,-1,2
 274 737 274 737 219 791.5 c 128,-1,3
 164 846 164 846 135.5 927 c 128,-1,4
 107 1008 107 1008 109 1114 c 0,5,6
 111 1231 111 1231 151.5 1311.5 c 128,-1,7
 192 1392 192 1392 256 1442.5 c 128,-1,8
 320 1493 320 1493 398.5 1516 c 128,-1,9
 477 1539 477 1539 555 1541 c 0,10,11
 665 1543 665 1543 746.5 1512.5 c 128,-1,12
 828 1482 828 1482 882 1424.5 c 128,-1,13
 936 1367 936 1367 962.5 1285.5 c 128,-1,14
 989 1204 989 1204 988 1104 c 0,15,16
 987 1027 987 1027 967.5 965.5 c 128,-1,17
 948 904 948 904 915 857.5 c 128,-1,18
 882 811 882 811 838 777.5 c 128,-1,19
 794 744 794 744 744 723 c 128,-1,20
 694 702 694 702 640 692 c 128,-1,21
 586 682 586 682 534 682 c 0,0,1
549 803 m 0,22,23
 592 802 592 802 625 813.5 c 128,-1,24
 658 825 658 825 679.5 857.5 c 128,-1,25
 701 890 701 890 712 947.5 c 128,-1,26
 723 1005 723 1005 723 1096 c 0,27,28
 723 1172 723 1172 711 1232.5 c 128,-1,29
 699 1293 699 1293 676.5 1335 c 128,-1,30
 654 1377 654 1377 623 1399 c 128,-1,31
 592 1421 592 1421 554 1421 c 0,32,33
 520 1421 520 1421 488.5 1408 c 128,-1,34
 457 1395 457 1395 432.5 1361 c 128,-1,35
 408 1327 408 1327 393 1268.5 c 128,-1,36
 378 1210 378 1210 378 1120 c 0,37,38
 378 1043 378 1043 391.5 984 c 128,-1,39
 405 925 405 925 428.5 885 c 128,-1,40
 452 845 452 845 483 824.5 c 128,-1,41
 514 804 514 804 549 803 c 0,22,23
EndSplineSet
EndChar

StartChar: paragraph
Encoding: 182 182 131
Width: 1294
Flags: W
LayerCount: 2
Fore
SplineSet
340 118 m 1,0,-1
 546 159 l 1,1,-1
 546 665 l 1,2,3
 445 665 445 665 357.5 691.5 c 128,-1,4
 270 718 270 718 205.5 773.5 c 128,-1,5
 141 829 141 829 104 914 c 128,-1,6
 67 999 67 999 67 1116 c 0,7,8
 67 1216 67 1216 97 1296.5 c 128,-1,9
 127 1377 127 1377 192.5 1433.5 c 128,-1,10
 258 1490 258 1490 360.5 1520.5 c 128,-1,11
 463 1551 463 1551 609 1551 c 0,12,13
 644 1551 644 1551 701.5 1548.5 c 128,-1,14
 759 1546 759 1546 823 1542.5 c 128,-1,15
 887 1539 887 1539 948.5 1535.5 c 128,-1,16
 1010 1532 1010 1532 1054 1531 c 1,17,-1
 1238 1531 l 1,18,-1
 1238 1391 l 1,19,-1
 1062 1343 l 1,20,-1
 1062 159 l 1,21,-1
 1231 118 l 1,22,-1
 1231 0 l 1,23,-1
 879 0 l 1,24,-1
 877 1364 l 1,25,-1
 739 1364 l 1,26,-1
 739 0 l 1,27,-1
 340 0 l 1,28,-1
 340 118 l 1,0,-1
EndSplineSet
EndChar

StartChar: section
Encoding: 167 167 132
Width: 1263
Flags: W
LayerCount: 2
Fore
SplineSet
230 132 m 1,0,-1
 313 -69 l 1,1,2
 337 -103 337 -103 368.5 -123.5 c 128,-1,3
 400 -144 400 -144 435.5 -155.5 c 128,-1,4
 471 -167 471 -167 509.5 -170.5 c 128,-1,5
 548 -174 548 -174 585 -174 c 0,6,7
 633 -174 633 -174 679 -162.5 c 128,-1,8
 725 -151 725 -151 761.5 -127 c 128,-1,9
 798 -103 798 -103 820.5 -65.5 c 128,-1,10
 843 -28 843 -28 843 23 c 0,11,12
 843 82 843 82 810.5 127 c 128,-1,13
 778 172 778 172 725 209.5 c 128,-1,14
 672 247 672 247 604.5 279.5 c 128,-1,15
 537 312 537 312 466 345.5 c 128,-1,16
 395 379 395 379 327.5 416.5 c 128,-1,17
 260 454 260 454 207 502 c 128,-1,18
 154 550 154 550 121.5 611.5 c 128,-1,19
 89 673 89 673 89 753 c 0,20,21
 89 793 89 793 99.5 837 c 128,-1,22
 110 881 110 881 129 923 c 128,-1,23
 148 965 148 965 174 1002.5 c 128,-1,24
 200 1040 200 1040 232 1067 c 1,25,26
 177 1115 177 1115 143.5 1175.5 c 128,-1,27
 110 1236 110 1236 110 1314 c 0,28,29
 110 1383 110 1383 132 1440.5 c 128,-1,30
 154 1498 154 1498 192.5 1543.5 c 128,-1,31
 231 1589 231 1589 282.5 1622.5 c 128,-1,32
 334 1656 334 1656 392.5 1678 c 128,-1,33
 451 1700 451 1700 513.5 1711 c 128,-1,34
 576 1722 576 1722 637 1722 c 0,35,36
 707 1722 707 1722 767.5 1715.5 c 128,-1,37
 828 1709 828 1709 877 1699 c 128,-1,38
 926 1689 926 1689 963.5 1676 c 128,-1,39
 1001 1663 1001 1663 1024 1650 c 1,40,-1
 1024 1356 l 1,41,-1
 906 1356 l 1,42,-1
 803 1536 l 1,43,44
 783 1559 783 1559 734.5 1574.5 c 128,-1,45
 686 1590 686 1590 616 1590 c 0,46,47
 583 1590 583 1590 542 1579.5 c 128,-1,48
 501 1569 501 1569 466 1543.5 c 128,-1,49
 431 1518 431 1518 406.5 1476 c 128,-1,50
 382 1434 382 1434 382 1371 c 0,51,52
 382 1315 382 1315 413 1273.5 c 128,-1,53
 444 1232 444 1232 495.5 1197.5 c 128,-1,54
 547 1163 547 1163 612.5 1133.5 c 128,-1,55
 678 1104 678 1104 746 1072.5 c 128,-1,56
 814 1041 814 1041 879.5 1004 c 128,-1,57
 945 967 945 967 996 919 c 128,-1,58
 1047 871 1047 871 1078 808 c 128,-1,59
 1109 745 1109 745 1109 661 c 0,60,61
 1109 617 1109 617 1101 573 c 128,-1,62
 1093 529 1093 529 1078 488.5 c 128,-1,63
 1063 448 1063 448 1042 412.5 c 128,-1,64
 1021 377 1021 377 995 349 c 1,65,66
 1051 301 1051 301 1085 242.5 c 128,-1,67
 1119 184 1119 184 1119 106 c 0,68,69
 1119 -10 1119 -10 1075.5 -90 c 128,-1,70
 1032 -170 1032 -170 958 -220 c 128,-1,71
 884 -270 884 -270 787 -292.5 c 128,-1,72
 690 -315 690 -315 584 -315 c 0,73,74
 507 -315 507 -315 431.5 -307.5 c 128,-1,75
 356 -300 356 -300 292.5 -288 c 128,-1,76
 229 -276 229 -276 181 -262 c 128,-1,77
 133 -248 133 -248 111 -235 c 1,78,-1
 111 132 l 1,79,-1
 230 132 l 1,0,-1
336 810 m 0,80,81
 336 766 336 766 357.5 730 c 128,-1,82
 379 694 379 694 416.5 663 c 128,-1,83
 454 632 454 632 503.5 605.5 c 128,-1,84
 553 579 553 579 608.5 553.5 c 128,-1,85
 664 528 664 528 723.5 502.5 c 128,-1,86
 783 477 783 477 839 448 c 1,87,88
 852 479 852 479 861 514.5 c 128,-1,89
 870 550 870 550 870 579 c 0,90,91
 870 626 870 626 848.5 665 c 128,-1,92
 827 704 827 704 790.5 737 c 128,-1,93
 754 770 754 770 705 799 c 128,-1,94
 656 828 656 828 601.5 855.5 c 128,-1,95
 547 883 547 883 489 910.5 c 128,-1,96
 431 938 431 938 376 969 c 1,97,98
 359 936 359 936 347.5 894.5 c 128,-1,99
 336 853 336 853 336 810 c 0,80,81
EndSplineSet
EndChar

StartChar: AE
Encoding: 198 198 133
Width: 2035
Flags: W
LayerCount: 2
Fore
SplineSet
8 117 m 1,0,-1
 125 148 l 1,1,-1
 680 1531 l 1,2,-1
 1754 1531 l 1,3,-1
 1784 1225 l 1,4,-1
 1631 1224 l 1,5,-1
 1576 1370 l 1,6,-1
 1003 1388 l 1,7,-1
 1152 885 l 1,8,-1
 1521 892 l 1,9,-1
 1555 1045 l 1,10,-1
 1686 1045 l 1,11,-1
 1686 582 l 1,12,-1
 1555 582 l 1,13,-1
 1520 725 l 1,14,-1
 1195 737 l 1,15,-1
 1372 138 l 1,16,-1
 1646 156 l 1,17,-1
 1753 352 l 1,18,-1
 1907 315 l 1,19,-1
 1858 0 l 1,20,-1
 902 0 l 1,21,-1
 902 117 l 1,22,-1
 1064 154 l 1,23,-1
 1005 387 l 1,24,-1
 432 387 l 1,25,-1
 343 153 l 1,26,-1
 516 117 l 1,27,-1
 516 0 l 1,28,-1
 8 0 l 1,29,-1
 8 117 l 1,0,-1
963 549 m 1,30,-1
 818 1121 l 1,31,-1
 777 1289 l 1,32,-1
 494 549 l 1,33,-1
 963 549 l 1,30,-1
EndSplineSet
EndChar

StartChar: Lslash
Encoding: 321 321 134
Width: 1268
Flags: W
LayerCount: 2
Fore
SplineSet
99 117 m 1,0,-1
 253 152 l 1,1,-1
 253 560 l 1,2,-1
 71 483 l 1,3,4
 72 539 72 539 72 583 c 2,5,-1
 72 684 l 1,6,7
 72 684 72 684 85 690 c 128,-1,8
 98 696 98 696 122 707 c 128,-1,9
 146 718 146 718 179.5 733 c 128,-1,10
 213 748 213 748 253 766 c 1,11,-1
 253 1359 l 1,12,-1
 104 1378 l 1,13,-1
 104 1531 l 1,14,-1
 722 1531 l 1,15,-1
 722 1378 l 1,16,-1
 542 1358 l 1,17,-1
 541 894 l 1,18,19
 617 928 617 928 688.5 959.5 c 128,-1,20
 760 991 760 991 815 1015 c 0,21,22
 879 1043 879 1043 936 1068 c 1,23,-1
 936 848 l 1,24,-1
 541 681 l 1,25,-1
 541 140 l 1,26,-1
 964 174 l 1,27,-1
 1130 423 l 1,28,-1
 1254 361 l 1,29,-1
 1175 0 l 1,30,-1
 99 0 l 1,31,-1
 99 117 l 1,0,-1
EndSplineSet
EndChar

StartChar: Oslash
Encoding: 216 216 135
Width: 1588
Flags: W
LayerCount: 2
Fore
SplineSet
454 37 m 1,0,1
 360 81 360 81 287 151.5 c 128,-1,2
 214 222 214 222 165 313 c 128,-1,3
 116 404 116 404 91.5 512.5 c 128,-1,4
 67 621 67 621 70 742 c 0,5,6
 74 931 74 931 131.5 1078 c 128,-1,7
 189 1225 189 1225 287.5 1327.5 c 128,-1,8
 386 1430 386 1430 518.5 1485.5 c 128,-1,9
 651 1541 651 1541 806 1547 c 0,10,11
 850 1549 850 1549 890.5 1546 c 128,-1,12
 931 1543 931 1543 970 1536 c 1,13,-1
 1023 1690 l 1,14,-1
 1132 1650 l 1,15,-1
 1082 1505 l 1,16,17
 1184 1466 1184 1466 1263.5 1396 c 128,-1,18
 1343 1326 1343 1326 1396 1231.5 c 128,-1,19
 1449 1137 1449 1137 1476 1022 c 128,-1,20
 1503 907 1503 907 1500 778 c 0,21,22
 1496 589 1496 589 1440.5 440.5 c 128,-1,23
 1385 292 1385 292 1289 189 c 128,-1,24
 1193 86 1193 86 1063 30.5 c 128,-1,25
 933 -25 933 -25 781 -28 c 0,26,27
 661 -30 661 -30 562 -3 c 1,28,-1
 492 -206 l 1,29,-1
 384 -166 l 1,30,-1
 454 37 l 1,0,1
917 1383 m 1,31,32
 889 1396 889 1396 859 1403 c 128,-1,33
 829 1410 829 1410 795 1410 c 0,34,35
 690 1410 690 1410 613.5 1366 c 128,-1,36
 537 1322 537 1322 486.5 1237 c 128,-1,37
 436 1152 436 1152 412 1027.5 c 128,-1,38
 388 903 388 903 388 743 c 0,39,40
 388 680 388 680 396.5 614 c 128,-1,41
 405 548 405 548 422.5 484 c 128,-1,42
 440 420 440 420 466.5 361 c 128,-1,43
 493 302 493 302 529 254 c 1,44,-1
 917 1383 l 1,31,32
620 164 m 1,45,46
 658 138 658 138 701.5 123.5 c 128,-1,47
 745 109 745 109 796 109 c 0,48,49
 899 109 899 109 972 151.5 c 128,-1,50
 1045 194 1045 194 1092 278 c 128,-1,51
 1139 362 1139 362 1161 487 c 128,-1,52
 1183 612 1183 612 1183 777 c 0,53,54
 1183 851 1183 851 1173 926.5 c 128,-1,55
 1163 1002 1163 1002 1142 1072 c 128,-1,56
 1121 1142 1121 1142 1089.5 1203.5 c 128,-1,57
 1058 1265 1058 1265 1015 1311 c 1,58,-1
 620 164 l 1,45,46
EndSplineSet
EndChar

StartChar: germandbls
Encoding: 223 223 136
Width: 1400
Flags: W
LayerCount: 2
Fore
SplineSet
37 119 m 1,0,-1
 203 161 l 1,1,-1
 203 875 l 2,2,3
 203 1067 203 1067 255 1205 c 128,-1,4
 307 1343 307 1343 392 1432 c 128,-1,5
 477 1521 477 1521 584.5 1563.5 c 128,-1,6
 692 1606 692 1606 803 1606 c 0,7,8
 869 1606 869 1606 932.5 1591 c 128,-1,9
 996 1576 996 1576 1046 1542 c 128,-1,10
 1096 1508 1096 1508 1127 1452 c 128,-1,11
 1158 1396 1158 1396 1158 1314 c 0,12,13
 1158 1243 1158 1243 1140 1192.5 c 128,-1,14
 1122 1142 1122 1142 1095 1104.5 c 128,-1,15
 1068 1067 1068 1067 1036 1038 c 128,-1,16
 1004 1009 1004 1009 977 980 c 128,-1,17
 950 951 950 951 932 918 c 128,-1,18
 914 885 914 885 914 839 c 0,19,20
 914 800 914 800 934 771.5 c 128,-1,21
 954 743 954 743 986 720.5 c 128,-1,22
 1018 698 1018 698 1059.5 679 c 128,-1,23
 1101 660 1101 660 1144 639.5 c 128,-1,24
 1187 619 1187 619 1228.5 594 c 128,-1,25
 1270 569 1270 569 1302 535 c 128,-1,26
 1334 501 1334 501 1354 455.5 c 128,-1,27
 1374 410 1374 410 1374 348 c 0,28,29
 1374 259 1374 259 1338 190.5 c 128,-1,30
 1302 122 1302 122 1242 74.5 c 128,-1,31
 1182 27 1182 27 1103.5 2.5 c 128,-1,32
 1025 -22 1025 -22 940 -22 c 0,33,34
 839 -22 839 -22 772 -10 c 128,-1,35
 705 2 705 2 667 19 c 1,36,-1
 667 206 l 1,37,38
 683 195 683 195 711 179 c 128,-1,39
 739 163 739 163 772 148.5 c 128,-1,40
 805 134 805 134 841.5 124 c 128,-1,41
 878 114 878 114 913 114 c 0,42,43
 951 114 951 114 986.5 121.5 c 128,-1,44
 1022 129 1022 129 1049 147.5 c 128,-1,45
 1076 166 1076 166 1092 196.5 c 128,-1,46
 1108 227 1108 227 1108 273 c 0,47,48
 1108 320 1108 320 1076 352.5 c 128,-1,49
 1044 385 1044 385 995.5 412.5 c 128,-1,50
 947 440 947 440 891 467 c 128,-1,51
 835 494 835 494 786.5 531.5 c 128,-1,52
 738 569 738 569 706 621.5 c 128,-1,53
 674 674 674 674 674 751 c 0,54,55
 674 795 674 795 691 833.5 c 128,-1,56
 708 872 708 872 734 909 c 128,-1,57
 760 946 760 946 790 984 c 128,-1,58
 820 1022 820 1022 846 1065 c 128,-1,59
 872 1108 872 1108 889 1157.5 c 128,-1,60
 906 1207 906 1207 906 1268 c 0,61,62
 906 1312 906 1312 894.5 1344.5 c 128,-1,63
 883 1377 883 1377 864 1399.5 c 128,-1,64
 845 1422 845 1422 820.5 1435 c 128,-1,65
 796 1448 796 1448 770 1453 c 1,66,67
 752 1458 752 1458 730.5 1456 c 128,-1,68
 709 1454 709 1454 687 1445 c 1,69,70
 631 1431 631 1431 593 1398.5 c 128,-1,71
 555 1366 555 1366 531.5 1305.5 c 128,-1,72
 508 1245 508 1245 498 1151.5 c 128,-1,73
 488 1058 488 1058 488 922 c 2,74,-1
 488 0 l 1,75,-1
 37 0 l 1,76,-1
 37 119 l 1,0,-1
EndSplineSet
EndChar

StartChar: ae
Encoding: 230 230 137
Width: 1827
Flags: W
LayerCount: 2
Fore
SplineSet
71 328 m 0,0,1
 77 398 77 398 114 452.5 c 128,-1,2
 151 507 151 507 207 547 c 128,-1,3
 263 587 263 587 333 614 c 128,-1,4
 403 641 403 641 474.5 657.5 c 128,-1,5
 546 674 546 674 613.5 680.5 c 128,-1,6
 681 687 681 687 733 686 c 1,7,-1
 733 748 l 2,8,9
 733 828 733 828 710 873.5 c 128,-1,10
 687 919 687 919 652 941.5 c 128,-1,11
 617 964 617 964 574 969.5 c 128,-1,12
 531 975 531 975 492 975 c 0,13,14
 456 975 456 975 410 967.5 c 128,-1,15
 364 960 364 960 317.5 947.5 c 128,-1,16
 271 935 271 935 229.5 918 c 128,-1,17
 188 901 188 901 163 883 c 1,18,-1
 124 1010 l 1,19,20
 148 1027 148 1027 191.5 1049.5 c 128,-1,21
 235 1072 235 1072 295.5 1092 c 128,-1,22
 356 1112 356 1112 432 1125.5 c 128,-1,23
 508 1139 508 1139 597 1139 c 0,24,25
 709 1139 709 1139 795.5 1111 c 128,-1,26
 882 1083 882 1083 935 1016 c 1,27,28
 1088 1149 1088 1149 1333 1152 c 0,29,30
 1430 1153 1430 1153 1507 1123.5 c 128,-1,31
 1584 1094 1584 1094 1638 1040 c 128,-1,32
 1692 986 1692 986 1721 911 c 128,-1,33
 1750 836 1750 836 1752 747 c 0,34,35
 1753 678 1753 678 1750 627.5 c 128,-1,36
 1747 577 1747 577 1742 537 c 1,37,-1
 1018 537 l 1,38,39
 1018 527 1018 527 1019 517 c 128,-1,40
 1020 507 1020 507 1021 497 c 0,41,42
 1028 417 1028 417 1049.5 360 c 128,-1,43
 1071 303 1071 303 1101.5 264 c 128,-1,44
 1132 225 1132 225 1168.5 202 c 128,-1,45
 1205 179 1205 179 1243.5 166.5 c 128,-1,46
 1282 154 1282 154 1319 150 c 128,-1,47
 1356 146 1356 146 1388 146 c 0,48,49
 1421 146 1421 146 1462.5 152 c 128,-1,50
 1504 158 1504 158 1545 167.5 c 128,-1,51
 1586 177 1586 177 1622 189.5 c 128,-1,52
 1658 202 1658 202 1681 214 c 1,53,-1
 1728 103 l 1,54,55
 1695 75 1695 75 1648 51 c 128,-1,56
 1601 27 1601 27 1542 9.5 c 128,-1,57
 1483 -8 1483 -8 1413.5 -18 c 128,-1,58
 1344 -28 1344 -28 1266 -28 c 0,59,60
 1153 -28 1153 -28 1054.5 7 c 128,-1,61
 956 42 956 42 883 117 c 1,62,63
 839 93 839 93 794 67.5 c 128,-1,64
 749 42 749 42 694.5 21.5 c 128,-1,65
 640 1 640 1 571.5 -11 c 128,-1,66
 503 -23 503 -23 413 -21 c 0,67,68
 330 -20 330 -20 264 8.5 c 128,-1,69
 198 37 198 37 153 84.5 c 128,-1,70
 108 132 108 132 86.5 194.5 c 128,-1,71
 65 257 65 257 71 328 c 0,0,1
1468 682 m 1,72,73
 1475 746 1475 746 1473.5 807.5 c 128,-1,74
 1472 869 1472 869 1452.5 917.5 c 128,-1,75
 1433 966 1433 966 1391.5 995.5 c 128,-1,76
 1350 1025 1350 1025 1278 1025 c 0,77,78
 1237 1025 1237 1025 1195 1007.5 c 128,-1,79
 1153 990 1153 990 1116.5 949.5 c 128,-1,80
 1080 909 1080 909 1053.5 843.5 c 128,-1,81
 1027 778 1027 778 1019 682 c 1,82,-1
 1468 682 l 1,72,73
359 335 m 0,83,84
 359 228 359 228 411 180.5 c 128,-1,85
 463 133 463 133 557 133 c 0,86,87
 582 133 582 133 609 138.5 c 128,-1,88
 636 144 636 144 661 154.5 c 128,-1,89
 686 165 686 165 705 179.5 c 128,-1,90
 724 194 724 194 733 211 c 1,91,-1
 733 558 l 1,92,93
 699 557 699 557 657.5 551.5 c 128,-1,94
 616 546 616 546 574.5 534.5 c 128,-1,95
 533 523 533 523 494 506 c 128,-1,96
 455 489 455 489 425 464.5 c 128,-1,97
 395 440 395 440 377 408 c 128,-1,98
 359 376 359 376 359 335 c 0,83,84
EndSplineSet
EndChar

StartChar: fi
Encoding: 64257 64257 138
Width: 1593
Flags: W
LayerCount: 2
Fore
SplineSet
96 114 m 1,0,-1
 280 141 l 1,1,-1
 280 952 l 1,2,-1
 81 952 l 1,3,-1
 81 1045 l 1,4,-1
 280 1115 l 1,5,-1
 280 1211 l 2,6,7
 280 1285 280 1285 300 1352.5 c 128,-1,8
 320 1420 320 1420 354.5 1478.5 c 128,-1,9
 389 1537 389 1537 435.5 1585 c 128,-1,10
 482 1633 482 1633 534.5 1667 c 128,-1,11
 587 1701 587 1701 643 1719.5 c 128,-1,12
 699 1738 699 1738 754 1738 c 0,13,14
 812 1738 812 1738 844 1732 c 128,-1,15
 876 1726 876 1726 883 1721 c 1,16,-1
 883 1473 l 1,17,18
 873 1481 873 1481 855 1490 c 128,-1,19
 837 1499 837 1499 813.5 1506.5 c 128,-1,20
 790 1514 790 1514 762.5 1519 c 128,-1,21
 735 1524 735 1524 705 1524 c 0,22,23
 674 1524 674 1524 648.5 1518 c 128,-1,24
 623 1512 623 1512 604.5 1488 c 128,-1,25
 586 1464 586 1464 575.5 1416.5 c 128,-1,26
 565 1369 565 1369 565 1286 c 2,27,-1
 565 1128 l 1,28,-1
 839 1128 l 1,29,-1
 839 952 l 1,30,-1
 565 952 l 1,31,-1
 565 140 l 1,32,-1
 794 114 l 1,33,-1
 794 0 l 1,34,-1
 96 0 l 1,35,-1
 96 114 l 1,0,-1
1228 1359 m 0,36,37
 1195 1359 1195 1359 1164 1370 c 128,-1,38
 1133 1381 1133 1381 1109 1401.5 c 128,-1,39
 1085 1422 1085 1422 1070.5 1451.5 c 128,-1,40
 1056 1481 1056 1481 1056 1519 c 0,41,42
 1056 1560 1056 1560 1074 1595 c 128,-1,43
 1092 1630 1092 1630 1121.5 1655.5 c 128,-1,44
 1151 1681 1151 1681 1187.5 1695.5 c 128,-1,45
 1224 1710 1224 1710 1260 1710 c 0,46,47
 1305 1710 1305 1710 1337.5 1697 c 128,-1,48
 1370 1684 1370 1684 1391 1662 c 128,-1,49
 1412 1640 1412 1640 1422 1610.5 c 128,-1,50
 1432 1581 1432 1581 1432 1548 c 0,51,52
 1432 1505 1432 1505 1414.5 1470 c 128,-1,53
 1397 1435 1397 1435 1368.5 1410.5 c 128,-1,54
 1340 1386 1340 1386 1303.5 1372.5 c 128,-1,55
 1267 1359 1267 1359 1228 1359 c 0,36,37
973 114 m 1,56,-1
 1123 140 l 1,57,-1
 1123 845 l 1,58,-1
 991 959 l 1,59,-1
 991 1039 l 1,60,-1
 1336 1146 l 1,61,-1
 1404 1123 l 1,62,-1
 1404 139 l 1,63,-1
 1554 114 l 1,64,-1
 1554 0 l 1,65,-1
 973 0 l 1,66,-1
 973 114 l 1,56,-1
EndSplineSet
Ligature2: "'dlig' Discretionary Ligatures in Latin lookup 0 subtable" f i
EndChar

StartChar: fl
Encoding: 64258 64258 139
Width: 1588
Flags: W
LayerCount: 2
Fore
SplineSet
96 114 m 1,0,-1
 280 141 l 1,1,-1
 280 952 l 1,2,-1
 81 952 l 1,3,-1
 81 1045 l 1,4,-1
 280 1115 l 1,5,-1
 280 1211 l 2,6,7
 280 1285 280 1285 300 1352.5 c 128,-1,8
 320 1420 320 1420 354.5 1478.5 c 128,-1,9
 389 1537 389 1537 435.5 1585 c 128,-1,10
 482 1633 482 1633 534.5 1667 c 128,-1,11
 587 1701 587 1701 643 1719.5 c 128,-1,12
 699 1738 699 1738 754 1738 c 0,13,14
 812 1738 812 1738 844 1732 c 128,-1,15
 876 1726 876 1726 883 1721 c 1,16,-1
 883 1473 l 1,17,18
 873 1481 873 1481 855 1490 c 128,-1,19
 837 1499 837 1499 813.5 1506.5 c 128,-1,20
 790 1514 790 1514 762.5 1519 c 128,-1,21
 735 1524 735 1524 705 1524 c 0,22,23
 674 1524 674 1524 648.5 1518 c 128,-1,24
 623 1512 623 1512 604.5 1488 c 128,-1,25
 586 1464 586 1464 575.5 1416.5 c 128,-1,26
 565 1369 565 1369 565 1286 c 2,27,-1
 565 1128 l 1,28,-1
 839 1128 l 1,29,-1
 839 952 l 1,30,-1
 565 952 l 1,31,-1
 565 140 l 1,32,-1
 794 114 l 1,33,-1
 794 0 l 1,34,-1
 96 0 l 1,35,-1
 96 114 l 1,0,-1
973 114 m 1,36,-1
 1111 138 l 1,37,-1
 1111 1398 l 1,38,-1
 964 1454 l 1,39,-1
 964 1573 l 1,40,-1
 1346 1628 l 1,41,-1
 1397 1603 l 1,42,-1
 1397 140 l 1,43,-1
 1569 114 l 1,44,-1
 1569 0 l 1,45,-1
 973 0 l 1,46,-1
 973 114 l 1,36,-1
EndSplineSet
Ligature2: "'dlig' Discretionary Ligatures in Latin lookup 0 subtable" f l
EndChar

StartChar: dotlessi
Encoding: 305 305 140
Width: 718
Flags: W
LayerCount: 2
Fore
SplineSet
97 114 m 1,0,-1
 247 140 l 1,1,-1
 247 845 l 1,2,-1
 114 959 l 1,3,-1
 114 1039 l 1,4,-1
 460 1149 l 1,5,-1
 528 1126 l 1,6,-1
 528 138 l 1,7,-1
 678 114 l 1,8,-1
 678 0 l 1,9,-1
 97 0 l 1,10,-1
 97 114 l 1,0,-1
EndSplineSet
EndChar

StartChar: lslash
Encoding: 322 322 141
Width: 700
Flags: W
LayerCount: 2
Fore
SplineSet
97 114 m 1,0,-1
 235 138 l 1,1,-1
 235 705 l 1,2,-1
 77 648 l 1,3,-1
 77 848 l 1,4,-1
 235 908 l 1,5,-1
 235 1398 l 1,6,-1
 88 1454 l 1,7,-1
 88 1573 l 1,8,-1
 470 1628 l 1,9,-1
 521 1603 l 1,10,-1
 521 1018 l 1,11,-1
 686 1082 l 1,12,-1
 686 868 l 1,13,-1
 521 808 l 1,14,-1
 521 140 l 1,15,-1
 693 114 l 1,16,-1
 693 0 l 1,17,-1
 97 0 l 1,18,-1
 97 114 l 1,0,-1
EndSplineSet
EndChar

StartChar: oslash
Encoding: 248 248 142
Width: 1271
Flags: W
LayerCount: 2
Fore
SplineSet
416 7 m 1,0,1
 325 38 325 38 259.5 94 c 128,-1,2
 194 150 194 150 152.5 224.5 c 128,-1,3
 111 299 111 299 92 387 c 128,-1,4
 73 475 73 475 74 570 c 0,5,6
 76 715 76 715 126 824 c 128,-1,7
 176 933 176 933 257.5 1005 c 128,-1,8
 339 1077 339 1077 444 1113.5 c 128,-1,9
 549 1150 549 1150 661 1151 c 0,10,11
 693 1151 693 1151 722 1149 c 128,-1,12
 751 1147 751 1147 780 1143 c 1,13,-1
 833 1308 l 1,14,-1
 931 1279 l 1,15,-1
 880 1119 l 1,16,17
 961 1092 961 1092 1022.5 1042.5 c 128,-1,18
 1084 993 1084 993 1126 925 c 128,-1,19
 1168 857 1168 857 1189 770.5 c 128,-1,20
 1210 684 1210 684 1210 583 c 0,21,22
 1210 436 1210 436 1162.5 322.5 c 128,-1,23
 1115 209 1115 209 1036 131.5 c 128,-1,24
 957 54 957 54 853 14 c 128,-1,25
 749 -26 749 -26 635 -26 c 0,26,27
 573 -26 573 -26 519 -17 c 1,28,-1
 461 -202 l 1,29,-1
 359 -173 l 1,30,-1
 416 7 l 1,0,1
735 1003 m 1,31,32
 699 1020 699 1020 651 1022 c 1,33,34
 575 1022 575 1022 522.5 987.5 c 128,-1,35
 470 953 470 953 438 893.5 c 128,-1,36
 406 834 406 834 391.5 755 c 128,-1,37
 377 676 377 676 377 588 c 0,38,39
 377 538 377 538 383 485.5 c 128,-1,40
 389 433 389 433 401 382 c 128,-1,41
 413 331 413 331 432.5 284.5 c 128,-1,42
 452 238 452 238 479 202 c 1,43,-1
 735 1003 l 1,31,32
565 128 m 1,44,45
 601 110 601 110 645 110 c 0,46,47
 726 109 726 109 777 145 c 128,-1,48
 828 181 828 181 857 243.5 c 128,-1,49
 886 306 886 306 896.5 389.5 c 128,-1,50
 907 473 907 473 907 568 c 0,51,52
 907 619 907 619 902.5 670 c 128,-1,53
 898 721 898 721 887.5 768 c 128,-1,54
 877 815 877 815 860.5 856.5 c 128,-1,55
 844 898 844 898 820 931 c 1,56,-1
 565 128 l 1,44,45
EndSplineSet
EndChar

StartChar: double
Encoding: 65539 -1 153
Width: 921
Flags: W
LayerCount: 2
Fore
SplineSet
326 371 m 1,0,-1
 359 524 l 1,1,-1
 68 505 l 1,2,-1
 70 711 l 1,3,-1
 356 693 l 1,4,-1
 326 968 l 1,5,-1
 359 1118 l 1,6,-1
 68 1099 l 1,7,8
 68 1151 68 1151 68.5 1202.5 c 128,-1,9
 69 1254 69 1254 69 1306 c 1,10,-1
 366 1287 l 1,11,-1
 332 1482 l 1,12,-1
 322 1544 l 1,13,-1
 321 1648 l 1,14,-1
 605 1648 l 1,15,-1
 604 1544 l 1,16,-1
 594 1482 l 1,17,-1
 558 1287 l 1,18,-1
 839 1306 l 1,19,-1
 841 1099 l 1,20,-1
 566 1118 l 1,21,-1
 601 968 l 1,22,-1
 570 693 l 1,23,-1
 839 711 l 1,24,-1
 841 505 l 1,25,-1
 566 524 l 1,26,-1
 587 419 l 1,27,28
 591 378 591 378 599 337 c 1,29,-1
 534 -295 l 1,30,-1
 393 -295 l 1,31,-1
 326 371 l 1,0,-1
EndSplineSet
EndChar

StartChar: onesuperior
Encoding: 185 185 154
Width: 1142
Flags: W
LayerCount: 2
Fore
SplineSet
214 833 m 1,0,-1
 467 868 l 1,1,-1
 467 1444 l 1,2,3
 415 1436 415 1436 351 1424 c 128,-1,4
 287 1412 287 1412 230 1401 c 1,5,-1
 201 1532 l 1,6,7
 234 1539 234 1539 278 1553 c 128,-1,8
 322 1567 322 1567 370.5 1585 c 128,-1,9
 419 1603 419 1603 467.5 1623 c 128,-1,10
 516 1643 516 1643 557 1662 c 128,-1,11
 598 1681 598 1681 628.5 1697 c 128,-1,12
 659 1713 659 1713 671 1723 c 1,13,-1
 740 1708 l 1,14,-1
 738 867 l 1,15,-1
 990 833 l 1,16,-1
 990 718 l 1,17,-1
 214 718 l 1,18,-1
 214 833 l 1,0,-1
EndSplineSet
EndChar

StartChar: twosuperior
Encoding: 178 178 155
Width: 1313
Flags: W
LayerCount: 2
Fore
SplineSet
160 840 m 1,0,1
 218 875 218 875 285 914 c 128,-1,2
 352 953 352 953 418.5 995.5 c 128,-1,3
 485 1038 485 1038 547 1085 c 128,-1,4
 609 1132 609 1132 656 1183 c 128,-1,5
 703 1234 703 1234 731.5 1288.5 c 128,-1,6
 760 1343 760 1343 760 1402 c 0,7,8
 760 1431 760 1431 748 1458.5 c 128,-1,9
 736 1486 736 1486 710 1506 c 128,-1,10
 684 1526 684 1526 642.5 1536 c 128,-1,11
 601 1546 601 1546 542 1540 c 0,12,13
 489 1534 489 1534 441 1516 c 128,-1,14
 393 1498 393 1498 353.5 1475 c 128,-1,15
 314 1452 314 1452 284 1429 c 128,-1,16
 254 1406 254 1406 236 1390 c 1,17,-1
 160 1508 l 1,18,19
 180 1536 180 1536 223 1570 c 128,-1,20
 266 1604 266 1604 326 1634 c 128,-1,21
 386 1664 386 1664 459 1686 c 128,-1,22
 532 1708 532 1708 612 1713 c 0,23,24
 691 1718 691 1718 753 1708 c 128,-1,25
 815 1698 815 1698 862 1678 c 128,-1,26
 909 1658 909 1658 942.5 1630.5 c 128,-1,27
 976 1603 976 1603 997 1572 c 128,-1,28
 1018 1541 1018 1541 1027.5 1509.5 c 128,-1,29
 1037 1478 1037 1478 1037 1451 c 0,30,31
 1037 1353 1037 1353 997 1275 c 128,-1,32
 957 1197 957 1197 884 1127.5 c 128,-1,33
 811 1058 811 1058 709.5 991.5 c 128,-1,34
 608 925 608 925 484 850 c 1,35,-1
 930 908 l 1,36,-1
 1021 1017 l 1,37,-1
 1134 980 l 1,38,-1
 1070 720 l 1,39,-1
 221 720 l 1,40,-1
 160 840 l 1,0,1
EndSplineSet
EndChar

StartChar: threesuperior
Encoding: 179 179 156
Width: 1120
Flags: W
LayerCount: 2
Fore
SplineSet
208 838 m 1,0,1
 233 832 233 832 264 827 c 128,-1,2
 295 822 295 822 327 818.5 c 128,-1,3
 359 815 359 815 388.5 813.5 c 128,-1,4
 418 812 418 812 439 813 c 0,5,6
 572 819 572 819 645.5 866 c 128,-1,7
 719 913 719 913 727 991 c 0,8,9
 728 1002 728 1002 726 1021.5 c 128,-1,10
 724 1041 724 1041 713.5 1062.5 c 128,-1,11
 703 1084 703 1084 681.5 1104 c 128,-1,12
 660 1124 660 1124 624 1136 c 1,13,14
 604 1140 604 1140 579.5 1142 c 128,-1,15
 555 1144 555 1144 524 1143 c 1,16,17
 482 1134 482 1134 440 1124.5 c 128,-1,18
 398 1115 398 1115 356 1105 c 1,19,-1
 356 1251 l 1,20,21
 423 1269 423 1269 477 1287 c 128,-1,22
 531 1305 531 1305 570 1328 c 128,-1,23
 609 1351 609 1351 632.5 1380 c 128,-1,24
 656 1409 656 1409 662 1449 c 1,25,26
 668 1479 668 1479 655 1512 c 1,27,28
 649 1530 649 1530 633.5 1542 c 128,-1,29
 618 1554 618 1554 599 1560.5 c 128,-1,30
 580 1567 580 1567 558.5 1569.5 c 128,-1,31
 537 1572 537 1572 519 1572 c 0,32,33
 487 1572 487 1572 451 1566 c 128,-1,34
 415 1560 415 1560 377.5 1549.5 c 128,-1,35
 340 1539 340 1539 302 1523.5 c 128,-1,36
 264 1508 264 1508 229 1488 c 1,37,-1
 171 1580 l 1,38,39
 197 1601 197 1601 242.5 1624.5 c 128,-1,40
 288 1648 288 1648 344 1668 c 128,-1,41
 400 1688 400 1688 461.5 1701.5 c 128,-1,42
 523 1715 523 1715 582 1717 c 0,43,44
 681 1720 681 1720 749 1703.5 c 128,-1,45
 817 1687 817 1687 859 1658 c 128,-1,46
 901 1629 901 1629 919 1589.5 c 128,-1,47
 937 1550 937 1550 937 1507 c 0,48,49
 937 1465 937 1465 926 1425.5 c 128,-1,50
 915 1386 915 1386 890.5 1351.5 c 128,-1,51
 866 1317 866 1317 825.5 1287 c 128,-1,52
 785 1257 785 1257 726 1235 c 1,53,54
 788 1235 788 1235 833 1222.5 c 128,-1,55
 878 1210 878 1210 909 1189.5 c 128,-1,56
 940 1169 940 1169 959.5 1144 c 128,-1,57
 979 1119 979 1119 989.5 1094 c 128,-1,58
 1000 1069 1000 1069 1003.5 1047 c 128,-1,59
 1007 1025 1007 1025 1007 1012 c 0,60,61
 1007 944 1007 944 976.5 883 c 128,-1,62
 946 822 946 822 885 775.5 c 128,-1,63
 824 729 824 729 733 701.5 c 128,-1,64
 642 674 642 674 521 674 c 0,65,66
 421 674 421 674 342 686.5 c 128,-1,67
 263 699 263 699 208 713 c 1,68,-1
 208 838 l 1,0,1
EndSplineSet
EndChar

StartChar: onequarter
Encoding: 188 188 157
Width: 2683
Flags: W
LayerCount: 2
Fore
SplineSet
1525 1881 m 1,0,-1
 1736 1881 l 1,1,-1
 1087 -343 l 1,2,-1
 880 -341 l 1,3,-1
 1525 1881 l 1,0,-1
214 833 m 1,4,-1
 467 868 l 1,5,-1
 467 1444 l 1,6,7
 415 1436 415 1436 351 1424 c 128,-1,8
 287 1412 287 1412 230 1401 c 1,9,-1
 201 1532 l 1,10,11
 234 1539 234 1539 278 1553 c 128,-1,12
 322 1567 322 1567 370.5 1585 c 128,-1,13
 419 1603 419 1603 467.5 1623 c 128,-1,14
 516 1643 516 1643 557 1662 c 128,-1,15
 598 1681 598 1681 628.5 1697 c 128,-1,16
 659 1713 659 1713 671 1723 c 1,17,-1
 740 1708 l 1,18,-1
 738 867 l 1,19,-1
 990 833 l 1,20,-1
 990 718 l 1,21,-1
 214 718 l 1,22,-1
 214 833 l 1,4,-1
2095 1110 m 1,23,-1
 2182 1110 l 1,24,-1
 2329 1015 l 1,25,-1
 1996 617 l 1,26,-1
 1821 390 l 1,27,-1
 1743 287 l 1,28,-1
 2123 322 l 1,29,-1
 2127 612 l 1,30,-1
 2345 635 l 1,31,-1
 2351 343 l 1,32,-1
 2599 366 l 1,33,-1
 2600 147 l 1,34,-1
 2356 147 l 1,35,-1
 2363 -172 l 1,36,-1
 2116 -172 l 1,37,-1
 2120 147 l 1,38,-1
 1570 147 l 1,39,-1
 1528 280 l 1,40,-1
 2095 1110 l 1,23,-1
EndSplineSet
EndChar

StartChar: onehalf
Encoding: 189 189 158
Width: 2683
Flags: W
LayerCount: 2
Fore
SplineSet
1528 1881 m 1,0,-1
 1737 1881 l 1,1,-1
 1089 -343 l 1,2,-1
 883 -341 l 1,3,-1
 1528 1881 l 1,0,-1
214 833 m 1,4,-1
 467 868 l 1,5,-1
 467 1444 l 1,6,7
 415 1436 415 1436 351 1424 c 128,-1,8
 287 1412 287 1412 230 1401 c 1,9,-1
 201 1532 l 1,10,11
 234 1539 234 1539 278 1553 c 128,-1,12
 322 1567 322 1567 370.5 1585 c 128,-1,13
 419 1603 419 1603 467.5 1623 c 128,-1,14
 516 1643 516 1643 557 1662 c 128,-1,15
 598 1681 598 1681 628.5 1697 c 128,-1,16
 659 1713 659 1713 671 1723 c 1,17,-1
 740 1708 l 1,18,-1
 738 867 l 1,19,-1
 990 833 l 1,20,-1
 990 718 l 1,21,-1
 214 718 l 1,22,-1
 214 833 l 1,4,-1
1636 119 m 1,23,24
 1690 152 1690 152 1749 185 c 128,-1,25
 1808 218 1808 218 1867.5 253.5 c 128,-1,26
 1927 289 1927 289 1982.5 326.5 c 128,-1,27
 2038 364 2038 364 2084.5 405 c 128,-1,28
 2131 446 2131 446 2165.5 491.5 c 128,-1,29
 2200 537 2200 537 2216 587 c 1,30,31
 2228 619 2228 619 2232.5 650 c 128,-1,32
 2237 681 2237 681 2232 712 c 1,33,34
 2227 735 2227 735 2212 756 c 128,-1,35
 2197 777 2197 777 2170.5 792 c 128,-1,36
 2144 807 2144 807 2105.5 814 c 128,-1,37
 2067 821 2067 821 2015 816 c 0,38,39
 1963 812 1963 812 1916 795 c 128,-1,40
 1869 778 1869 778 1829.5 755.5 c 128,-1,41
 1790 733 1790 733 1760 710 c 128,-1,42
 1730 687 1730 687 1713 671 c 1,43,-1
 1637 783 l 1,44,45
 1657 812 1657 812 1701.5 845.5 c 128,-1,46
 1746 879 1746 879 1807.5 909 c 128,-1,47
 1869 939 1869 939 1943 961 c 128,-1,48
 2017 983 2017 983 2097 988 c 0,49,50
 2216 995 2216 995 2296.5 970 c 128,-1,51
 2377 945 2377 945 2426.5 904.5 c 128,-1,52
 2476 864 2476 864 2497 816.5 c 128,-1,53
 2518 769 2518 769 2518 730 c 0,54,55
 2518 628 2518 628 2475.5 549 c 128,-1,56
 2433 470 2433 470 2357 401 c 128,-1,57
 2281 332 2281 332 2176 267 c 128,-1,58
 2071 202 2071 202 1946 127 c 1,59,-1
 2398 182 l 1,60,-1
 2492 279 l 1,61,-1
 2605 242 l 1,62,-1
 2546 -1 l 1,63,-1
 1693 -1 l 1,64,-1
 1636 119 l 1,23,24
EndSplineSet
EndChar

StartChar: threequarters
Encoding: 190 190 159
Width: 2853
Flags: W
LayerCount: 2
Fore
SplineSet
1524 1881 m 1,0,-1
 1734 1881 l 1,1,-1
 1086 -343 l 1,2,-1
 879 -341 l 1,3,-1
 1524 1881 l 1,0,-1
208 838 m 1,4,5
 233 832 233 832 264 827 c 128,-1,6
 295 822 295 822 327 818.5 c 128,-1,7
 359 815 359 815 388.5 813.5 c 128,-1,8
 418 812 418 812 439 813 c 0,9,10
 572 819 572 819 645.5 866 c 128,-1,11
 719 913 719 913 727 991 c 0,12,13
 728 1002 728 1002 726 1021.5 c 128,-1,14
 724 1041 724 1041 713.5 1062.5 c 128,-1,15
 703 1084 703 1084 681.5 1104 c 128,-1,16
 660 1124 660 1124 624 1136 c 1,17,18
 604 1140 604 1140 579.5 1142 c 128,-1,19
 555 1144 555 1144 524 1143 c 1,20,21
 482 1134 482 1134 440 1124.5 c 128,-1,22
 398 1115 398 1115 356 1105 c 1,23,-1
 356 1251 l 1,24,25
 423 1269 423 1269 477 1287 c 128,-1,26
 531 1305 531 1305 570 1328 c 128,-1,27
 609 1351 609 1351 632.5 1380 c 128,-1,28
 656 1409 656 1409 662 1449 c 1,29,30
 668 1479 668 1479 655 1512 c 1,31,32
 649 1530 649 1530 633.5 1542 c 128,-1,33
 618 1554 618 1554 599 1560.5 c 128,-1,34
 580 1567 580 1567 558.5 1569.5 c 128,-1,35
 537 1572 537 1572 519 1572 c 0,36,37
 487 1572 487 1572 451 1566 c 128,-1,38
 415 1560 415 1560 377.5 1549.5 c 128,-1,39
 340 1539 340 1539 302 1523.5 c 128,-1,40
 264 1508 264 1508 229 1488 c 1,41,-1
 171 1580 l 1,42,43
 197 1601 197 1601 242.5 1624.5 c 128,-1,44
 288 1648 288 1648 344 1668 c 128,-1,45
 400 1688 400 1688 461.5 1701.5 c 128,-1,46
 523 1715 523 1715 582 1717 c 0,47,48
 681 1720 681 1720 749 1703.5 c 128,-1,49
 817 1687 817 1687 859 1658 c 128,-1,50
 901 1629 901 1629 919 1589.5 c 128,-1,51
 937 1550 937 1550 937 1507 c 0,52,53
 937 1465 937 1465 926 1425.5 c 128,-1,54
 915 1386 915 1386 890.5 1351.5 c 128,-1,55
 866 1317 866 1317 825.5 1287 c 128,-1,56
 785 1257 785 1257 726 1235 c 1,57,58
 788 1235 788 1235 833 1222.5 c 128,-1,59
 878 1210 878 1210 909 1189.5 c 128,-1,60
 940 1169 940 1169 959.5 1144 c 128,-1,61
 979 1119 979 1119 989.5 1094 c 128,-1,62
 1000 1069 1000 1069 1003.5 1047 c 128,-1,63
 1007 1025 1007 1025 1007 1012 c 0,64,65
 1007 944 1007 944 976.5 883 c 128,-1,66
 946 822 946 822 885 775.5 c 128,-1,67
 824 729 824 729 733 701.5 c 128,-1,68
 642 674 642 674 521 674 c 0,69,70
 421 674 421 674 342 686.5 c 128,-1,71
 263 699 263 699 208 713 c 1,72,-1
 208 838 l 1,4,5
2095 1110 m 1,73,-1
 2182 1110 l 1,74,-1
 2329 1015 l 1,75,-1
 1996 623 l 1,76,-1
 1821 396 l 1,77,-1
 1743 293 l 1,78,-1
 2123 328 l 1,79,-1
 2127 618 l 1,80,-1
 2345 641 l 1,81,-1
 2351 349 l 1,82,-1
 2599 372 l 1,83,-1
 2600 152 l 1,84,-1
 2356 152 l 1,85,-1
 2363 -166 l 1,86,-1
 2116 -166 l 1,87,-1
 2120 152 l 1,88,-1
 1570 152 l 1,89,-1
 1528 285 l 1,90,-1
 2095 1110 l 1,73,-1
EndSplineSet
EndChar

StartChar: degree
Encoding: 176 176 160
Width: 821
Flags: W
LayerCount: 2
Fore
SplineSet
410 1032 m 256,0,1
 340 1032 340 1032 278 1058.5 c 128,-1,2
 216 1085 216 1085 169.5 1131 c 128,-1,3
 123 1177 123 1177 96 1238 c 128,-1,4
 69 1299 69 1299 69 1368 c 256,5,6
 69 1437 69 1437 96 1498 c 128,-1,7
 123 1559 123 1559 169.5 1605 c 128,-1,8
 216 1651 216 1651 278 1677.5 c 128,-1,9
 340 1704 340 1704 410 1704 c 256,10,11
 480 1704 480 1704 542.5 1677 c 128,-1,12
 605 1650 605 1650 651 1604 c 128,-1,13
 697 1558 697 1558 724 1497 c 128,-1,14
 751 1436 751 1436 751 1368 c 0,15,16
 751 1299 751 1299 724 1238 c 128,-1,17
 697 1177 697 1177 651 1131 c 128,-1,18
 605 1085 605 1085 542.5 1058.5 c 128,-1,19
 480 1032 480 1032 410 1032 c 256,0,1
409 1185 m 0,20,21
 446 1185 446 1185 478.5 1199 c 128,-1,22
 511 1213 511 1213 535 1238 c 128,-1,23
 559 1263 559 1263 573 1296 c 128,-1,24
 587 1329 587 1329 587 1368 c 0,25,26
 587 1406 587 1406 573 1439.5 c 128,-1,27
 559 1473 559 1473 535 1498.5 c 128,-1,28
 511 1524 511 1524 478.5 1538.5 c 128,-1,29
 446 1553 446 1553 409 1553 c 0,30,31
 371 1553 371 1553 338.5 1539 c 128,-1,32
 306 1525 306 1525 282.5 1500 c 128,-1,33
 259 1475 259 1475 245.5 1441 c 128,-1,34
 232 1407 232 1407 232 1368 c 256,35,36
 232 1329 232 1329 245.5 1296 c 128,-1,37
 259 1263 259 1263 282.5 1238 c 128,-1,38
 306 1213 306 1213 338.5 1199 c 128,-1,39
 371 1185 371 1185 409 1185 c 0,20,21
EndSplineSet
EndChar

StartChar: plusminus
Encoding: 177 177 161
Width: 1329
Flags: W
LayerCount: 2
Fore
SplineSet
542 583 m 1,0,-1
 546 724 l 1,1,-1
 411 717 l 1,2,-1
 166 717 l 1,3,-1
 166 962 l 1,4,-1
 411 962 l 1,5,-1
 545 953 l 1,6,-1
 542 1091 l 1,7,-1
 542 1326 l 1,8,-1
 785 1326 l 1,9,-1
 785 1099 l 1,10,-1
 781 953 l 1,11,-1
 910 962 l 1,12,-1
 1163 962 l 1,13,-1
 1163 717 l 1,14,-1
 910 717 l 1,15,-1
 781 722 l 1,16,-1
 785 583 l 1,17,-1
 785 341 l 1,18,-1
 542 341 l 1,19,-1
 542 583 l 1,0,-1
189 191 m 1,20,-1
 1141 191 l 1,21,-1
 1141 -28 l 1,22,-1
 189 -28 l 1,23,-1
 189 191 l 1,20,-1
EndSplineSet
EndChar

StartChar: multiply
Encoding: 215 215 162
Width: 1351
Flags: W
LayerCount: 2
Fore
SplineSet
182 465 m 1,0,-1
 528 780 l 1,1,-1
 173 1123 l 1,2,-1
 333 1286 l 1,3,-1
 675 927 l 1,4,-1
 1008 1292 l 1,5,-1
 1175 1127 l 1,6,-1
 814 783 l 1,7,-1
 1172 438 l 1,8,-1
 1014 280 l 1,9,-1
 670 636 l 1,10,-1
 354 278 l 1,11,-1
 182 465 l 1,0,-1
EndSplineSet
EndChar

StartChar: divide
Encoding: 247 247 163
Width: 1338
Flags: W
LayerCount: 2
Fore
SplineSet
658 1074 m 0,0,1
 626 1074 626 1074 596 1084.5 c 128,-1,2
 566 1095 566 1095 542.5 1115.5 c 128,-1,3
 519 1136 519 1136 505 1166 c 128,-1,4
 491 1196 491 1196 491 1234 c 0,5,6
 491 1275 491 1275 509 1309.5 c 128,-1,7
 527 1344 527 1344 555 1369.5 c 128,-1,8
 583 1395 583 1395 618 1409 c 128,-1,9
 653 1423 653 1423 688 1423 c 0,10,11
 733 1423 733 1423 765 1410.5 c 128,-1,12
 797 1398 797 1398 817.5 1376 c 128,-1,13
 838 1354 838 1354 848 1325 c 128,-1,14
 858 1296 858 1296 858 1262 c 0,15,16
 858 1218 858 1218 841 1183.5 c 128,-1,17
 824 1149 824 1149 795.5 1124.5 c 128,-1,18
 767 1100 767 1100 731 1087 c 128,-1,19
 695 1074 695 1074 658 1074 c 0,0,1
193 910 m 1,20,-1
 1145 910 l 1,21,-1
 1145 690 l 1,22,-1
 193 690 l 1,23,-1
 193 910 l 1,20,-1
491 349 m 0,24,25
 491 390 491 390 508.5 425 c 128,-1,26
 526 460 526 460 554.5 485.5 c 128,-1,27
 583 511 583 511 618 525 c 128,-1,28
 653 539 653 539 688 539 c 0,29,30
 732 539 732 539 764 526.5 c 128,-1,31
 796 514 796 514 816.5 492 c 128,-1,32
 837 470 837 470 847 441 c 128,-1,33
 857 412 857 412 857 378 c 0,34,35
 857 334 857 334 840 299.5 c 128,-1,36
 823 265 823 265 795 240.5 c 128,-1,37
 767 216 767 216 731 203 c 128,-1,38
 695 190 695 190 658 190 c 0,39,40
 626 190 626 190 595.5 200.5 c 128,-1,41
 565 211 565 211 542 231.5 c 128,-1,42
 519 252 519 252 505 281.5 c 128,-1,43
 491 311 491 311 491 349 c 0,24,25
EndSplineSet
EndChar

StartChar: logicalnot
Encoding: 172 172 164
Width: 1359
Flags: W
LayerCount: 2
Fore
SplineSet
197 724 m 1,0,-1
 1167 724 l 1,1,-1
 1167 160 l 1,2,-1
 917 160 l 1,3,-1
 917 547 l 1,4,-1
 197 547 l 1,5,-1
 197 724 l 1,0,-1
EndSplineSet
EndChar

StartChar: mu
Encoding: 181 181 165
AltUni2: 0003bc.ffffffff.0
Width: 1263
Flags: W
LayerCount: 2
Fore
SplineSet
390 -373 m 1,0,-1
 165 -373 l 1,1,-1
 165 455 l 1,2,-1
 165 481 l 1,3,-1
 165 909 l 1,4,-1
 59 962 l 1,5,-1
 59 1068 l 1,6,-1
 400 1146 l 1,7,-1
 445 1128 l 1,8,-1
 445 421 l 2,9,10
 445 347 445 347 457 296 c 128,-1,11
 469 245 469 245 493.5 214 c 128,-1,12
 518 183 518 183 555 169.5 c 128,-1,13
 592 156 592 156 642 156 c 0,14,15
 675 156 675 156 707 162.5 c 128,-1,16
 739 169 739 169 766 178 c 128,-1,17
 793 187 793 187 813.5 198 c 128,-1,18
 834 209 834 209 845 218 c 1,19,-1
 845 901 l 1,20,-1
 719 955 l 1,21,-1
 719 1069 l 1,22,-1
 1080 1146 l 1,23,-1
 1124 1129 l 1,24,-1
 1124 114 l 1,25,-1
 1241 114 l 1,26,-1
 1241 20 l 1,27,28
 1225 10 1225 10 1198 0.5 c 128,-1,29
 1171 -9 1171 -9 1138 -16 c 128,-1,30
 1105 -23 1105 -23 1068.5 -27 c 128,-1,31
 1032 -31 1032 -31 999 -31 c 0,32,33
 944 -31 944 -31 908.5 -7.5 c 128,-1,34
 873 16 873 16 873 69 c 2,35,-1
 873 120 l 1,36,37
 838 84 838 84 794.5 56.5 c 128,-1,38
 751 29 751 29 704.5 11 c 128,-1,39
 658 -7 658 -7 612 -16 c 128,-1,40
 566 -25 566 -25 526 -25 c 0,41,42
 447 -25 447 -25 390 -10 c 1,43,-1
 390 -373 l 1,0,-1
EndSplineSet
EndChar

StartChar: periodcentered
Encoding: 183 183 166
Width: 741
Flags: W
LayerCount: 2
Fore
SplineSet
354 633 m 0,0,1
 322 633 322 633 291.5 643.5 c 128,-1,2
 261 654 261 654 237 674.5 c 128,-1,3
 213 695 213 695 198.5 724.5 c 128,-1,4
 184 754 184 754 184 792 c 0,5,6
 184 833 184 833 202 868.5 c 128,-1,7
 220 904 220 904 249 930 c 128,-1,8
 278 956 278 956 313.5 970.5 c 128,-1,9
 349 985 349 985 384 985 c 0,10,11
 428 985 428 985 460.5 972 c 128,-1,12
 493 959 493 959 514.5 936.5 c 128,-1,13
 536 914 536 914 546.5 884 c 128,-1,14
 557 854 557 854 557 820 c 0,15,16
 557 777 557 777 539 742.5 c 128,-1,17
 521 708 521 708 492.5 683.5 c 128,-1,18
 464 659 464 659 427.5 646 c 128,-1,19
 391 633 391 633 354 633 c 0,0,1
EndSplineSet
EndChar

StartChar: hyphen
Encoding: 45 45 167
Width: 933
Flags: W
LayerCount: 2
Fore
SplineSet
131 880 m 1,0,-1
 802 880 l 1,1,-1
 802 683 l 1,2,-1
 131 683 l 1,3,-1
 131 880 l 1,0,-1
EndSplineSet
EndChar

StartChar: brokenbar
Encoding: 166 166 168
Width: 993
Flags: W
LayerCount: 2
Fore
SplineSet
361 1780 m 1,0,-1
 638 1780 l 1,1,-1
 638 887 l 1,2,-1
 361 887 l 1,3,-1
 361 1780 l 1,0,-1
361 708 m 1,4,-1
 638 708 l 1,5,-1
 638 -185 l 1,6,-1
 361 -185 l 1,7,-1
 361 708 l 1,4,-1
EndSplineSet
EndChar

StartChar: euro
Encoding: 8364 8364 169
Width: 1626
Flags: W
LayerCount: 2
Fore
SplineSet
93 692 m 1,0,-1
 279 692 l 1,1,-1
 279 718 l 2,2,3
 279 760 279 760 281.5 801.5 c 128,-1,4
 284 843 284 843 290 884 c 1,5,-1
 123 884 l 1,6,-1
 123 1054 l 1,7,-1
 328 1054 l 1,8,9
 362 1161 362 1161 422 1251.5 c 128,-1,10
 482 1342 482 1342 568 1408 c 128,-1,11
 654 1474 654 1474 768 1511 c 128,-1,12
 882 1548 882 1548 1025 1548 c 0,13,14
 1103 1548 1103 1548 1167.5 1536 c 128,-1,15
 1232 1524 1232 1524 1285.5 1509.5 c 128,-1,16
 1339 1495 1339 1495 1383 1484.5 c 128,-1,17
 1427 1474 1427 1474 1466 1477 c 1,18,-1
 1449 1136 l 1,19,-1
 1321 1136 l 1,20,-1
 1258 1317 l 1,21,22
 1203 1357 1203 1357 1131 1375.5 c 128,-1,23
 1059 1394 1059 1394 967 1394 c 0,24,25
 887 1394 887 1394 827 1371.5 c 128,-1,26
 767 1349 767 1349 725 1306 c 128,-1,27
 683 1263 683 1263 656 1199.5 c 128,-1,28
 629 1136 629 1136 615 1054 c 1,29,-1
 1108 1054 l 1,30,-1
 1108 884 l 1,31,-1
 597 884 l 1,32,33
 596 858 596 858 595.5 831 c 128,-1,34
 595 804 595 804 595 775 c 0,35,36
 595 754 595 754 595 733 c 128,-1,37
 595 712 595 712 596 692 c 1,38,-1
 1085 692 l 1,39,-1
 1085 521 l 1,40,-1
 611 521 l 1,41,42
 624 431 624 431 651 357 c 128,-1,43
 678 283 678 283 724 229.5 c 128,-1,44
 770 176 770 176 837.5 146 c 128,-1,45
 905 116 905 116 1000 116 c 0,46,47
 1041 116 1041 116 1073.5 119.5 c 128,-1,48
 1106 123 1106 123 1133 131 c 128,-1,49
 1160 139 1160 139 1183 150.5 c 128,-1,50
 1206 162 1206 162 1228 178 c 1,51,52
 1249 198 1249 198 1262.5 223.5 c 128,-1,53
 1276 249 1276 249 1286.5 277.5 c 128,-1,54
 1297 306 1297 306 1304.5 335.5 c 128,-1,55
 1312 365 1312 365 1321 393 c 1,56,-1
 1466 393 l 1,57,-1
 1466 63 l 1,58,59
 1435 66 1435 66 1406 60.5 c 128,-1,60
 1377 55 1377 55 1345.5 45 c 128,-1,61
 1314 35 1314 35 1277 22.5 c 128,-1,62
 1240 10 1240 10 1193.5 -1.5 c 128,-1,63
 1147 -13 1147 -13 1087.5 -20.5 c 128,-1,64
 1028 -28 1028 -28 952 -28 c 0,65,66
 817 -28 817 -28 707 11 c 128,-1,67
 597 50 597 50 513.5 121.5 c 128,-1,68
 430 193 430 193 375.5 294.5 c 128,-1,69
 321 396 321 396 297 521 c 1,70,-1
 93 521 l 1,71,-1
 93 692 l 1,0,-1
EndSplineSet
EndChar

StartChar: macron
Encoding: 175 175 170
Width: 1030
Flags: W
LayerCount: 2
Fore
SplineSet
239 1584 m 1,0,-1
 790 1584 l 1,1,-1
 790 1383 l 1,2,-1
 239 1383 l 1,3,-1
 239 1584 l 1,0,-1
EndSplineSet
EndChar

StartChar: carondl
Encoding: 65540 -1 171
Width: 269
Flags: W
LayerCount: 2
Fore
SplineSet
103 1593 m 1,0,-1
 317 1593 l 1,1,-1
 244 1017 l 1,2,-1
 95 1017 l 1,3,-1
 103 1593 l 1,0,-1
EndSplineSet
EndChar

StartChar: commabelow
Encoding: 65541 -1 172
Width: 440
Flags: W
LayerCount: 2
Fore
SplineSet
314 40 m 1,0,1
 366 37 366 37 411.5 18.5 c 128,-1,2
 457 0 457 0 491 -33.5 c 128,-1,3
 525 -67 525 -67 544.5 -114 c 128,-1,4
 564 -161 564 -161 564 -220 c 0,5,6
 564 -290 564 -290 536.5 -343.5 c 128,-1,7
 509 -397 509 -397 467 -436.5 c 128,-1,8
 425 -476 425 -476 375 -501.5 c 128,-1,9
 325 -527 325 -527 280 -540 c 1,10,-1
 183 -483 l 1,11,-1
 183 -456 l 1,12,13
 202 -443 202 -443 225.5 -428 c 128,-1,14
 249 -413 249 -413 269.5 -393.5 c 128,-1,15
 290 -374 290 -374 303.5 -349 c 128,-1,16
 317 -324 317 -324 317 -291 c 0,17,18
 317 -263 317 -263 305.5 -240 c 128,-1,19
 294 -217 294 -217 275 -200 c 128,-1,20
 256 -183 256 -183 232 -173 c 128,-1,21
 208 -163 208 -163 184 -161 c 1,22,-1
 184 -103 l 1,23,-1
 314 40 l 1,0,1
EndSplineSet
EndChar

StartChar: commaaccent
Encoding: 65542 -1 173
Width: 794
Flags: W
LayerCount: 2
Fore
SplineSet
314 40 m 1,0,1
 366 37 366 37 411.5 18.5 c 128,-1,2
 457 0 457 0 491 -33.5 c 128,-1,3
 525 -67 525 -67 544.5 -114 c 128,-1,4
 564 -161 564 -161 564 -220 c 0,5,6
 564 -290 564 -290 536.5 -343.5 c 128,-1,7
 509 -397 509 -397 467 -436.5 c 128,-1,8
 425 -476 425 -476 375 -501.5 c 128,-1,9
 325 -527 325 -527 280 -540 c 1,10,-1
 183 -483 l 1,11,-1
 183 -456 l 1,12,13
 202 -443 202 -443 225.5 -428 c 128,-1,14
 249 -413 249 -413 269.5 -393.5 c 128,-1,15
 290 -374 290 -374 303.5 -349 c 128,-1,16
 317 -324 317 -324 317 -291 c 0,17,18
 317 -263 317 -263 305.5 -240 c 128,-1,19
 294 -217 294 -217 275 -200 c 128,-1,20
 256 -183 256 -183 232 -173 c 128,-1,21
 208 -163 208 -163 184 -161 c 1,22,-1
 184 -103 l 1,23,-1
 314 40 l 1,0,1
EndSplineSet
EndChar

StartChar: acute.cap
Encoding: 65543 -1 174
Width: 905
Flags: W
LayerCount: 2
Fore
SplineSet
281 1632 m 1,0,-1
 585 1920 l 1,1,-1
 768 1795 l 1,2,3
 731 1752 731 1752 677.5 1713 c 128,-1,4
 624 1674 624 1674 568.5 1643.5 c 128,-1,5
 513 1613 513 1613 463 1593 c 128,-1,6
 413 1573 413 1573 383 1567 c 1,7,-1
 281 1632 l 1,0,-1
EndSplineSet
EndChar

StartChar: grave.cap
Encoding: 65544 -1 175
Width: 905
Flags: W
LayerCount: 2
Fore
SplineSet
535 1567 m 1,0,1
 505 1573 505 1573 455 1593 c 128,-1,2
 405 1613 405 1613 349.5 1643.5 c 128,-1,3
 294 1674 294 1674 240.5 1713 c 128,-1,4
 187 1752 187 1752 150 1795 c 1,5,-1
 333 1920 l 1,6,-1
 637 1632 l 1,7,-1
 535 1567 l 1,8,-1
 535 1567 l 1,0,1
EndSplineSet
EndChar

StartChar: dieresis.cap
Encoding: 65545 -1 176
Width: 1081
Flags: W
LayerCount: 2
Fore
SplineSet
776 1580 m 0,0,1
 745 1580 745 1580 716 1590.5 c 128,-1,2
 687 1601 687 1601 664.5 1621 c 128,-1,3
 642 1641 642 1641 628.5 1670 c 128,-1,4
 615 1699 615 1699 615 1737 c 0,5,6
 615 1777 615 1777 631.5 1810.5 c 128,-1,7
 648 1844 648 1844 674.5 1868.5 c 128,-1,8
 701 1893 701 1893 734 1906.5 c 128,-1,9
 767 1920 767 1920 801 1920 c 0,10,11
 843 1920 843 1920 873.5 1908 c 128,-1,12
 904 1896 904 1896 923 1875 c 128,-1,13
 942 1854 942 1854 951 1825.5 c 128,-1,14
 960 1797 960 1797 960 1764 c 0,15,16
 960 1722 960 1722 944.5 1688 c 128,-1,17
 929 1654 929 1654 903.5 1630 c 128,-1,18
 878 1606 878 1606 845 1593 c 128,-1,19
 812 1580 812 1580 776 1580 c 0,0,1
279 1580 m 0,20,21
 247 1580 247 1580 218 1590.5 c 128,-1,22
 189 1601 189 1601 167.5 1620.5 c 128,-1,23
 146 1640 146 1640 133 1669 c 128,-1,24
 120 1698 120 1698 120 1735 c 0,25,26
 120 1775 120 1775 136 1809 c 128,-1,27
 152 1843 152 1843 178.5 1867.5 c 128,-1,28
 205 1892 205 1892 238 1906 c 128,-1,29
 271 1920 271 1920 305 1920 c 0,30,31
 348 1920 348 1920 378.5 1908 c 128,-1,32
 409 1896 409 1896 428.5 1874.5 c 128,-1,33
 448 1853 448 1853 457.5 1824.5 c 128,-1,34
 467 1796 467 1796 467 1763 c 0,35,36
 467 1721 467 1721 451 1687 c 128,-1,37
 435 1653 435 1653 409 1629.5 c 128,-1,38
 383 1606 383 1606 349 1593 c 128,-1,39
 315 1580 315 1580 279 1580 c 0,20,21
EndSplineSet
EndChar

StartChar: circumflex.cap
Encoding: 65546 -1 177
Width: 1062
Flags: W
LayerCount: 2
Fore
SplineSet
129 1659 m 1,0,-1
 413 1955 l 1,1,-1
 662 1955 l 1,2,-1
 932 1659 l 1,3,-1
 812 1597 l 1,4,-1
 530 1778 l 1,5,-1
 238 1597 l 1,6,-1
 129 1659 l 1,0,-1
EndSplineSet
EndChar

StartChar: caron.cap
Encoding: 65547 -1 178
Width: 885
Flags: W
LayerCount: 2
Fore
SplineSet
75 1858 m 1,0,-1
 148 1920 l 1,1,-1
 444 1773 l 1,2,-1
 711 1920 l 1,3,-1
 796 1862 l 1,4,-1
 561 1626 l 1,5,-1
 347 1626 l 1,6,-1
 75 1858 l 1,0,-1
EndSplineSet
EndChar

StartChar: breve.cap
Encoding: 65548 -1 179
Width: 708
Flags: W
LayerCount: 2
Fore
SplineSet
354 1603 m 0,0,1
 268 1603 268 1603 202 1629.5 c 128,-1,2
 136 1656 136 1656 91.5 1700 c 128,-1,3
 47 1744 47 1744 24 1801 c 128,-1,4
 1 1858 1 1858 1 1919 c 1,5,-1
 147 1919 l 1,6,7
 150 1908 150 1908 161 1885 c 128,-1,8
 172 1862 172 1862 195.5 1838.5 c 128,-1,9
 219 1815 219 1815 258 1797.5 c 128,-1,10
 297 1780 297 1780 355 1780 c 0,11,12
 412 1780 412 1780 450.5 1797.5 c 128,-1,13
 489 1815 489 1815 513 1838.5 c 128,-1,14
 537 1862 537 1862 549 1885.5 c 128,-1,15
 561 1909 561 1909 564 1920 c 1,16,-1
 707 1920 l 1,17,18
 707 1859 707 1859 682.5 1802 c 128,-1,19
 658 1745 658 1745 612.5 1700.5 c 128,-1,20
 567 1656 567 1656 501.5 1629.5 c 128,-1,21
 436 1603 436 1603 354 1603 c 0,0,1
EndSplineSet
EndChar

StartChar: dotaccent.cap
Encoding: 65549 -1 180
Width: 708
Flags: W
LayerCount: 2
Fore
SplineSet
342 1592 m 0,0,1
 311 1592 311 1592 282.5 1602.5 c 128,-1,2
 254 1613 254 1613 231.5 1633 c 128,-1,3
 209 1653 209 1653 195.5 1682 c 128,-1,4
 182 1711 182 1711 182 1749 c 0,5,6
 182 1786 182 1786 198 1817.5 c 128,-1,7
 214 1849 214 1849 240.5 1871.5 c 128,-1,8
 267 1894 267 1894 300 1907 c 128,-1,9
 333 1920 333 1920 367 1920 c 0,10,11
 410 1920 410 1920 440 1908 c 128,-1,12
 470 1896 470 1896 489 1876 c 128,-1,13
 508 1856 508 1856 517 1829.5 c 128,-1,14
 526 1803 526 1803 526 1775 c 0,15,16
 526 1733 526 1733 510.5 1699 c 128,-1,17
 495 1665 495 1665 469.5 1641.5 c 128,-1,18
 444 1618 444 1618 411 1605 c 128,-1,19
 378 1592 378 1592 342 1592 c 0,0,1
EndSplineSet
EndChar

StartChar: ring.cap
Encoding: 65550 -1 181
Width: 708
Flags: W
LayerCount: 2
Fore
SplineSet
353 1400 m 256,0,1
 296 1400 296 1400 246 1420.5 c 128,-1,2
 196 1441 196 1441 158.5 1476 c 128,-1,3
 121 1511 121 1511 99.5 1558.5 c 128,-1,4
 78 1606 78 1606 78 1660 c 256,5,6
 78 1714 78 1714 99.5 1761 c 128,-1,7
 121 1808 121 1808 158.5 1843.5 c 128,-1,8
 196 1879 196 1879 246 1899 c 128,-1,9
 296 1919 296 1919 353 1919 c 256,10,11
 410 1919 410 1919 460.5 1898.5 c 128,-1,12
 511 1878 511 1878 548.5 1842.5 c 128,-1,13
 586 1807 586 1807 608 1760 c 128,-1,14
 630 1713 630 1713 630 1660 c 0,15,16
 630 1606 630 1606 608 1558.5 c 128,-1,17
 586 1511 586 1511 548.5 1476 c 128,-1,18
 511 1441 511 1441 460.5 1420.5 c 128,-1,19
 410 1400 410 1400 353 1400 c 256,0,1
353 1527 m 0,20,21
 381 1527 381 1527 405.5 1537 c 128,-1,22
 430 1547 430 1547 448 1565 c 128,-1,23
 466 1583 466 1583 476 1607 c 128,-1,24
 486 1631 486 1631 486 1659 c 0,25,26
 486 1686 486 1686 476 1710 c 128,-1,27
 466 1734 466 1734 448 1752 c 128,-1,28
 430 1770 430 1770 405.5 1780.5 c 128,-1,29
 381 1791 381 1791 353 1791 c 0,30,31
 324 1791 324 1791 300 1781 c 128,-1,32
 276 1771 276 1771 258 1753 c 128,-1,33
 240 1735 240 1735 230 1711 c 128,-1,34
 220 1687 220 1687 220 1659 c 256,35,36
 220 1631 220 1631 230 1607 c 128,-1,37
 240 1583 240 1583 258 1565 c 128,-1,38
 276 1547 276 1547 300 1537 c 128,-1,39
 324 1527 324 1527 353 1527 c 0,20,21
EndSplineSet
EndChar

StartChar: ogonek.cap
Encoding: 65551 -1 182
Width: 743
Flags: W
LayerCount: 2
Fore
SplineSet
304 16 m 1,0,1
 316 16 316 16 327.5 15.5 c 128,-1,2
 339 15 339 15 351 15 c 2,3,-1
 508 11 l 1,4,5
 457 -8 457 -8 408 -36.5 c 128,-1,6
 359 -65 359 -65 320 -97 c 128,-1,7
 281 -129 281 -129 256 -161.5 c 128,-1,8
 231 -194 231 -194 227 -219 c 1,9,10
 220 -249 220 -249 222.5 -268 c 128,-1,11
 225 -287 225 -287 234.5 -299 c 128,-1,12
 244 -311 244 -311 258 -317 c 128,-1,13
 272 -323 272 -323 287 -326 c 0,14,15
 303 -329 303 -329 322 -328 c 128,-1,16
 341 -327 341 -327 362 -324 c 0,17,18
 380 -321 380 -321 398.5 -315.5 c 128,-1,19
 417 -310 417 -310 434 -304.5 c 128,-1,20
 451 -299 451 -299 464.5 -294 c 128,-1,21
 478 -289 478 -289 485 -286 c 1,22,-1
 514 -401 l 1,23,24
 497 -415 497 -415 471.5 -430.5 c 128,-1,25
 446 -446 446 -446 411 -461 c 128,-1,26
 376 -476 376 -476 331.5 -488 c 128,-1,27
 287 -500 287 -500 233 -505 c 0,28,29
 208 -507 208 -507 183.5 -506 c 128,-1,30
 159 -505 159 -505 133 -503 c 0,31,32
 86 -499 86 -499 53.5 -482 c 128,-1,33
 21 -465 21 -465 0.5 -441 c 128,-1,34
 -20 -417 -20 -417 -29.5 -388.5 c 128,-1,35
 -39 -360 -39 -360 -40 -333 c 0,36,37
 -41 -294 -41 -294 -16.5 -245 c 128,-1,38
 8 -196 8 -196 53.5 -147.5 c 128,-1,39
 99 -99 99 -99 163 -55.5 c 128,-1,40
 227 -12 227 -12 304 16 c 1,0,1
EndSplineSet
EndChar

StartChar: tilde.cap
Encoding: 65552 -1 183
Width: 1073
Flags: W
LayerCount: 2
Fore
SplineSet
126 1720 m 1,0,1
 143 1760 143 1760 177.5 1795.5 c 128,-1,2
 212 1831 212 1831 254 1857 c 128,-1,3
 296 1883 296 1883 340 1898.5 c 128,-1,4
 384 1914 384 1914 420 1914 c 0,5,6
 472 1914 472 1914 509.5 1896 c 128,-1,7
 547 1878 547 1878 578 1856.5 c 128,-1,8
 609 1835 609 1835 637 1817 c 128,-1,9
 665 1799 665 1799 699 1799 c 0,10,11
 727 1799 727 1799 751.5 1806.5 c 128,-1,12
 776 1814 776 1814 797.5 1825.5 c 128,-1,13
 819 1837 819 1837 838 1851.5 c 128,-1,14
 857 1866 857 1866 873 1880 c 1,15,-1
 932 1802 l 1,16,17
 914 1762 914 1762 880.5 1726.5 c 128,-1,18
 847 1691 847 1691 806 1664 c 128,-1,19
 765 1637 765 1637 722 1621.5 c 128,-1,20
 679 1606 679 1606 642 1606 c 0,21,22
 590 1606 590 1606 552 1624.5 c 128,-1,23
 514 1643 514 1643 482.5 1664.5 c 128,-1,24
 451 1686 451 1686 422 1704.5 c 128,-1,25
 393 1723 393 1723 359 1723 c 0,26,27
 334 1723 334 1723 309.5 1715.5 c 128,-1,28
 285 1708 285 1708 262.5 1696 c 128,-1,29
 240 1684 240 1684 220 1669.5 c 128,-1,30
 200 1655 200 1655 183 1641 c 1,31,-1
 126 1720 l 1,0,1
EndSplineSet
EndChar

StartChar: hungarumlaut.cap
Encoding: 65553 -1 184
Width: 923
Flags: W
LayerCount: 2
Fore
SplineSet
561 1638 m 1,0,-1
 829 1919 l 1,1,-1
 1015 1745 l 1,2,3
 967 1698 967 1698 913 1665.5 c 128,-1,4
 859 1633 859 1633 807.5 1612.5 c 128,-1,5
 756 1592 756 1592 710 1581 c 128,-1,6
 664 1570 664 1570 633 1566 c 1,7,-1
 561 1638 l 1,0,-1
51 1638 m 1,8,-1
 320 1919 l 1,9,-1
 505 1745 l 1,10,11
 458 1698 458 1698 404 1665.5 c 128,-1,12
 350 1633 350 1633 298 1612.5 c 128,-1,13
 246 1592 246 1592 200.5 1581 c 128,-1,14
 155 1570 155 1570 125 1566 c 1,15,-1
 51 1638 l 1,8,-1
EndSplineSet
EndChar

StartChar: registered
Encoding: 174 174 185
Width: 1974
Flags: W
LayerCount: 2
Fore
SplineSet
980 206 m 0,0,1
 857 206 857 206 745 236 c 128,-1,2
 633 266 633 266 537.5 321 c 128,-1,3
 442 376 442 376 365 453 c 128,-1,4
 288 530 288 530 233.5 624.5 c 128,-1,5
 179 719 179 719 149.5 828 c 128,-1,6
 120 937 120 937 120 1056 c 256,7,8
 120 1175 120 1175 150.5 1284.5 c 128,-1,9
 181 1394 181 1394 237 1488.5 c 128,-1,10
 293 1583 293 1583 371 1660 c 128,-1,11
 449 1737 449 1737 545 1792 c 128,-1,12
 641 1847 641 1847 751 1877 c 128,-1,13
 861 1907 861 1907 980 1907 c 0,14,15
 1098 1907 1098 1907 1208 1877.5 c 128,-1,16
 1318 1848 1318 1848 1413.5 1793.5 c 128,-1,17
 1509 1739 1509 1739 1587.5 1662 c 128,-1,18
 1666 1585 1666 1585 1722 1490.5 c 128,-1,19
 1778 1396 1778 1396 1809 1286 c 128,-1,20
 1840 1176 1840 1176 1840 1056 c 0,21,22
 1840 941 1840 941 1809 833 c 128,-1,23
 1778 725 1778 725 1722 630.5 c 128,-1,24
 1666 536 1666 536 1587.5 458 c 128,-1,25
 1509 380 1509 380 1413.5 324 c 128,-1,26
 1318 268 1318 268 1208 237 c 128,-1,27
 1098 206 1098 206 980 206 c 0,0,1
979 346 m 0,28,29
 1075 346 1075 346 1164.5 371 c 128,-1,30
 1254 396 1254 396 1331.5 442 c 128,-1,31
 1409 488 1409 488 1472.5 552.5 c 128,-1,32
 1536 617 1536 617 1581.5 696 c 128,-1,33
 1627 775 1627 775 1652 866 c 128,-1,34
 1677 957 1677 957 1677 1056 c 256,35,36
 1677 1155 1677 1155 1652 1246.5 c 128,-1,37
 1627 1338 1627 1338 1581.5 1417 c 128,-1,38
 1536 1496 1536 1496 1472.5 1560.5 c 128,-1,39
 1409 1625 1409 1625 1331.5 1671 c 128,-1,40
 1254 1717 1254 1717 1164.5 1742 c 128,-1,41
 1075 1767 1075 1767 979 1767 c 0,42,43
 882 1767 882 1767 793 1742 c 128,-1,44
 704 1717 704 1717 626.5 1671 c 128,-1,45
 549 1625 549 1625 485.5 1560.5 c 128,-1,46
 422 1496 422 1496 377 1417 c 128,-1,47
 332 1338 332 1338 307 1246.5 c 128,-1,48
 282 1155 282 1155 282 1056 c 256,49,50
 282 957 282 957 307 866 c 128,-1,51
 332 775 332 775 378 696 c 128,-1,52
 424 617 424 617 488 552.5 c 128,-1,53
 552 488 552 488 629 442 c 128,-1,54
 706 396 706 396 795 371 c 128,-1,55
 884 346 884 346 979 346 c 0,28,29
549 696 m 1,56,-1
 633 730 l 1,57,-1
 633 1408 l 1,58,-1
 549 1434 l 1,59,-1
 549 1553 l 1,60,-1
 745 1553 l 1,61,62
 770 1552 770 1552 798 1552.5 c 128,-1,63
 826 1553 826 1553 858.5 1553.5 c 128,-1,64
 891 1554 891 1554 930.5 1555.5 c 128,-1,65
 970 1557 970 1557 1018 1557 c 0,66,67
 1204 1557 1204 1557 1300 1497 c 128,-1,68
 1396 1437 1396 1437 1399 1309 c 1,69,70
 1399 1262 1399 1262 1387 1213 c 128,-1,71
 1375 1164 1375 1164 1346 1122.5 c 128,-1,72
 1317 1081 1317 1081 1268 1052 c 128,-1,73
 1219 1023 1219 1023 1145 1017 c 1,74,75
 1196 1005 1196 1005 1229 977.5 c 128,-1,76
 1262 950 1262 950 1285 915.5 c 128,-1,77
 1308 881 1308 881 1325.5 844 c 128,-1,78
 1343 807 1343 807 1362 776.5 c 128,-1,79
 1381 746 1381 746 1406.5 726 c 128,-1,80
 1432 706 1432 706 1471 706 c 1,81,-1
 1471 592 l 1,82,-1
 1226 592 l 2,83,84
 1183 592 1183 592 1157.5 613.5 c 128,-1,85
 1132 635 1132 635 1114 670 c 128,-1,86
 1096 705 1096 705 1082 748.5 c 128,-1,87
 1068 792 1068 792 1048 835 c 128,-1,88
 1028 878 1028 878 998 917 c 128,-1,89
 968 956 968 956 918 982 c 1,90,-1
 894 982 l 1,91,-1
 894 718 l 1,92,-1
 973 696 l 1,93,-1
 973 591 l 1,94,-1
 549 591 l 1,95,-1
 549 696 l 1,56,-1
894 1112 m 1,96,97
 917 1106 917 1106 937.5 1105 c 128,-1,98
 958 1104 958 1104 992 1104 c 0,99,100
 1020 1104 1020 1104 1046.5 1114 c 128,-1,101
 1073 1124 1073 1124 1093 1144.5 c 128,-1,102
 1113 1165 1113 1165 1125 1195.5 c 128,-1,103
 1137 1226 1137 1226 1137 1266 c 0,104,105
 1137 1354 1137 1354 1092 1388.5 c 128,-1,106
 1047 1423 1047 1423 953 1423 c 0,107,108
 936 1423 936 1423 923 1421 c 128,-1,109
 910 1419 910 1419 894 1413 c 1,110,-1
 894 1112 l 1,96,97
EndSplineSet
EndChar

